<svg width="25" height="25" viewBox="0 0 25 25" fill="none" xmlns="http://www.w3.org/2000/svg">
<g clip-path="url(#clip0)">
<path d="M13.998 12.9034L24.3975 2.50378C24.7637 2.13764 24.7637 1.54402 24.3975 1.17793C24.0314 0.811832 23.4378 0.811785 23.0717 1.17793L12.6721 11.5775L2.27258 1.17793C1.90644 0.811785 1.31282 0.811785 0.946724 1.17793C0.580631 1.54407 0.580584 2.13769 0.946724 2.50378L11.3463 12.9033L0.946724 23.3029C0.580584 23.669 0.580584 24.2626 0.946724 24.6287C1.12977 24.8118 1.36972 24.9033 1.60968 24.9033C1.84963 24.9033 2.08953 24.8118 2.27263 24.6287L12.6721 14.2292L23.0716 24.6287C23.2547 24.8118 23.4946 24.9033 23.7346 24.9033C23.9745 24.9033 24.2144 24.8118 24.3975 24.6287C24.7637 24.2626 24.7637 23.669 24.3975 23.3029L13.998 12.9034Z" fill="black"/>
</g>
<defs>
<clipPath id="clip0">
<rect width="24" height="24" fill="white" transform="translate(0.672363 0.902344)"/>
</clipPath>
</defs>
</svg>
