<svg width="25" height="25" viewBox="0 0 25 25" fill="none" xmlns="http://www.w3.org/2000/svg">
<g clip-path="url(#clip0)">
<path d="M13.5808 12.9834L23.9803 2.58386C24.3464 2.21772 24.3464 1.6241 23.9803 1.258C23.6142 0.89191 23.0205 0.891863 22.6544 1.258L12.2549 11.6576L1.85534 1.258C1.4892 0.891863 0.895581 0.891863 0.529488 1.258C0.163395 1.62414 0.163348 2.21777 0.529488 2.58386L10.929 12.9834L0.529488 23.383C0.163348 23.7491 0.163348 24.3427 0.529488 24.7088C0.712534 24.8919 0.952487 24.9834 1.19244 24.9834C1.43239 24.9834 1.6723 24.8919 1.85539 24.7088L12.2549 14.3093L22.6544 24.7088C22.8374 24.8919 23.0774 24.9834 23.3174 24.9834C23.5573 24.9834 23.7972 24.8919 23.9803 24.7088C24.3464 24.3427 24.3464 23.7491 23.9803 23.383L13.5808 12.9834Z" fill="black"/>
</g>
<defs>
<clipPath id="clip0">
<rect width="24" height="24" fill="white" transform="translate(0.254883 0.982422)"/>
</clipPath>
</defs>
</svg>
