<svg width="18" height="18" viewBox="0 0 18 18" fill="none" xmlns="http://www.w3.org/2000/svg">
<path fill-rule="evenodd" clip-rule="evenodd" d="M9.10938 17.127C13.5277 17.127 17.1094 13.5452 17.1094 9.12695C17.1094 4.70868 13.5277 1.12695 9.10938 1.12695C4.6911 1.12695 1.10938 4.70868 1.10938 9.12695C1.10938 13.5452 4.6911 17.127 9.10938 17.127Z" stroke="white"/>
<mask id="mask0" mask-type="alpha" maskUnits="userSpaceOnUse" x="0" y="0" width="18" height="18">
<path fill-rule="evenodd" clip-rule="evenodd" d="M9.10938 17.127C13.5277 17.127 17.1094 13.5452 17.1094 9.12695C17.1094 4.70868 13.5277 1.12695 9.10938 1.12695C4.6911 1.12695 1.10938 4.70868 1.10938 9.12695C1.10938 13.5452 4.6911 17.127 9.10938 17.127Z" fill="white" stroke="white"/>
</mask>
<g mask="url(#mask0)">
<rect x="1.10938" y="1.12695" width="16" height="16" fill="white"/>
<circle cx="9.06982" cy="9.12305" r="5" fill="#00A551"/>
</g>
<path d="M16.6094 9.12695C16.6094 13.2691 13.2515 16.627 9.10938 16.627C4.96724 16.627 1.60938 13.2691 1.60938 9.12695C1.60938 4.98482 4.96724 1.62695 9.10938 1.62695C13.2515 1.62695 16.6094 4.98482 16.6094 9.12695Z" stroke="#00A551"/>
<mask id="mask1" mask-type="alpha" maskUnits="userSpaceOnUse" x="1" y="1" width="17" height="17">
<path d="M16.6094 9.12695C16.6094 13.2691 13.2515 16.627 9.10938 16.627C4.96724 16.627 1.60938 13.2691 1.60938 9.12695C1.60938 4.98482 4.96724 1.62695 9.10938 1.62695C13.2515 1.62695 16.6094 4.98482 16.6094 9.12695Z" fill="white" stroke="white"/>
</mask>
<g mask="url(#mask1)">
</g>
</svg>
