<svg width="22" height="22" viewBox="0 0 22 22" fill="none" xmlns="http://www.w3.org/2000/svg">
<g clip-path="url(#clip0)">
<path d="M13.0155 11.0182L21.5819 2.45154C22.1394 1.89431 22.1394 0.99336 21.5819 0.436137C21.0247 -0.121087 20.1237 -0.121087 19.5665 0.436137L10.9999 9.00276L2.43351 0.436137C1.87603 -0.121087 0.975335 -0.121087 0.418113 0.436137C-0.139371 0.99336 -0.139371 1.89431 0.418113 2.45154L8.98446 11.0182L0.418113 19.5848C-0.139371 20.142 -0.139371 21.043 0.418113 21.6002C0.695811 21.8781 1.06094 22.0178 1.42581 22.0178C1.79068 22.0178 2.15555 21.8781 2.43351 21.6002L10.9999 13.0336L19.5665 21.6002C19.8444 21.8781 20.2093 22.0178 20.5742 22.0178C20.939 22.0178 21.3039 21.8781 21.5819 21.6002C22.1394 21.043 22.1394 20.142 21.5819 19.5848L13.0155 11.0182Z" fill="white"/>
</g>
<defs>
<clipPath id="clip0">
<rect width="22" height="22" fill="white"/>
</clipPath>
</defs>
</svg>
