<svg width="47" height="47" viewBox="0 0 47 47" fill="none" xmlns="http://www.w3.org/2000/svg">
<path d="M46.1263 29.4703C46.1204 29.4562 46.1142 29.4421 46.1077 29.4283C44.5844 26.1163 42.1007 24.7758 41.0964 24.3513C40.0562 23.9021 39.2757 23.7365 38.9408 23.6656C38.9339 23.6631 38.9266 23.6611 38.9198 23.6586C38.899 23.6509 38.8779 23.6441 38.8566 23.6375C38.8455 23.634 38.8349 23.6297 38.8236 23.6265C38.8158 23.6243 38.808 23.6232 38.8002 23.6211C38.7726 23.6137 38.7445 23.6073 38.7161 23.6016C38.698 23.598 38.6798 23.5945 38.6617 23.5916C38.6492 23.5896 38.6371 23.5864 38.6245 23.5847C38.6076 23.5825 38.591 23.5821 38.5742 23.5805C38.5597 23.5792 38.5454 23.5778 38.5309 23.5769C38.4977 23.5747 38.4647 23.574 38.4318 23.5742C38.4218 23.5743 38.4118 23.5741 38.4019 23.5745C38.3892 23.5748 38.3762 23.5741 38.3635 23.5748C38.3597 23.5745 38.3557 23.5741 38.3517 23.5736C37.987 23.5383 37.2301 23.4651 36.1829 23.5724C34.6445 23.6987 32.4159 24.4964 30.7531 26.3605C30.7431 26.3717 30.7332 26.3832 30.7235 26.3948C29.9574 27.3126 29.3791 28.4292 29.0483 29.6278C28.9603 29.8802 28.9509 30.1022 28.9482 30.2296C28.9481 30.2301 28.948 30.2306 28.9479 30.2311C28.8477 30.5195 28.8398 30.78 28.8645 30.9852C28.8625 31.0029 28.86 31.0204 28.8579 31.038C28.8377 31.2023 28.807 31.4522 28.8504 31.7542C28.841 32.305 28.9728 32.795 29.0811 33.198C29.1119 33.3124 29.1409 33.4205 29.163 33.5163C29.1892 33.6306 29.2328 33.7466 29.2871 33.8506C29.292 33.8744 29.2974 33.8981 29.3035 33.9216C29.3695 34.1759 29.4818 34.3635 29.5558 34.4778C29.606 34.6556 29.6915 34.8216 29.8074 34.966L29.8806 35.057C29.9225 35.1443 29.9912 35.2779 30.0999 35.42C30.4395 35.8768 30.8209 36.2298 31.1579 36.5417L31.2925 36.6667C31.3327 36.7043 31.3751 36.7394 31.4195 36.7719C31.8572 37.0922 32.2974 37.3001 32.6858 37.4836C32.7507 37.5143 32.815 37.5446 32.878 37.575C32.9323 37.6012 32.9882 37.6238 33.0453 37.6426C33.4529 37.777 33.8438 37.8342 34.158 37.8804C34.2867 37.8992 34.4083 37.9171 34.5093 37.937C34.5878 37.9524 34.6675 37.961 34.7475 37.9627C34.7847 37.9634 34.8218 37.9638 34.8588 37.9638C37.2859 37.9638 39.0268 36.3384 39.4411 34.7828C39.6367 34.048 39.1996 33.2936 38.4647 33.098C37.7301 32.9025 36.9755 33.3394 36.7798 34.0743C36.6744 34.4702 36.0193 35.1905 34.9036 35.2095C34.7853 35.189 34.6701 35.172 34.5575 35.1556C34.3469 35.1248 34.1463 35.0953 33.9783 35.0486C33.9398 35.0303 33.9012 35.012 33.8622 34.9936C33.5838 34.862 33.3194 34.7371 33.1035 34.5901C33.0786 34.5671 33.0536 34.5439 33.0285 34.5206C32.77 34.2813 32.5248 34.0544 32.3403 33.8169C32.2969 33.726 32.225 33.5833 32.1058 33.43C32.1058 33.4299 32.1057 33.4298 32.1057 33.4297C32.0514 33.2833 31.9849 33.1656 31.932 33.0807C31.8989 32.9671 31.8581 32.8548 31.8094 32.7445C31.7868 32.655 31.7634 32.5679 31.7406 32.4828C31.6708 32.2232 31.5917 31.9291 31.6053 31.7726C31.6161 31.6488 31.61 31.5242 31.5874 31.4024C31.5887 31.3927 31.5899 31.3831 31.5911 31.3735C31.6055 31.2557 31.6255 31.0942 31.6199 30.9C31.6322 30.8497 31.6433 30.7983 31.6534 30.7454C31.687 30.5971 31.6961 30.4669 31.6993 30.3737C31.9235 29.5538 32.3115 28.7953 32.8234 28.1767C33.9496 26.9245 35.4615 26.3918 36.4173 26.3163C36.4286 26.3153 36.4398 26.3143 36.4511 26.3131C37.2318 26.2322 37.7876 26.2859 38.0862 26.3147C38.1375 26.3197 38.1825 26.3239 38.2255 26.3275C38.2767 26.3399 38.3252 26.3503 38.3689 26.3595C38.6654 26.4223 39.2173 26.5391 40.0087 26.8813C40.0125 26.8829 40.0164 26.8846 40.0201 26.8861C40.722 27.1821 42.4723 28.1314 43.596 30.5579C44.0756 31.7091 44.2971 33.0261 44.2365 34.3686C44.2355 34.3906 44.235 34.4125 44.2351 34.4344C44.2317 34.4505 44.2278 34.4665 44.2243 34.4825C44.2017 34.5843 44.1687 34.7329 44.1538 34.909C44.1388 35.0282 44.1274 35.1497 44.1191 35.2791C44.1191 35.2813 44.1189 35.2835 44.1188 35.2857C44.0404 35.5184 43.996 35.7349 43.9564 35.928C43.9289 36.0626 43.8911 36.2468 43.8604 36.3046C43.8102 36.3989 43.7712 36.4988 43.7442 36.6021C43.5819 37.2223 43.1878 37.8614 42.7706 38.5382L42.7115 38.6341C42.5542 38.8274 42.4093 39.0269 42.2716 39.2402C42.2506 39.2633 42.2074 39.3055 42.1746 39.3375C42.0804 39.4296 41.9647 39.5428 41.8463 39.6897C41.7881 39.7572 41.7309 39.8263 41.675 39.8965L41.5142 40.0293C41.3598 40.1518 41.2348 40.2767 41.1336 40.3778C41.0765 40.4349 41.0117 40.4996 40.9798 40.5241C40.9736 40.5289 40.9675 40.5335 40.9613 40.5384C40.3466 41.0256 39.5847 41.4752 38.5662 41.952C37.8022 42.2534 36.9091 42.4705 35.7627 42.6335C34.7555 42.7134 33.6931 42.598 32.774 42.4687C31.81 42.2043 30.7959 41.8891 29.8675 41.3968C28.7901 40.7436 27.9778 40.13 27.3164 39.4694C26.4538 38.51 25.8386 37.6665 25.382 36.8172C25.3775 36.8088 25.373 36.8004 25.3683 36.7922C25.3302 36.7246 25.286 36.6177 25.2393 36.5045C25.1782 36.3563 25.1091 36.1889 25.0152 36.0092L24.8676 35.7132L24.7729 35.3999C24.7183 35.2079 24.6529 35.0429 24.5952 34.8968C24.5578 34.8025 24.5158 34.6963 24.5012 34.6381C24.4438 34.3354 24.3732 34.0313 24.291 33.7326C24.1051 32.5768 23.9653 31.5404 24.0877 30.5909C24.0976 30.5135 24.1011 30.4355 24.0978 30.3575C24.0886 30.1376 24.1379 29.8762 24.195 29.5733C24.2404 29.3327 24.2918 29.0601 24.3197 28.7671C24.3211 28.753 24.3222 28.7389 24.3231 28.7247C24.3321 28.6913 24.3552 28.625 24.3726 28.5749C24.4146 28.4542 24.4654 28.3082 24.5057 28.1355C24.5136 28.1093 24.5206 28.0838 24.5278 28.0583C24.5325 28.0572 24.5382 28.0556 24.5423 28.0547C24.5975 28.0433 24.6518 28.0287 24.7052 28.0108C24.7318 28.0021 24.8125 27.9867 24.8715 27.9754C25.0917 27.9334 25.3899 27.8764 25.7149 27.7149C25.8632 27.6489 26.0366 27.5881 26.2196 27.5239C26.5827 27.3965 26.9903 27.2536 27.4064 27.0069C28.6036 26.488 29.5909 25.7215 30.6619 24.8486C30.7032 24.815 30.7425 24.779 30.7795 24.7409C30.9632 24.5519 31.1565 24.3705 31.3538 24.2017C31.364 24.193 31.374 24.1842 31.384 24.1751C31.5936 23.985 31.7509 23.7865 31.8774 23.627C31.9417 23.546 32.0024 23.4695 32.0465 23.4242C32.0525 23.4181 32.0584 23.4119 32.0641 23.4057L32.377 23.0731C32.4308 23.0159 32.4795 22.9543 32.5228 22.8887L32.7776 22.503C32.7835 22.4942 32.7892 22.4852 32.7949 22.4762C32.8369 22.4091 32.9025 22.3239 32.972 22.2336C33.0857 22.0859 33.2141 21.9189 33.3369 21.7135C33.9645 20.6971 34.4769 19.5454 34.9487 18.0903C34.9557 18.0689 34.9621 18.0474 34.968 18.0256C35.2774 16.8833 35.4356 15.6417 35.4657 14.1186C35.4662 14.0948 35.466 14.071 35.4652 14.0472C35.4213 12.6744 35.1184 11.3637 34.8281 10.2627C34.8136 10.2076 34.7957 10.1535 34.7745 10.1007C34.3595 9.06747 33.8332 7.86429 33.0753 6.7742C33.0608 6.75336 33.0457 6.73298 33.0301 6.71297C32.1551 5.59212 31.3566 4.76255 30.5171 4.10216C30.497 4.08637 30.4765 4.07114 30.4556 4.05645C29.3412 3.27617 28.3843 2.73879 27.4454 2.36609C27.245 2.28375 27.0599 2.234 26.9106 2.19379C26.8397 2.1747 26.7515 2.15101 26.7163 2.13678C26.7045 2.13201 26.6926 2.12733 26.6807 2.12292L26.3298 1.99211C26.2316 1.95548 26.1295 1.93024 26.0255 1.91675C25.9282 1.90417 25.8308 1.88847 25.7359 1.87021C25.7133 1.86589 25.6911 1.86213 25.6684 1.85891C25.6431 1.85497 25.5706 1.83468 25.5177 1.81981C25.356 1.77446 25.1346 1.71241 24.8687 1.69074C24.8509 1.68927 24.833 1.68817 24.815 1.68744C24.6271 1.67945 24.4495 1.66036 24.2719 1.62887C24.205 1.61712 24.1374 1.61014 24.0693 1.60831L23.8629 1.60252C22.946 1.57618 21.9992 1.54891 21.0332 1.78759C20.6491 1.82477 20.3267 1.93217 20.0608 2.02066C19.9508 2.05738 19.8373 2.0952 19.7621 2.11182C19.5171 2.14679 19.2782 2.22968 19.0357 2.3638C18.9724 2.39437 18.9154 2.41998 18.8624 2.44173C18.8366 2.45238 18.8112 2.46377 18.7861 2.47588C18.7634 2.48405 18.7401 2.49075 18.7172 2.49791C18.5701 2.54427 18.3554 2.61193 18.1223 2.75247C16.5832 3.55955 15.2462 4.67599 14.2535 5.98364C14.2442 5.99585 14.2352 6.00815 14.2264 6.02063C12.1198 8.99606 12.201 11.8166 12.3355 12.8988C12.4664 14.0236 12.7132 14.7824 12.8193 15.108C12.8206 15.1158 12.8226 15.1237 12.824 15.1315C12.827 15.149 12.8306 15.1662 12.8344 15.1837C12.8368 15.1948 12.8383 15.2059 12.841 15.217C12.8433 15.2267 12.8469 15.2359 12.8493 15.2455C12.8564 15.2722 12.8642 15.2989 12.8729 15.3254C12.8791 15.3441 12.8856 15.3625 12.8925 15.3808C12.8975 15.3941 12.9012 15.4077 12.9067 15.421C12.9119 15.4337 12.9184 15.4455 12.924 15.4578C12.9306 15.4726 12.9375 15.4873 12.9446 15.5018C12.9581 15.5295 12.9725 15.5566 12.9877 15.5831C12.9937 15.5936 12.9998 15.6041 13.0061 15.6144C13.014 15.6274 13.0211 15.6412 13.0294 15.6539C13.0311 15.6575 13.0327 15.6611 13.0344 15.6649C13.1862 15.9983 13.5012 16.6902 14.1178 17.5436C14.9959 18.8126 16.8008 20.3437 19.2473 20.8519C19.2621 20.855 19.2769 20.8578 19.2918 20.8604C19.754 20.9406 20.2281 20.9806 20.7063 20.9806C21.4471 20.9806 22.1978 20.8848 22.9288 20.6946C23.1912 20.6447 23.388 20.5419 23.4996 20.4808C23.5002 20.4805 23.5007 20.4804 23.5012 20.4803C23.8016 20.4227 24.0313 20.2989 24.1967 20.175C24.2131 20.1679 24.2296 20.1613 24.246 20.1544C24.3983 20.0898 24.6299 19.9915 24.8695 19.8032C25.3531 19.5347 25.7128 19.174 26.0086 18.8774C26.0914 18.7944 26.1694 18.7161 26.2407 18.6495C26.3258 18.57 26.4004 18.4801 26.4629 18.3819C26.4639 18.3803 26.4648 18.3789 26.4655 18.3778C26.4842 18.3613 26.5024 18.3443 26.5201 18.3269C26.7071 18.1428 26.8133 17.9522 26.8754 17.8308C27.0043 17.6985 27.1054 17.5415 27.1725 17.369L27.2151 17.2596C27.2698 17.1794 27.3512 17.0532 27.4199 16.8877C27.646 16.3644 27.7612 15.8567 27.8628 15.4082L27.9032 15.2313C27.9155 15.178 27.9246 15.1239 27.9305 15.0695C27.989 14.5312 27.9492 14.0471 27.9141 13.6199C27.9082 13.5476 27.9023 13.4762 27.8971 13.4058C27.8927 13.3454 27.8843 13.2855 27.8719 13.2262C27.7844 12.8059 27.6385 12.4389 27.5215 12.1439C27.4735 12.0229 27.4281 11.9086 27.3948 11.811C27.3689 11.7353 27.3366 11.6619 27.2979 11.5919C26.0996 9.41474 23.776 8.69166 22.1976 9.11668C21.4633 9.3145 21.0284 10.0701 21.2261 10.8044C21.4239 11.5387 22.1795 11.9733 22.9138 11.7759C23.3097 11.6694 24.2612 11.8766 24.8353 12.8332C24.8768 12.9461 24.9198 13.0545 24.9618 13.1603C25.0403 13.3582 25.1151 13.5464 25.1587 13.7154C25.1621 13.7584 25.1657 13.8018 25.1693 13.8455C25.1944 14.1519 25.2183 14.4428 25.1988 14.7028L25.1767 14.7998C25.0986 15.1446 25.0245 15.4714 24.9106 15.7506C24.8538 15.8333 24.7667 15.9662 24.6937 16.145C24.6934 16.1456 24.6929 16.1461 24.6925 16.1466C24.593 16.2669 24.5242 16.3834 24.4772 16.4717C24.3956 16.5568 24.319 16.6481 24.2478 16.7451C24.1824 16.8086 24.1196 16.8717 24.0581 16.9333C23.8674 17.1247 23.6511 17.3415 23.5075 17.4086C23.3954 17.461 23.2911 17.5282 23.1972 17.6083C23.1883 17.612 23.1794 17.6156 23.1705 17.6195C23.0609 17.6658 22.9108 17.7296 22.7449 17.8318C22.6945 17.8465 22.6437 17.8628 22.5921 17.881C22.4482 17.9258 22.3318 17.9825 22.25 18.026C21.4279 18.2421 20.5769 18.2854 19.785 18.1514C18.1369 17.8019 16.9198 16.7591 16.3769 15.9693C16.3705 15.9599 16.3638 15.9505 16.3572 15.9413C15.8964 15.3056 15.6649 14.7973 15.5406 14.5242C15.5193 14.4771 15.5003 14.4358 15.4817 14.3968C15.4667 14.3454 15.4516 14.2984 15.4382 14.2573C15.3443 13.9691 15.1696 13.4326 15.0704 12.5767C15.0699 12.5724 15.0694 12.5681 15.0688 12.5638C14.974 11.8083 14.9207 9.81828 16.4606 7.63131C17.2176 6.64036 18.2475 5.79013 19.4403 5.1716C19.4599 5.16141 19.4793 5.15076 19.4984 5.13966C19.5137 5.1347 19.5291 5.13011 19.5446 5.12524C19.6441 5.09394 19.7892 5.04823 19.9494 4.97286C20.0567 4.9277 20.167 4.87721 20.2853 4.81892C20.2881 4.81754 20.2911 4.81607 20.294 4.8146C20.5347 4.76613 20.7443 4.69627 20.9313 4.63404C21.0616 4.59062 21.2402 4.53113 21.3061 4.52874C21.4124 4.52489 21.5179 4.50882 21.6205 4.48073C22.239 4.31137 22.9891 4.33303 23.7835 4.35589L23.8974 4.3591C24.1426 4.39848 24.3875 4.4241 24.6416 4.43686C24.672 4.44356 24.7301 4.45981 24.7742 4.4722C24.9011 4.50782 25.0571 4.55151 25.2439 4.58061C25.3311 4.59704 25.4194 4.612 25.508 4.6255L25.7034 4.69829C25.8866 4.77081 26.0571 4.81662 26.1952 4.8538C26.2733 4.87482 26.3618 4.8986 26.3991 4.91411C26.4066 4.91723 26.4142 4.92035 26.4219 4.92338C27.1502 5.21162 27.9204 5.64628 28.8433 6.29024C29.4865 6.801 30.1208 7.46589 30.835 8.37734C31.4076 9.20949 31.839 10.1875 32.1867 11.0482C32.4394 12.0138 32.6732 13.0484 32.7113 14.1013C32.6844 15.3614 32.5592 16.3716 32.3181 17.2741C31.918 18.5022 31.4952 19.4564 30.9887 20.2749C30.9839 20.2825 30.9792 20.2902 30.9747 20.298C30.9347 20.3656 30.8639 20.4576 30.7891 20.5549C30.6912 20.6821 30.5806 20.8258 30.4719 20.9971L30.2898 21.2727L30.0654 21.5113C29.9267 21.6545 29.8165 21.7936 29.719 21.9166C29.656 21.9961 29.585 22.0856 29.5417 22.1279C29.3087 22.3283 29.0806 22.5415 28.8624 22.7627C27.9542 23.5014 27.1263 24.1406 26.2434 24.5092C26.1712 24.5393 26.1018 24.5755 26.0358 24.6174C25.8501 24.7353 25.5989 24.8235 25.3081 24.9254C25.0771 25.0063 24.8154 25.0981 24.5479 25.2203C24.5351 25.2262 24.5225 25.2321 24.5099 25.2385C24.4764 25.2474 24.407 25.2606 24.3546 25.2706C24.2293 25.2946 24.0776 25.3236 23.9082 25.3749C23.8813 25.3811 23.8557 25.3878 23.8298 25.3945C23.827 25.3915 23.8231 25.3877 23.8207 25.385C23.7831 25.3426 23.7431 25.3026 23.7006 25.2652C23.6798 25.2465 23.6261 25.1843 23.5869 25.1389C23.4402 24.969 23.2416 24.739 22.9389 24.538C22.8074 24.4425 22.668 24.3227 22.5208 24.1962C22.2292 23.9457 21.9016 23.6643 21.4804 23.4275C20.4315 22.6492 19.2742 22.1776 17.9832 21.6868C17.9332 21.6678 17.8822 21.6518 17.8303 21.6387C17.5784 21.5753 17.3244 21.4987 17.0752 21.4111C17.0636 21.407 17.0519 21.403 17.0401 21.3992C16.7703 21.3124 16.5197 21.2753 16.3182 21.2455C16.2159 21.2304 16.1194 21.216 16.0581 21.2004C16.0493 21.1982 16.0405 21.196 16.0317 21.1939L15.5875 21.0897C15.5118 21.072 15.4347 21.0607 15.3571 21.0559L14.8957 21.0276C14.8847 21.027 14.8736 21.0265 14.8625 21.026C14.7837 21.0231 14.6773 21.0089 14.5647 20.994C14.3793 20.9694 14.1698 20.9414 13.9296 20.9381C12.7344 20.9023 11.4816 21.035 9.98691 21.3538C9.96479 21.3585 9.94285 21.3637 9.92109 21.3695C8.77574 21.6733 7.62157 22.157 6.28895 22.892C6.2683 22.9033 6.24801 22.9152 6.228 22.9277C5.06309 23.6503 4.07829 24.5689 3.26854 25.3721C3.22815 25.4122 3.19015 25.4547 3.15508 25.4996C2.46752 26.3757 1.68844 27.4333 1.12389 28.6342C1.11315 28.6572 1.10305 28.6803 1.0935 28.7038C0.560709 30.0209 0.24153 31.1274 0.0890551 32.1861C0.085475 32.2113 0.0824457 32.2367 0.0802426 32.2622C-0.0383595 33.616 -0.025416 34.7131 0.121276 35.7131C0.1501 35.9293 0.199854 36.1154 0.240062 36.2657C0.25888 36.3362 0.28238 36.4241 0.287613 36.4612C0.289265 36.4732 0.291101 36.485 0.29312 36.4969L0.355084 36.8662C0.372709 36.9711 0.402359 37.0735 0.443484 37.1716C0.479193 37.2566 0.513801 37.3474 0.546205 37.4414C0.553916 37.4638 0.562086 37.4855 0.570991 37.5076C0.58017 37.5313 0.598622 37.6037 0.612208 37.6564C0.653884 37.8196 0.710981 38.0431 0.825912 38.285C0.833255 38.3005 0.840966 38.3159 0.848953 38.3311C0.935793 38.4976 1.00785 38.6607 1.06917 38.8299C1.09249 38.8942 1.12049 38.9567 1.15317 39.0169L1.25203 39.1998C1.68752 40.0065 2.13714 40.8394 2.82627 41.5559C3.05053 41.8702 3.3049 42.0958 3.51465 42.2819C3.6014 42.3588 3.69081 42.4382 3.74286 42.4951C3.8957 42.6897 4.0871 42.8551 4.32467 42.9983C4.38003 43.0358 4.43189 43.0732 4.48247 43.1119C4.50303 43.1277 4.52406 43.1429 4.54544 43.1575C4.56408 43.1732 4.58152 43.1901 4.59933 43.2064C4.71307 43.3107 4.87913 43.4629 5.11743 43.5945C6.58711 44.5244 8.22247 45.1241 9.8505 45.3295C9.86546 45.3314 9.88042 45.333 9.89548 45.3344C10.2582 45.368 10.6086 45.3836 10.9465 45.3836C13.9897 45.3836 16.0151 44.1246 16.7982 43.5328C17.7066 42.8571 18.2403 42.2639 18.4692 42.0092C18.4965 41.9872 18.5231 41.9638 18.549 41.9394C18.5542 41.9346 18.5585 41.9292 18.5635 41.9243C18.5812 41.9072 18.5979 41.8889 18.6148 41.8708C18.6328 41.8513 18.6505 41.8316 18.6671 41.8113C18.6749 41.8017 18.6838 41.7935 18.6914 41.7836C18.7005 41.772 18.708 41.7597 18.7166 41.7477C18.726 41.7349 18.7352 41.722 18.7441 41.7088C18.7621 41.6824 18.7789 41.6556 18.7949 41.6284C18.8005 41.6187 18.8061 41.6089 18.8116 41.5989C18.8197 41.5842 18.8291 41.5698 18.8366 41.5547C18.8388 41.5516 18.8411 41.5484 18.8435 41.5451C19.0565 41.2468 19.4985 40.6279 19.9294 39.6667C20.5892 38.2715 21.0125 35.943 20.2296 33.5705C20.2248 33.556 20.2198 33.5417 20.2146 33.5275C19.8025 32.4051 19.125 31.3467 18.2532 30.4618C18.0786 30.2589 17.8908 30.1396 17.7818 30.0733C17.7814 30.0731 17.781 30.0727 17.7807 30.0724C17.5807 29.8414 17.3591 29.7043 17.1692 29.6231C17.1549 29.6125 17.1409 29.6016 17.1269 29.5909C16.9946 29.4912 16.7933 29.3393 16.5096 29.2259C16.0359 28.9418 15.5443 28.8107 15.1402 28.7028C15.0268 28.6725 14.9196 28.644 14.8261 28.6154C14.7148 28.5815 14.5926 28.5613 14.4761 28.5562C14.4533 28.5486 14.4304 28.5415 14.4072 28.5352C14.1538 28.465 13.9352 28.4684 13.7992 28.4752C13.6202 28.4297 13.4338 28.4206 13.2511 28.4487L13.1341 28.4667C13.0374 28.4595 12.8875 28.452 12.7101 28.4753C12.1473 28.5407 11.6529 28.6936 11.2163 28.8288C11.1555 28.8476 11.0953 28.8662 11.0355 28.8844C10.9824 28.9005 10.9303 28.9199 10.8795 28.9423C10.3834 29.1614 9.98324 29.4386 9.63028 29.6831C9.57134 29.7239 9.51314 29.7643 9.4554 29.8036C9.40556 29.8375 9.35791 29.8747 9.31293 29.9149C8.99275 30.2009 8.74755 30.5107 8.55065 30.7596C8.46996 30.8616 8.39377 30.9579 8.32593 31.0355C8.27333 31.0957 8.22596 31.1604 8.18456 31.229C6.89839 33.3554 7.43421 35.7294 8.59141 36.8835C9.12989 37.4204 10.0016 37.4193 10.5387 36.8808C11.0757 36.3424 11.0745 35.4706 10.536 34.9335C10.2458 34.6441 9.94946 33.7165 10.4907 32.7409C10.5675 32.6488 10.6398 32.5576 10.7103 32.4685C10.8425 32.3014 10.9684 32.1423 11.0932 32.0198C11.1279 31.9959 11.163 31.9716 11.1983 31.9472C11.4514 31.7719 11.6917 31.6054 11.9271 31.4917C11.9614 31.4811 11.9958 31.4706 12.0303 31.4598C12.3654 31.3562 12.6829 31.2579 12.9791 31.2173C13.0796 31.225 13.2385 31.2341 13.4303 31.2077C13.4311 31.2078 13.4321 31.2079 13.4329 31.208C13.5859 31.2338 13.7203 31.2351 13.8195 31.2317C13.9348 31.2601 14.0529 31.2809 14.1732 31.294C14.2607 31.3188 14.3464 31.3416 14.4303 31.3639C14.6912 31.4335 14.987 31.5124 15.1173 31.6034C15.2189 31.6745 15.3296 31.7314 15.4461 31.7726C15.4536 31.7784 15.4611 31.7842 15.4688 31.7899C15.5637 31.8614 15.6939 31.9596 15.8652 32.0521C15.9027 32.0879 15.9416 32.1232 15.9826 32.1584C16.0935 32.2611 16.201 32.3338 16.2798 32.3831C16.878 32.9867 17.3412 33.7021 17.6215 34.4555C18.1429 36.0571 17.8483 37.6327 17.4359 38.4979C17.4309 38.5082 17.4262 38.5186 17.4215 38.5291C17.1013 39.2463 16.7769 39.7007 16.6025 39.9448C16.5725 39.9867 16.5463 40.0236 16.5218 40.0591C16.4847 40.098 16.4513 40.1348 16.4223 40.1671C16.2197 40.3925 15.8427 40.8121 15.1511 41.3259C15.1478 41.3284 15.1444 41.3309 15.1411 41.3335C14.5336 41.7935 12.8356 42.8349 10.1727 42.5945C8.93712 42.4349 7.68601 41.9682 6.55296 41.244C6.53432 41.2321 6.51541 41.2206 6.49632 41.2096C6.4842 41.1987 6.47236 41.1874 6.46024 41.1764C6.38322 41.1057 6.27059 41.0025 6.12491 40.9013C6.02779 40.8279 5.92589 40.7558 5.82152 40.6864C5.82014 40.6855 5.81886 40.6846 5.81748 40.6837C5.65518 40.4995 5.48985 40.3529 5.34252 40.2221C5.23961 40.1308 5.0988 40.0059 5.06373 39.9499C5.00718 39.8596 4.94036 39.776 4.86453 39.7011C4.40922 39.2508 4.05286 38.5907 3.67548 37.8918L3.62086 37.7907C3.53246 37.5583 3.43204 37.3331 3.31591 37.1063C3.30655 37.0768 3.29168 37.0187 3.28048 36.9747C3.2478 36.8468 3.20768 36.6897 3.1392 36.5132C3.10946 36.4282 3.07834 36.3442 3.04621 36.2621L3.0117 36.0562C2.98296 35.8624 2.93743 35.6923 2.90071 35.5548C2.88088 35.4806 2.85619 35.3881 2.85105 35.3487C2.84995 35.3398 2.84876 35.331 2.84738 35.3222C2.73272 34.5466 2.7241 33.6623 2.8203 32.542C2.94138 31.7283 3.19997 30.8461 3.63197 29.7729C4.0659 28.8615 4.69737 27.9989 5.26899 27.2673C5.98014 26.5645 6.76014 25.8438 7.65067 25.2863C8.75407 24.6801 9.69169 24.2832 10.5952 24.0402C11.8578 23.7728 12.8959 23.6619 13.8588 23.6913C13.8684 23.6916 13.878 23.6918 13.8876 23.6919C13.9654 23.6926 14.0802 23.7078 14.2018 23.724C14.3605 23.7451 14.5399 23.7689 14.7422 23.7774L15.0725 23.7976L15.3915 23.8724C15.5845 23.9207 15.7598 23.9467 15.9148 23.9697C16.0156 23.9846 16.129 24.0014 16.1867 24.0178C16.4801 24.1202 16.779 24.2112 17.0769 24.2886C18.17 24.7052 19.1368 25.1022 19.898 25.6833C19.9602 25.7308 20.0263 25.7729 20.0957 25.8092C20.2908 25.9111 20.4926 26.0845 20.7263 26.2852C20.9119 26.4447 21.1223 26.6254 21.362 26.7961C21.3733 26.8042 21.3849 26.8122 21.3965 26.8199C21.421 26.8444 21.4673 26.8982 21.5022 26.9386C21.5854 27.0349 21.6861 27.1515 21.8148 27.2722C21.8338 27.2926 21.8525 27.3116 21.8713 27.3309C21.8702 27.3348 21.8688 27.3401 21.8677 27.3436C21.8495 27.3979 21.8349 27.4531 21.8236 27.5094C21.8178 27.5367 21.7909 27.6141 21.7713 27.6706C21.6977 27.8821 21.598 28.1687 21.5755 28.5307C21.5585 28.6923 21.5244 28.8729 21.4886 29.0635C21.4173 29.4413 21.3374 29.8656 21.3429 30.3488C21.1934 31.6459 21.3638 32.8843 21.5845 34.2481C21.5929 34.3003 21.6044 34.352 21.6188 34.403C21.6904 34.656 21.751 34.9147 21.7991 35.1717C21.8014 35.1841 21.8039 35.1964 21.8065 35.2087C21.8662 35.4856 21.9594 35.7211 22.0342 35.9102C22.0721 36.0061 22.108 36.0967 22.1248 36.157C22.1275 36.1664 22.1301 36.1757 22.1329 36.1848L22.265 36.622C22.2875 36.6963 22.3162 36.7686 22.3508 36.8381L22.5572 37.2519C22.5621 37.2618 22.5672 37.2717 22.5724 37.2815C22.6091 37.3509 22.6501 37.45 22.6933 37.5549C22.7645 37.7277 22.8451 37.923 22.9624 38.1327C23.5297 39.1855 24.2709 40.2049 25.294 41.3394C25.309 41.356 25.3244 41.3723 25.3402 41.3882C26.1751 42.2278 27.171 42.9855 28.4745 43.773C28.4948 43.7852 28.5154 43.7969 28.5363 43.8081C29.7447 44.4555 31.0324 44.849 32.1329 45.1487C32.1879 45.1636 32.2436 45.1752 32.3 45.1832C33.1317 45.3019 34.0788 45.414 35.0622 45.414C35.3821 45.414 35.7058 45.4022 36.0306 45.3748C36.056 45.3727 36.0813 45.3699 36.1065 45.3663C37.5143 45.1687 38.6319 44.8919 39.6233 44.4954C39.647 44.486 39.6705 44.4758 39.6936 44.465C40.9262 43.8907 41.8702 43.3306 42.6636 42.7032C42.8351 42.5707 42.9707 42.4352 43.08 42.326C43.1319 42.2742 43.1964 42.2097 43.226 42.1864C43.2361 42.1786 43.2461 42.1707 43.2559 42.1625L43.5446 41.9238C43.6257 41.8568 43.6989 41.7807 43.7627 41.6969C43.8212 41.6202 43.8829 41.5443 43.9459 41.4717C43.9613 41.454 43.9759 41.4363 43.9904 41.4178C44.0064 41.3979 44.0602 41.3453 44.0994 41.3069C44.2198 41.1893 44.3846 41.0281 44.5364 40.8084C44.5465 40.7938 44.5563 40.779 44.5657 40.764C44.666 40.6062 44.7714 40.462 44.8879 40.3233C44.9316 40.2714 44.9713 40.2162 45.0068 40.1584L45.1144 39.9837C45.5961 39.2025 46.0932 38.396 46.3695 37.4398C46.5296 37.0885 46.5977 36.7554 46.6539 36.4809C46.6773 36.3674 46.7011 36.2505 46.7243 36.1772C46.8166 35.9474 46.8643 35.6987 46.8694 35.421C46.8743 35.353 46.8807 35.2904 46.8887 35.2304C46.8923 35.2039 46.895 35.1773 46.8969 35.1506C46.9012 35.1264 46.9071 35.1028 46.9124 35.0791C46.9458 34.9287 46.9946 34.7088 46.9896 34.4368C47.0605 32.7 46.7622 30.9839 46.1263 29.4703Z" fill="white"/>
</svg>
