<svg width="40" height="40" viewBox="0 0 40 40" fill="none" xmlns="http://www.w3.org/2000/svg">
<g clip-path="url(#clip0)">
<path d="M4.85504 4.9109H5.48523V5.54109C5.48523 5.86763 5.74982 6.13221 6.07636 6.13221C6.4029 6.13221 6.66749 5.86763 6.66749 5.54109V4.9109H7.29768C7.62422 4.9109 7.88881 4.64631 7.88881 4.31977C7.88881 3.99323 7.62422 3.72864 7.29768 3.72864H6.66749V3.09845C6.66749 2.77191 6.4029 2.50732 6.07636 2.50732C5.74982 2.50732 5.48523 2.77191 5.48523 3.09845V3.72864H4.85504C4.52881 3.72864 4.26392 3.99323 4.26392 4.31977C4.26392 4.64631 4.52881 4.9109 4.85504 4.9109Z" fill="#F6DE52"/>
<path d="M37.4671 30.9261H36.8369V30.2959C36.8369 29.9697 36.5723 29.7051 36.2458 29.7051C35.9192 29.7051 35.6547 29.9697 35.6547 30.2959V30.9261H35.0245C34.6979 30.9261 34.4333 31.191 34.4333 31.5172C34.4333 31.8438 34.6979 32.1084 35.0245 32.1084H35.6547V32.7385C35.6547 33.0651 35.9192 33.3297 36.2458 33.3297C36.5723 33.3297 36.8369 33.0651 36.8369 32.7385V32.1084H37.4671C37.7936 32.1084 38.0582 31.8438 38.0582 31.5172C38.0582 31.191 37.7936 30.9261 37.4671 30.9261Z" fill="#F6DE52"/>
<path d="M29.5076 35.426H29.0721V34.9905C29.0721 34.664 28.8075 34.3994 28.4813 34.3994C28.1547 34.3994 27.8901 34.664 27.8901 34.9905V35.426H27.4547C27.1281 35.426 26.8635 35.6906 26.8635 36.0172C26.8635 36.3434 27.1281 36.6083 27.4547 36.6083H27.8901V37.0438C27.8901 37.37 28.1547 37.6346 28.4813 37.6346C28.8075 37.6346 29.0721 37.37 29.0721 37.0438V36.6083H29.5076C29.8341 36.6083 30.0987 36.3434 30.0987 36.0172C30.0987 35.6906 29.8341 35.426 29.5076 35.426Z" fill="#F6DE52"/>
<path d="M39.0321 25.5931L33.9131 1.40665C33.8154 0.944304 33.5426 0.547574 33.1446 0.288479C32.7467 0.0296893 32.2737 -0.0591171 31.811 0.0388446L23.9131 1.7103C23.5935 1.77805 23.3894 2.09177 23.4571 2.41098C23.5249 2.7305 23.8386 2.93467 24.1578 2.86692L32.0561 1.19546C32.209 1.16312 32.3668 1.19302 32.4998 1.27939C32.6332 1.36606 32.7241 1.4982 32.7568 1.6514L37.8755 25.8379C37.9078 25.9911 37.8779 26.1485 37.7913 26.2819C37.7049 26.415 37.5728 26.5062 37.4196 26.5386L20.9397 30.0264C20.7862 30.0588 20.6287 30.0289 20.4957 29.9422C20.3623 29.8558 20.2714 29.7237 20.2387 29.5705L15.12 5.38401C15.0876 5.23082 15.1176 5.07304 15.2039 4.93998C15.2906 4.80693 15.4227 4.71568 15.5717 4.68424L21.7027 3.4321C22.0225 3.3668 22.2288 3.0546 22.1635 2.73478C22.0982 2.41495 21.7863 2.20835 21.4661 2.27365L15.3312 3.52671C14.8691 3.62467 14.4721 3.8975 14.213 4.29514C13.9542 4.69309 13.8657 5.16673 13.9634 5.62877L14.8499 9.81732L9.31462 8.42846C8.85655 8.31371 8.37986 8.38451 7.97276 8.62835C7.56565 8.87218 7.27787 9.25884 7.16313 9.71691L2.75363 27.2936C2.67398 27.61 2.86624 27.9314 3.18301 28.0107C3.23123 28.0229 3.27975 28.0284 3.32736 28.0284C3.59195 28.0284 3.83273 27.8496 3.90018 27.581L8.30998 10.0047C8.34782 9.85272 8.44395 9.72424 8.58037 9.64245C8.71647 9.56097 8.87547 9.53716 9.02714 9.57501L15.1224 11.1042L16.9846 19.9037C16.3132 19.8762 15.6501 20.0206 15.0376 20.3319L14.9476 20.3777L14.798 20.193C14.1315 19.3709 13.1843 18.8573 12.1317 18.7474C11.0785 18.6372 10.0461 18.9439 9.22368 19.6104C7.52629 20.9868 7.26505 23.4874 8.6414 25.1848L12.5257 29.9758C12.641 30.118 12.8113 30.1946 12.985 30.1946C13.0759 30.1946 13.1675 30.1738 13.2526 30.1305L18.5764 27.4245L19.0824 29.8152C19.1804 30.2773 19.4532 30.6743 19.8512 30.9334C20.1432 31.1235 20.4765 31.2218 20.8158 31.2218C20.9385 31.2218 21.0618 31.209 21.1845 31.183L21.605 31.0939L19.7794 38.3706C19.7413 38.5225 19.6452 38.651 19.5091 38.7325C19.3726 38.8143 19.2139 38.8381 19.0623 38.7999L2.72341 34.7008C2.57174 34.663 2.44296 34.5668 2.36148 34.4304C2.27999 34.2943 2.25588 34.1356 2.29403 33.9837L3.26938 30.0963C3.34872 29.7795 3.15646 29.4585 2.83999 29.3791C2.52352 29.2995 2.20217 29.4918 2.12283 29.8085L1.14748 33.6959C1.03243 34.1542 1.10354 34.6306 1.34737 35.0377C1.59121 35.4451 1.97787 35.7326 2.43594 35.8474L18.7745 39.9465C18.9188 39.9828 19.0635 40.0002 19.206 40.0002C19.9998 40.0002 20.7243 39.4622 20.926 38.658L22.8922 30.8214L37.6646 27.6952C38.1267 27.5972 38.5237 27.3244 38.7825 26.9264C39.0413 26.5288 39.1298 26.0552 39.0321 25.5931ZM18.093 26.3439L13.1428 28.86L9.55937 24.4405C8.59379 23.2494 8.7772 21.4946 9.96831 20.529C10.5451 20.0612 11.2699 19.846 12.0087 19.9232C12.7472 20.0005 13.4119 20.3606 13.8798 20.9377L14.3302 21.4934C14.506 21.7101 14.809 21.7744 15.0571 21.6481L15.5732 21.386C16.0944 21.1208 16.6682 21.028 17.2407 21.114L18.3201 26.2135C18.2465 26.2599 18.1712 26.3042 18.093 26.3439Z" fill="#F6DE52"/>
<path d="M19.8713 11.2993C18.7195 13.0694 18.3262 15.1821 18.7632 17.2481C19.5496 20.9634 22.841 23.5177 26.4958 23.5177C27.0362 23.5177 27.5852 23.4619 28.1346 23.3456C32.3994 22.4429 35.1347 18.2391 34.2323 13.9742C33.795 11.9082 32.5795 10.1363 30.8094 8.98456C29.0394 7.83282 26.9267 7.43945 24.8609 7.87646C22.7949 8.31378 21.0227 9.5293 19.8713 11.2993ZM25.1057 9.03309C25.5735 8.93421 26.0441 8.88507 26.5113 8.88507C27.7989 8.88507 29.0602 9.25678 30.1646 9.97517C31.67 10.9548 32.7037 12.4617 33.0757 14.219C33.8432 17.846 31.5168 21.4211 27.8898 22.189C24.2628 22.9565 20.6873 20.6301 19.9198 17.0031C19.5481 15.2462 19.8826 13.4493 20.8619 11.9442C21.8415 10.4387 23.3485 9.4051 25.1057 9.03309Z" fill="#F6DE52"/>
<path d="M23.039 16.7212L23.9619 17.2809C24.0083 17.3089 24.0367 17.3581 24.0376 17.4118L24.0589 18.4912C24.0693 19.0155 24.373 19.4739 24.8521 19.6878C25.0297 19.7671 25.2165 19.8059 25.4014 19.8059C25.7148 19.8059 26.0227 19.6945 26.2724 19.4791L27.09 18.7741C27.1308 18.7387 27.1864 18.7271 27.238 18.743L28.271 19.0561C28.773 19.2084 29.3028 19.061 29.6541 18.6716C30.0053 18.2821 30.0978 17.7399 29.8945 17.2561L29.477 16.261C29.456 16.2109 29.4618 16.1548 29.4929 16.1102L30.11 15.2246C30.4097 14.7946 30.4332 14.245 30.1716 13.7903C29.9098 13.3362 29.423 13.0807 28.8997 13.1244L27.8239 13.2141C27.7696 13.2187 27.7183 13.1955 27.6857 13.1524L27.0341 12.2918C26.7176 11.8737 26.2028 11.6815 25.6892 11.7901C25.1759 11.8988 24.7828 12.2833 24.6629 12.7939L24.4157 13.8446C24.4035 13.8974 24.3653 13.9392 24.3144 13.9569L23.2945 14.3106C22.7992 14.4827 22.4568 14.9133 22.4015 15.4349C22.3463 15.9564 22.5904 16.4493 23.039 16.7212ZM23.5771 15.5594C23.5819 15.5142 23.6039 15.4544 23.6817 15.4275L24.7016 15.0738C25.1374 14.9228 25.4609 14.5642 25.5665 14.115L25.8134 13.0642C25.8323 12.984 25.8894 12.9559 25.9339 12.9464C25.9452 12.944 25.9577 12.9425 25.9712 12.9425C26.0099 12.9425 26.0545 12.9562 26.0917 13.0053L26.7433 13.8659C27.0219 14.234 27.462 14.4305 27.9225 14.3921L28.9979 14.3023C29.0797 14.2956 29.1246 14.3411 29.1472 14.3805C29.17 14.4198 29.1871 14.4812 29.1401 14.5489L28.5228 15.4345C28.2591 15.813 28.2081 16.293 28.3867 16.7184L28.8044 17.7136C28.8365 17.7896 28.8069 17.8461 28.7764 17.8796C28.7458 17.9135 28.6927 17.9486 28.614 17.9248L27.5813 17.6114C27.1397 17.4777 26.6673 17.5775 26.3179 17.879L25.5006 18.5837C25.438 18.6377 25.3752 18.6267 25.334 18.6081C25.2925 18.5898 25.2424 18.5504 25.2409 18.468L25.2195 17.3886C25.2104 16.9275 24.9696 16.5091 24.575 16.2698L23.6518 15.7104C23.5813 15.6674 23.5722 15.6045 23.5771 15.5594Z" fill="#F6DE52"/>
</g>
<defs>
<clipPath id="clip0">
<rect width="40" height="40" fill="white"/>
</clipPath>
</defs>
</svg>
