<svg width="138" height="138" viewBox="0 0 138 138" fill="none" xmlns="http://www.w3.org/2000/svg">
<g filter="url(#filter0_d)">
<g clip-path="url(#clip0)">
<path d="M97.7266 68.3385L93.1428 63.7548C91.9873 62.6027 90.6393 61.6615 89.1596 60.9736C90.0523 59.0268 90.5154 56.9105 90.517 54.7687V48.4198C90.517 47.9032 90.0981 47.4843 89.5815 47.4843H83.2326C81.0906 47.4856 78.9739 47.9482 77.0267 48.8407C76.3388 47.3611 75.3976 46.0131 74.2456 44.8575L69.6619 40.2738C69.2966 39.9086 68.7044 39.9086 68.3391 40.2738L63.7554 44.8575C62.6034 46.0131 61.6622 47.3611 60.9743 48.8407C59.0276 47.9485 56.9117 47.4858 54.7703 47.4843H48.4213C47.9047 47.4843 47.4859 47.9032 47.4859 48.4198V54.7687C47.4872 56.9107 47.9497 59.0273 48.8423 60.9746C47.3626 61.6625 46.0146 62.6037 44.8591 63.7557L40.2753 68.3394C39.9102 68.7047 39.9102 69.2969 40.2753 69.6622L44.8591 74.2459C46.0146 75.3979 47.3626 76.3391 48.8423 77.027C47.9501 78.9737 47.4874 81.0896 47.4859 83.231V89.58C47.4859 90.0966 47.9047 90.5154 48.4213 90.5154H54.7703C56.9123 90.5142 59.029 90.0516 60.9761 89.159C61.664 90.6387 62.6052 91.9867 63.7572 93.1422L68.341 97.726C68.7063 98.0911 69.2984 98.0911 69.6637 97.726L74.2475 93.1422C75.3995 91.9867 76.3407 90.6387 77.0286 89.159C78.9753 90.0513 81.0912 90.5139 83.2326 90.5154H89.5815C90.0981 90.5154 90.517 90.0966 90.517 89.58V83.231C90.5157 81.089 90.0531 78.9725 89.1606 77.0252C90.6402 76.3373 91.9882 75.3961 93.1438 74.2441L97.7275 69.6603C98.0919 69.2949 98.0914 68.7034 97.7266 68.3385ZM77.7152 50.5844C79.4423 49.7762 81.3258 49.3566 83.2326 49.3552H88.6461V54.7687C88.6453 56.6761 88.2259 58.5601 87.4178 60.2879C86.0593 59.8623 84.6441 59.6456 83.2204 59.6453H82.8462C80.8798 59.6447 78.9353 60.0591 77.1399 60.8614C77.9422 59.066 78.3566 57.1215 78.356 55.1551V54.7809C78.3563 53.3577 78.1402 51.9427 77.7152 50.5844ZM82.8462 61.5162H83.2204C84.3254 61.5184 85.4249 61.6708 86.4889 61.969C85.9984 62.7098 85.4342 63.3994 84.8051 64.027L84.6068 64.2253C82.1556 66.6889 78.8209 68.0699 75.3457 68.0607L71.2596 68.0644L74.2456 65.0784C76.5217 62.7899 79.6187 61.5072 82.8462 61.5162ZM76.4851 54.7809V55.1551C76.4939 58.3823 75.2111 61.479 72.9229 63.7548L69.9369 66.7417V62.6509C69.9277 59.1757 71.3086 55.841 73.7723 53.3899L73.9706 53.1915C74.5982 52.5624 75.2877 51.9984 76.0286 51.5077C76.3285 52.5731 76.4821 53.6742 76.4851 54.7809ZM65.08 46.1803L69.0014 42.2588L72.9229 46.1803C73.9463 47.2072 74.7773 48.4092 75.3766 49.7294C74.3882 50.335 73.4732 51.0529 72.6497 51.8688L72.4514 52.0671C70.9232 53.5964 69.7461 55.4398 69.0014 57.4694C68.2569 55.4402 67.0801 53.5972 65.5524 52.0681L65.3541 51.8697C64.5304 51.0534 63.6151 50.3352 62.6263 49.7294C63.2256 48.4094 64.0566 47.2073 65.08 46.1803ZM61.5178 54.7809C61.52 53.6759 61.6723 52.5764 61.9705 51.5124C62.7114 52.0029 63.401 52.5671 64.0285 53.1962L64.2268 53.3945C66.6905 55.8457 68.0715 59.1804 68.0622 62.6556V66.7463L65.0762 63.7604C62.788 61.4826 61.5065 58.3837 61.5178 55.1551V54.7809ZM63.7563 65.0784L66.7432 68.0644H62.6525C59.1772 68.0736 55.8426 66.6927 53.3914 64.229L53.1931 64.0307C52.564 63.4031 51.9999 62.7136 51.5093 61.9727C52.5747 61.6729 53.6758 61.5194 54.7825 61.5162H55.1566C58.384 61.5074 61.4806 62.7902 63.7563 65.0784ZM49.3568 49.3552H54.7703C56.6777 49.356 58.5617 49.7754 60.2895 50.5835C59.8639 51.942 59.6472 53.3572 59.6468 54.7809V55.1551C59.6463 57.1215 60.0607 59.066 60.8629 60.8614C59.0676 60.0591 57.1231 59.6447 55.1566 59.6453H54.7825C53.3593 59.6452 51.9443 59.8611 50.586 60.2861C49.7777 58.559 49.3582 56.6755 49.3568 54.7687V49.3552ZM46.1818 72.9213L42.2604 68.9999L46.1818 65.0784C47.2087 64.055 48.4108 63.224 49.731 62.6247C50.3366 63.6131 51.0544 64.5281 51.8704 65.3516L52.0687 65.5499C53.5979 67.0781 55.4414 68.2552 57.471 68.9999C55.4417 69.7444 53.5987 70.9212 52.0696 72.4489L51.8713 72.6472C51.055 73.4709 50.3368 74.3862 49.731 75.375C48.4109 74.7757 47.2089 73.9447 46.1818 72.9213ZM60.2876 87.4153C58.5605 88.2236 56.6771 88.6431 54.7703 88.6445H49.3568V83.231C49.3576 81.3236 49.7769 79.4396 50.585 77.7118C51.9436 78.1374 53.3588 78.3541 54.7825 78.3545H55.1566C57.1231 78.3551 59.0676 77.9406 60.8629 77.1384C60.0607 78.9337 59.6463 80.8782 59.6468 82.8447V83.2189C59.6467 84.642 59.8628 86.057 60.2876 87.4153ZM55.1566 76.4835H54.7825C53.6774 76.4812 52.5779 76.329 51.514 76.0308C52.0045 75.2899 52.5687 74.6003 53.1978 73.9728L53.3961 73.7745C55.8472 71.3108 59.1819 69.9298 62.6571 69.9391L66.7432 69.9353L63.7572 72.9213C61.4813 75.2098 58.3842 76.4926 55.1566 76.4835ZM61.5178 83.2189V82.8447C61.509 79.6175 62.7917 76.5207 65.08 74.245L68.066 71.2581V75.3488C68.0752 78.8241 66.6942 82.1587 64.2306 84.6099L64.0323 84.8082C63.4047 85.4373 62.7151 86.0015 61.9743 86.492C61.6744 85.4268 61.5209 84.3256 61.5178 83.2189ZM72.9229 91.8195L69.0014 95.7409L65.08 91.8195C64.0571 90.7939 63.226 89.5935 62.6263 88.275C63.6149 87.668 64.5299 86.9485 65.3531 86.1309L65.5515 85.9326C67.0795 84.4034 68.2568 82.5599 69.0014 80.5303C69.7459 82.5596 70.9228 84.4026 72.4505 85.9317L72.6488 86.13C73.4722 86.9476 74.3876 87.6671 75.3766 88.2741C74.777 89.593 73.9459 90.7936 72.9229 91.8195ZM76.4851 83.2189C76.4828 84.3239 76.3305 85.4234 76.0323 86.4873C75.2915 85.9968 74.6019 85.4326 73.9743 84.8035L73.776 84.6052C71.3124 82.1541 69.9314 78.8194 69.9406 75.3442V71.2581L72.9266 74.2441C75.2137 76.5206 76.4952 79.6176 76.4851 82.8447V83.2189ZM74.2466 72.9213L71.2596 69.9353H75.3504C78.8256 69.9261 82.1603 71.3071 84.6114 73.7707L84.8098 73.969C85.4389 74.5966 86.0029 75.2862 86.4936 76.027C85.4282 76.3269 84.3272 76.4805 83.2204 76.4835H82.8462C79.619 76.4923 76.5224 75.2096 74.2466 72.9213ZM88.6461 88.6445H83.2326C81.3252 88.6437 79.4412 88.2244 77.7134 87.4163C78.139 86.0577 78.3557 84.6425 78.356 83.2189V82.8447C78.3566 80.8782 77.9422 78.9337 77.1399 77.1384C78.9353 77.9406 80.8798 78.3551 82.8462 78.3545H83.2204C84.6436 78.3546 86.0586 78.1386 87.4169 77.7137C88.2251 79.4408 88.6447 81.3242 88.6461 83.231V88.6445ZM91.821 72.9213C90.7954 73.9442 89.5951 74.7753 88.2766 75.375C87.6696 74.3864 86.9501 73.4713 86.1325 72.6482L85.9342 72.4498C84.4049 70.9218 82.5615 69.7445 80.5319 68.9999C82.5612 68.2554 84.4041 67.0786 85.9332 65.5508L86.1316 65.3525C86.9492 64.5291 87.6686 63.6137 88.2756 62.6247C89.5942 63.2245 90.7946 64.0555 91.8201 65.0784L95.7425 68.9999L91.821 72.9213Z" fill="white"/>
</g>
</g>
<defs>
<filter id="filter0_d" x="0" y="0" width="138" height="138" filterUnits="userSpaceOnUse" color-interpolation-filters="sRGB">
<feFlood flood-opacity="0" result="BackgroundImageFix"/>
<feColorMatrix in="SourceAlpha" type="matrix" values="0 0 0 0 0 0 0 0 0 0 0 0 0 0 0 0 0 0 127 0"/>
<feOffset/>
<feGaussianBlur stdDeviation="20"/>
<feColorMatrix type="matrix" values="0 0 0 0 0 0 0 0 0 0 0 0 0 0 0 0 0 0 1 0"/>
<feBlend mode="normal" in2="BackgroundImageFix" result="effect1_dropShadow"/>
<feBlend mode="normal" in="SourceGraphic" in2="effect1_dropShadow" result="shape"/>
</filter>
<clipPath id="clip0">
<rect x="40" y="40" width="58" height="58" fill="white"/>
</clipPath>
</defs>
</svg>
