<svg width="40" height="40" viewBox="0 0 40 40" fill="none" xmlns="http://www.w3.org/2000/svg">
<g clip-path="url(#clip0)">
<path d="M26.773 8.96026C26.4965 8.79221 26.136 8.88026 25.968 9.1569C25.8 9.43355 25.8881 9.79395 26.1647 9.96192C29.3654 11.9059 31.2763 15.2993 31.2763 19.0393C31.2763 19.3629 31.5386 19.6252 31.8623 19.6252C32.186 19.6252 32.4482 19.3629 32.4482 19.0393C32.4481 14.8096 30.2083 11.0467 26.773 8.96026Z" fill="#F6DE52"/>
<path d="M28.3481 3.96611C28.6857 4.62339 29.6451 4.62441 29.9832 3.96596C30.1835 3.57548 30.5092 3.25063 30.9002 3.05125C31.5588 2.71531 31.5632 1.76052 30.8975 1.41989C30.5049 1.21911 30.1788 0.892225 29.9789 0.499404C29.6404 -0.166312 28.691 -0.166624 28.3523 0.499404C28.1525 0.892146 27.8263 1.21903 27.4335 1.41997C26.7674 1.76091 26.7732 2.71578 27.431 3.05125C27.822 3.25063 28.1477 3.57556 28.3481 3.96611ZM29.1656 1.41598C29.3882 1.73466 29.6675 2.01381 29.9864 2.23631C29.6675 2.4589 29.3881 2.73828 29.1656 3.05719C28.943 2.73828 28.6637 2.4589 28.3447 2.23631C28.6637 2.01381 28.943 1.73466 29.1656 1.41598Z" fill="#F6DE52"/>
<path d="M4.63347 28.4663C4.43378 28.8589 4.10761 29.1858 3.71502 29.3867C3.04852 29.7276 3.05446 30.6827 3.71236 31.018C4.10331 31.2174 4.42902 31.5423 4.62941 31.9329C4.967 32.5903 5.92678 32.5913 6.26444 31.9328C6.46476 31.5423 6.79047 31.2175 7.18149 31.0181C7.84002 30.6822 7.84455 29.7272 7.17876 29.3867H7.17883C6.78617 29.1859 6.45999 28.859 6.26022 28.4663C5.9217 27.8005 4.97231 27.8002 4.63347 28.4663ZM6.26772 30.2031C5.94881 30.4257 5.66951 30.705 5.44693 31.024C5.22435 30.7051 4.94504 30.4257 4.62613 30.2031C4.94504 29.9806 5.22435 29.7014 5.44693 29.3828C5.66951 29.7015 5.94873 29.9807 6.26772 30.2031Z" fill="#F6DE52"/>
<path d="M34.6596 9.45028C35.0336 10.1785 36.0997 10.1794 36.4742 9.45013C36.7522 8.90847 37.2039 8.45784 37.7462 8.1812C38.4757 7.80923 38.4808 6.74929 37.7427 6.37178C37.198 6.09311 36.7455 5.63966 36.4684 5.09473C36.0927 4.35659 35.0412 4.35628 34.6652 5.09481C34.3882 5.63966 33.9357 6.09311 33.391 6.37171C32.6531 6.74921 32.6578 7.80908 33.3875 8.1812C33.9298 8.45776 34.3815 8.9084 34.6596 9.45028ZM35.5669 5.88326C35.9103 6.45116 36.3934 6.93406 36.9618 7.27735C36.3934 7.62087 35.9101 8.10424 35.5668 8.67253C35.2234 8.10416 34.7401 7.62079 34.1719 7.27735C34.7402 6.93406 35.2234 6.45116 35.5669 5.88326Z" fill="#F6DE52"/>
<path d="M3.19868 22.7598C2.87501 22.7598 2.61274 23.0221 2.61274 23.3457V23.6673H2.29126C1.96759 23.6673 1.70532 23.9296 1.70532 24.2532C1.70532 24.5768 1.96759 24.8391 2.29126 24.8391H2.61274V25.1607C2.61274 25.4843 2.87501 25.7466 3.19868 25.7466C3.52235 25.7466 3.78462 25.4843 3.78462 25.1607V24.8391H4.10618C4.42985 24.8391 4.69212 24.5768 4.69212 24.2532C4.69212 23.9296 4.42985 23.6673 4.10618 23.6673H3.78462V23.3457C3.78462 23.0221 3.52228 22.7598 3.19868 22.7598Z" fill="#F6DE52"/>
<path d="M6.11475 19.0897C6.11475 23.3817 8.01689 27.4394 11.2617 30.1912C10.9027 30.4367 10.6663 30.8492 10.6663 31.3161V32.2297C10.0026 32.353 9.49809 32.9355 9.49809 33.6345V36.5836C8.80113 36.6425 8.25166 37.2277 8.25166 37.9397V38.6381C8.25166 39.3891 8.86261 40.0001 9.61364 40.0001H19.2966C19.6202 40.0001 19.8825 39.7377 19.8825 39.4141C19.8825 39.0905 19.6202 38.8282 19.2966 38.8282H9.61357C9.50872 38.8282 9.42348 38.7429 9.42348 38.6381V37.9397C9.42348 37.835 9.50872 37.7496 9.61357 37.7496H31.714C31.8188 37.7496 31.9041 37.8349 31.9041 37.9397V38.6381C31.9041 38.7429 31.8188 38.8282 31.714 38.8282H22.031C21.7073 38.8282 21.445 39.0905 21.445 39.4141C21.445 39.7377 21.7073 40.0001 22.031 40.0001H31.714C32.465 40.0001 33.076 39.3891 33.076 38.6381V37.9397C33.076 37.2278 32.5265 36.6426 31.8295 36.5836V33.6345C31.8295 32.9355 31.3251 32.3531 30.6613 32.2297V31.3161C30.6613 30.8491 30.4249 30.4365 30.0657 30.191C32.9613 27.7398 34.7934 24.2622 35.149 20.4611C35.1791 20.1389 34.9423 19.8533 34.6201 19.8231C34.2997 19.7931 34.0123 20.0297 33.9821 20.3519C33.6221 24.2005 31.6159 27.6897 28.4686 29.9541H12.8589C9.36637 27.4403 7.28664 23.3928 7.28664 19.0896C7.28664 11.7134 13.2876 5.71243 20.6638 5.71243C27.5602 5.71243 33.2818 10.8792 33.9728 17.7308C34.0052 18.0528 34.2912 18.2871 34.6146 18.255C34.9366 18.2225 35.1713 17.9352 35.1388 17.6132C34.3956 10.2431 28.1726 4.54053 20.6639 4.54053C12.6414 4.54061 6.11475 11.0673 6.11475 19.0897ZM10.6699 36.5777V33.6345C10.6699 33.4946 10.788 33.3765 10.9279 33.3765H30.3996C30.5394 33.3765 30.6576 33.4946 30.6576 33.6345V36.5777H10.6699ZM29.2993 31.126C29.4042 31.126 29.4894 31.2112 29.4894 31.3161V32.2046H11.8381V31.3161C11.8381 31.2113 11.9234 31.126 12.0282 31.126H29.2993Z" fill="#F6DE52"/>
</g>
<defs>
<clipPath id="clip0">
<rect width="40" height="40" fill="white"/>
</clipPath>
</defs>
</svg>
