<svg width="40" height="40" viewBox="0 0 40 40" fill="none" xmlns="http://www.w3.org/2000/svg">
<g clip-path="url(#clip0)">
<path d="M3.90625 22.4294C3.47504 22.4294 3.125 22.7795 3.125 23.2107C3.125 23.6419 3.47504 23.992 3.90625 23.992C4.33746 23.992 4.6875 23.6419 4.6875 23.2107C4.6875 22.7795 4.33746 22.4294 3.90625 22.4294Z" fill="#F6DE52"/>
<path d="M35.9077 25.1385L28.5425 27.6705C28.5752 27.4893 28.5935 27.3043 28.5935 27.1167C28.5935 25.3936 27.1918 23.9916 25.4685 23.9916H20.4093C20.275 23.9916 20.1426 23.9572 20.0257 23.8912L15.8982 21.5698C15.0821 21.1099 14.1547 20.8666 13.2163 20.8666H7.67793C7.35567 19.9575 6.48713 19.3044 5.46876 19.3044H0.781251C0.349732 19.3044 0 19.6542 0 20.0857V34.1479C0 34.5794 0.349732 34.9292 0.781251 34.9292H5.46876C6.46394 34.9292 7.31721 34.3039 7.65596 33.4256C8.54036 33.5354 9.56362 33.797 10.2066 34.1827L14.2923 36.6342C15.8402 37.5631 17.6123 38.0542 19.4178 38.0542C20.8484 38.0542 22.2345 37.7539 23.5379 37.1618L38.1196 30.7412C39.7346 30.086 40.532 28.1485 39.6088 26.4407C38.9298 25.184 37.3396 24.6249 35.9077 25.1385ZM6.25001 32.5891C6.24818 33.0182 5.89814 33.3667 5.46876 33.3667H1.5625V20.8669H5.46876C5.89936 20.8669 6.25001 21.2173 6.25001 21.6482V32.5891ZM37.526 29.2962C37.5178 29.2993 37.5095 29.3029 37.5013 29.3063C37.5013 29.3063 22.898 35.7364 22.8952 35.7376C21.7951 36.2381 20.625 36.4917 19.4178 36.4917C17.8955 36.4917 16.4014 36.0779 15.0965 35.2945L11.0105 32.843C10.1358 32.3184 8.88338 31.9986 7.81251 31.8704V22.4294H13.2163C13.8864 22.4294 14.5487 22.6028 15.1319 22.9315L19.2594 25.2529C19.6091 25.4501 20.0071 25.5545 20.4093 25.5545H25.4685C26.33 25.5545 27.031 26.2551 27.031 27.117C27.031 27.9754 26.3297 28.6795 25.4685 28.6795H17.5266C17.0951 28.6795 16.7453 29.0292 16.7453 29.4607C16.7453 29.8919 17.0951 30.2417 17.5266 30.2417H25.4685C25.9809 30.2417 26.4853 30.1144 26.933 29.8758C26.933 29.8758 36.4286 26.6116 36.4323 26.6104C37.1323 26.3577 37.924 26.6091 38.2343 27.1835C38.6997 28.0444 38.3149 28.9804 37.526 29.2962Z" fill="#F6DE52"/>
<path d="M22.7537 20.9027C22.9008 21.03 23.083 21.0935 23.2655 21.0935C23.448 21.0935 23.6305 21.03 23.7773 20.9027C30.1515 15.3784 34.0944 12.5827 34.0944 8.23823C34.0944 4.80134 31.6612 1.95312 28.2429 1.95312C25.998 1.95312 24.279 3.24707 23.1718 5.18891C22.0671 3.25135 20.3498 1.95312 18.1016 1.95312C15.4847 1.95312 13.2969 3.64899 12.5279 6.2732C12.4064 6.68733 12.6438 7.12129 13.058 7.24275C13.4721 7.36421 13.906 7.12678 14.0272 6.71266C14.5964 4.77051 16.1955 3.51563 18.1016 3.51563C20.3303 3.51563 21.8937 5.4947 22.4189 7.33735C22.5126 7.67579 22.8209 7.91017 23.1718 7.91017C23.5231 7.91017 23.831 7.67579 23.9247 7.33735C23.9354 7.2992 25.0206 3.51563 28.2429 3.51563C30.688 3.51563 32.5319 5.54566 32.5319 8.23823C32.5319 11.7136 29.1346 14.2191 23.2649 19.2801C19.6885 16.2088 16.8476 14.047 15.233 11.9321C14.9711 11.5891 14.481 11.5232 14.138 11.785C13.795 12.0468 13.7293 12.5369 13.9909 12.8803C15.811 15.264 18.8835 17.5479 22.7537 20.9027Z" fill="#F6DE52"/>
<path d="M13.2031 8.83569C12.7719 8.83569 12.4219 9.18573 12.4219 9.61694C12.4219 10.0482 12.7719 10.3982 13.2031 10.3982C13.6343 10.3982 13.9844 10.0482 13.9844 9.61694C13.9844 9.18573 13.6343 8.83569 13.2031 8.83569Z" fill="#F6DE52"/>
</g>
<defs>
<clipPath id="clip0">
<rect width="40" height="40" fill="white"/>
</clipPath>
</defs>
</svg>
