<svg width="40" height="40" viewBox="0 0 40 40" fill="none" xmlns="http://www.w3.org/2000/svg">
<path d="M28.0508 2.30413C29.9802 1.98544 31 1.61133 31 1.22226V0.354768C31 0.311926 30.7427 0.274801 30.3814 0.265475L20.1719 0.00217068C20.0585 -0.00072356 19.9412 -0.00072356 19.8278 0.00217068L9.61864 0.265475C9.25697 0.274801 9 0.311926 9 0.354768V1.22226C9 1.61133 10.0198 1.98544 11.9492 2.3041C13.8787 2.62278 16.5691 2.8615 19.7299 2.9945C19.817 2.99814 19.9087 3 19.9998 3C20.0913 3 20.183 2.99814 20.2701 2.9945C23.4309 2.86154 26.1213 2.62278 28.0508 2.30413V2.30413ZM19.9998 2.81084C17.2628 2.68874 14.9312 2.47779 13.2446 2.19915C11.5023 1.91141 10.5813 1.5736 10.5813 1.22226V0.428089L19.9998 0.185187L29.4187 0.428089V1.22226C29.4187 1.57357 28.4977 1.91137 26.7554 2.19915C25.0685 2.47779 22.7369 2.68874 19.9998 2.81084Z" fill="#F6DE52"/>
<path d="M28.1339 5.34789C28.1339 4.98168 27.88 4.6649 27.5227 4.58525L20.3266 2.98094C20.2146 2.95622 20.0983 2.95622 19.9863 2.98094L12.79 4.58525C12.3688 4.67925 12.1036 5.09673 12.1976 5.51787C12.2913 5.93901 12.7091 6.20421 13.13 6.11022L20.1563 4.54405L26.5714 5.97411V10.4391C26.5714 12.8433 25.8424 15.1547 24.4633 17.124C23.3552 18.7061 21.8714 19.9878 20.1563 20.8493C18.4412 19.9881 16.9578 18.7061 15.8497 17.124C14.6568 15.4208 13.9402 13.4299 13.7778 11.3669C13.7641 11.1948 13.7543 11.0208 13.7485 10.8493C13.7336 10.4178 13.3695 10.0806 12.9407 10.0952C12.5095 10.1102 12.172 10.4718 12.187 10.903C12.1937 11.0974 12.2047 11.2949 12.2199 11.4896C12.4042 13.8306 13.2169 16.0889 14.5698 18.0203C15.9061 19.928 17.7244 21.4514 19.8283 22.4256C19.9323 22.4738 20.0446 22.4979 20.1566 22.4979C20.2686 22.4979 20.3806 22.4738 20.4847 22.4256C22.5889 21.4511 24.4071 19.928 25.7432 18.0203C27.3072 15.7874 28.1343 13.1656 28.1343 10.4391V5.34789H28.1339Z" fill="#F6DE52"/>
<path d="M17.9305 14.4945C18.0672 14.6562 18.2635 14.7554 18.4749 14.7694C18.4923 14.7707 18.5097 14.7713 18.5271 14.7713C18.72 14.7713 18.9071 14.6999 19.0511 14.5695L24.7152 9.44502C25.035 9.15571 25.0597 8.66163 24.7704 8.3415C24.4808 8.02167 23.9867 7.99695 23.6669 8.28626L18.6019 12.8685L17.1563 11.1586C16.878 10.8293 16.3848 10.7878 16.0555 11.0664C15.7259 11.345 15.6847 11.8379 15.963 12.1675L17.9305 14.4945Z" fill="#F6DE52"/>
<path d="M13.5776 25.8556C13.1659 25.3142 12.5674 24.97 11.8927 24.8858C11.2179 24.8018 10.5533 24.9883 10.021 25.4116C9.772 25.6096 9.57089 25.8471 9.41922 26.1086L9.18973 25.8095C8.98587 25.5443 8.87387 25.2141 8.87387 24.8797V17.8316C8.87387 16.3918 7.7023 15.2202 6.26248 15.2202C4.9081 15.2202 3.79055 16.2371 3.66268 17.585L2.8265 26.4037C2.75295 27.1761 2.97085 27.9424 3.44234 28.565L10.083 37.2118V39.2187C10.083 39.6502 10.4327 39.9999 10.8642 39.9999C11.2954 39.9999 11.6455 39.6502 11.6455 39.2187V36.9463C11.6455 36.7742 11.5884 36.607 11.4837 36.4706L4.68472 27.6174C4.45309 27.3116 4.34566 26.9329 4.38198 26.5511L5.21847 17.7327C5.26974 17.191 5.71865 16.7827 6.26248 16.7827C6.84109 16.7827 7.31137 17.2533 7.31137 17.8316V24.8797C7.31137 25.5565 7.53842 26.2246 7.95071 26.7611L9.58615 28.8909C9.58859 28.8942 9.59103 28.8976 9.59347 28.901L10.9131 30.6194C11.1761 30.9615 11.6665 31.0259 12.0086 30.7631C12.3507 30.5004 12.4151 30.01 12.1524 29.6676L10.8285 27.9436C10.5218 27.5377 10.5951 26.9518 10.9942 26.6344C11.1947 26.4748 11.4453 26.4046 11.6995 26.4361C11.9537 26.4678 12.1792 26.5978 12.3343 26.8017L15.4883 30.9466C16.109 31.7623 16.4508 32.7761 16.4508 33.8012V39.2187C16.4508 39.6502 16.8005 39.9999 17.232 39.9999C17.6636 39.9999 18.0133 39.6502 18.0133 39.2187V33.8012C18.0133 32.4364 17.5583 31.0866 16.7319 30.0005L13.5776 25.8556Z" fill="#F6DE52"/>
<path d="M37.2672 26.4037L36.4307 17.585C36.3028 16.2371 35.185 15.2202 33.8309 15.2202C32.3911 15.2202 31.2195 16.3918 31.2195 17.8316V24.8797C31.2195 25.2141 31.1072 25.5443 30.9036 25.8095L30.6739 26.1086C30.5225 25.8474 30.3214 25.6099 30.0723 25.4116C29.5401 24.9883 28.8754 24.8018 28.2007 24.8858C27.526 24.97 26.9275 25.3142 26.5158 25.8556L23.3618 30.0005C22.5354 31.0866 22.0801 32.4364 22.0801 33.8015V39.2187C22.0801 39.6502 22.4301 39.9999 22.8613 39.9999C23.2928 39.9999 23.6426 39.6502 23.6426 39.2187V33.8012C23.6426 32.7761 23.9844 31.7623 24.6051 30.9466L27.7591 26.8017C27.9144 26.5978 28.14 26.4681 28.3942 26.4361C28.6484 26.4046 28.8989 26.4748 29.0994 26.6344C29.4983 26.9518 29.5719 27.5377 29.2649 27.9436L27.9413 29.6676C27.6785 30.01 27.7429 30.5004 28.085 30.7631C28.4271 31.0259 28.9176 30.9615 29.1806 30.6194L30.4999 28.901C30.5023 28.8979 30.5045 28.8949 30.5069 28.8918L32.143 26.7614C32.555 26.2246 32.782 25.5565 32.782 24.8797V17.8316C32.782 17.2533 33.2526 16.7827 33.8309 16.7827C34.3747 16.7827 34.8236 17.191 34.8752 17.7327L35.7117 26.5511C35.7477 26.9332 35.6403 27.3116 35.4117 27.6134L28.6096 36.4706C28.505 36.607 28.4482 36.7745 28.4482 36.9466V39.2187C28.4482 39.6502 28.7979 39.9999 29.2294 39.9999C29.661 39.9999 30.0107 39.6502 30.0107 39.2187V37.2118L36.6541 28.561C37.1225 27.9424 37.3404 27.1761 37.2672 26.4037Z" fill="#F6DE52"/>
<path d="M12.5263 8.75752C12.8012 8.94093 13.1735 8.92934 13.4354 8.72762C13.6817 8.5378 13.7973 8.20637 13.7143 7.90547C13.6255 7.5829 13.3368 7.34608 13.0014 7.32777C12.6694 7.30976 12.356 7.5124 12.2342 7.82094C12.1006 8.15999 12.2242 8.55427 12.5263 8.75752Z" fill="#F6DE52"/>
</svg>
