<svg width="40" height="40" viewBox="0 0 40 40" fill="none" xmlns="http://www.w3.org/2000/svg">
<g clip-path="url(#clip0)">
<path d="M36.8278 25.5V17.4574C36.8278 14.2864 35.0689 11.4266 32.2376 9.99417C31.8527 9.7994 31.3826 9.95354 31.1877 10.3386C30.993 10.7236 31.1471 11.1936 31.5321 11.3884C33.8348 12.5534 35.2652 14.8789 35.2652 17.4574V24.8196C34.6919 24.6548 34.0873 24.5646 33.4616 24.5646H31.3725V23.3739C32.6659 22.4596 33.5128 20.9539 33.5128 19.2531V16.8618C33.5128 16.4303 33.163 16.0806 32.7316 16.0806H31.3151C30.832 16.0806 30.3792 15.8743 30.0618 15.5259C30.2584 15.0843 30.3687 14.5962 30.3687 14.0824C30.3687 13.651 30.0188 13.3012 29.5874 13.3012C29.156 13.3012 28.8062 13.651 28.8062 14.0824C28.8062 15.1842 27.9098 16.0806 26.8081 16.0806H24.2053C23.7739 16.0806 23.4241 16.4303 23.4241 16.8618V19.2531C23.4241 20.9462 24.2634 22.446 25.5469 23.3614V24.5646H23.178C22.7416 24.1696 22.2316 23.855 21.6716 23.6426V17.4574C21.6716 14.8818 23.0996 12.5575 25.3985 11.3915C25.7834 11.1964 25.9371 10.7262 25.7419 10.3414C25.5467 9.95651 25.0764 9.80276 24.6918 9.99799C21.8651 11.4317 20.1091 14.2899 20.1091 17.4573V23.3018H14.5573V22.1463C16.1512 21.0937 17.1721 19.1992 17.1721 16.9437V14.8691C18.0756 13.9297 18.6328 12.6549 18.6328 11.2517V9.19049L18.893 9.45073C19.1861 9.7437 19.5756 9.9051 19.9901 9.9051C20.4045 9.9051 20.7941 9.74378 21.0871 9.45073L24.4666 6.07127C25.853 4.68479 25.853 2.42877 24.4666 1.04229C23.2517 -0.172398 21.3698 -0.322788 19.9901 0.590571C18.61 -0.322788 16.7283 -0.172241 15.5136 1.04229C14.1271 2.42877 14.1271 4.68479 15.5136 6.0712L17.8317 8.38932H11.1316C8.25156 8.38932 5.90844 10.7324 5.90844 13.6126V17.407C5.90844 19.4029 6.95305 21.1583 8.52328 22.1589V23.3017H5.84008C2.61984 23.3018 0 25.9217 0 29.142V36.0946C0 38.2485 1.75234 40.0009 3.90625 40.0009H36.0938C38.2477 40.0009 40 38.2485 40 36.0946V31.1028C40 28.728 38.727 26.6453 36.8278 25.5ZM16.6185 4.96651C15.8412 4.18924 15.8412 2.92456 16.6185 2.14737C17.0071 1.75877 17.5176 1.56448 18.028 1.56448C18.5386 1.56448 19.0491 1.75877 19.4377 2.14737C19.7428 2.45245 20.2373 2.45245 20.5426 2.14737C21.3197 1.3701 22.5845 1.3701 23.3617 2.14737C24.139 2.92463 24.139 4.18932 23.3617 4.96659L19.9902 8.33823L16.6185 4.96651ZM24.9866 19.2531V17.6431H26.8082C27.6889 17.6431 28.4953 17.321 29.1176 16.7892C29.7092 17.3296 30.4895 17.6431 31.3152 17.6431H31.9504V19.2531C31.9504 21.173 30.3884 22.7349 28.4685 22.7349C26.5486 22.7349 24.9866 21.1729 24.9866 19.2531ZM29.81 24.1149V25.479C29.81 26.2235 29.2042 26.8293 28.4597 26.8293C27.7152 26.8293 27.1095 26.2235 27.1095 25.479V24.1099C27.5422 24.2311 27.9976 24.2974 28.4685 24.2974C28.933 24.2974 29.3826 24.233 29.81 24.1149ZM19.9901 24.897C21.7506 24.897 23.183 26.3293 23.183 28.0899C23.183 29.8504 21.7506 31.2828 19.9901 31.2828C18.2295 31.2828 16.7972 29.8504 16.7972 28.0899C16.7972 26.3293 18.2295 24.897 19.9901 24.897ZM7.47094 13.6128C7.47094 11.5942 9.1132 9.95198 11.1316 9.95198H17.0703V11.2518C17.0703 13.2703 15.428 14.9126 13.4096 14.9126H7.47094V13.6128ZM7.47094 17.4071V16.4751H13.4096C14.1953 16.4751 14.9405 16.2996 15.6096 15.9875V16.9438C15.6096 19.5702 13.8983 21.4765 11.5403 21.4765C9.29641 21.4764 7.47094 19.651 7.47094 17.4071ZM12.9948 22.8498V24.2228C12.9948 25.0249 12.3423 25.6774 11.5403 25.6774C10.7384 25.6774 10.0858 25.0248 10.0858 24.2228V22.8474C10.5501 22.9717 11.0374 23.0389 11.5403 23.0389C12.047 23.0389 12.5338 22.9734 12.9948 22.8498ZM11.7848 38.4384H3.90625C2.61391 38.4384 1.5625 37.387 1.5625 36.0946V29.142C1.5625 26.7833 3.48141 24.8643 5.84008 24.8643H8.59258C8.8875 26.2207 10.0969 27.2399 11.5403 27.2399C12.9838 27.2399 14.193 26.2207 14.488 24.8643H16.4999C15.7153 25.7126 15.2347 26.846 15.2347 28.0899C15.2347 29.5714 15.9159 30.8965 16.9813 31.7693C15.7083 32.2842 14.6086 33.1866 13.8535 34.3759H5.61508C5.18367 34.3759 4.83383 34.7257 4.83383 35.1571C4.83383 35.5885 5.18367 35.9384 5.61508 35.9384H11.7848V38.4384ZM14.3773 38.4384H13.3473V35.9384H14.3773C15.0666 35.9384 15.6273 36.4992 15.6273 37.1884C15.6273 37.8776 15.0666 38.4384 14.3773 38.4384ZM23.0843 38.4384H16.8959C17.0837 38.0616 17.1899 37.6372 17.1899 37.1884C17.1899 36.0705 16.5342 35.103 15.5873 34.6499C16.5461 33.5177 17.9623 32.8453 19.4813 32.8453H20.499C22.0179 32.8453 23.4341 33.5176 24.3929 34.6498C23.4459 35.1029 22.7902 36.0704 22.7902 37.1883C22.7902 37.6373 22.8965 38.0616 23.0843 38.4384ZM26.6328 38.4384H25.6027C24.9134 38.4384 24.3527 37.8776 24.3527 37.1884C24.3527 36.4992 24.9134 35.9384 25.6027 35.9384H26.6328V38.4384ZM38.4375 36.0946C38.4375 37.387 37.3861 38.4384 36.0938 38.4384H28.1953V35.9384H34.3651C34.7965 35.9384 35.1463 35.5885 35.1463 35.1571C35.1463 34.7257 34.7965 34.3759 34.3651 34.3759H26.1266C25.3715 33.1866 24.2719 32.2842 22.9989 31.7692C24.0643 30.8964 24.7455 29.5714 24.7455 28.0899C24.7455 27.3901 24.5923 26.7259 24.3198 26.1271H25.6205C25.916 27.4222 27.0764 28.3918 28.4597 28.3918C29.843 28.3918 31.0034 27.4221 31.2989 26.1271H33.4616C36.2053 26.1271 38.4374 28.3592 38.4374 31.1028V36.0946H38.4375Z" fill="#F6DE52"/>
<path d="M28.4641 10.6545C28.6696 10.6545 28.8711 10.5709 29.0165 10.4256C29.1617 10.2803 29.2454 10.0788 29.2454 9.87329C29.2454 9.66704 29.1618 9.46626 29.0165 9.32095C28.8711 9.17563 28.6696 9.09204 28.4641 9.09204C28.2586 9.09204 28.0571 9.17563 27.9118 9.32095C27.7665 9.46626 27.6829 9.66704 27.6829 9.87329C27.6829 10.0788 27.7665 10.2803 27.9118 10.4256C28.0571 10.5709 28.2586 10.6545 28.4641 10.6545Z" fill="#F6DE52"/>
</g>
<defs>
<clipPath id="clip0">
<rect width="40" height="40" fill="white"/>
</clipPath>
</defs>
</svg>
