<svg width="25" height="25" viewBox="0 0 25 25" fill="none" xmlns="http://www.w3.org/2000/svg">
<path d="M24.0234 14.2334C24.5628 14.2334 25 13.7962 25 13.2568V6.86035C25 4.70645 23.2477 2.9541 21.0938 2.9541H3.90625C1.75234 2.9541 0 4.70645 0 6.86035V18.1396C0 20.2936 1.75234 22.0459 3.90625 22.0459H21.0938C23.2477 22.0459 25 20.2936 25 18.1396C25 17.6003 24.5628 17.1631 24.0234 17.1631C23.4841 17.1631 23.0469 17.6003 23.0469 18.1396C23.0469 19.2166 22.1707 20.0928 21.0938 20.0928H3.90625C2.8293 20.0928 1.95312 19.2166 1.95312 18.1396V7.06729L10.4373 12.3429C11.0734 12.7385 11.7867 12.9363 12.5 12.9363C13.2133 12.9363 13.9266 12.7385 14.5627 12.3429L23.0469 7.06729V13.2568C23.0469 13.7962 23.4841 14.2334 24.0234 14.2334ZM13.5313 10.6843C12.8952 11.0798 12.1048 11.0799 11.4687 10.6843L2.76802 5.27402C3.08872 5.04326 3.48188 4.90723 3.90625 4.90723H21.0938C21.5181 4.90723 21.9113 5.04331 22.232 5.27407L13.5313 10.6843Z" fill="white"/>
</svg>
