<svg width="25" height="25" viewBox="0 0 25 25" fill="none" xmlns="http://www.w3.org/2000/svg">
<g clip-path="url(#clip0)">
<path d="M24.9976 20.1441C24.9627 19.1771 24.5599 18.2746 23.8633 17.603C22.4995 16.2879 21.3568 15.5287 20.2673 15.2139C18.7661 14.78 17.3754 15.1745 16.1344 16.3865C16.1326 16.3884 16.1307 16.3902 16.1289 16.3921L14.8085 17.7025C13.9834 17.2374 12.3789 16.2161 10.6454 14.4826L10.5169 14.3542C8.7831 12.6204 7.76186 11.0156 7.29716 10.1914L8.60771 8.87107C8.60957 8.86921 8.61142 8.86736 8.61328 8.86545C9.82524 7.62454 10.2198 6.23401 9.78593 4.73259C9.47104 3.64309 8.71191 2.50041 7.39677 1.1366C6.72519 0.440161 5.8228 0.0373289 4.85575 0.00246564C3.88813 -0.0324465 2.95961 0.30437 2.23949 0.950757L2.21147 0.975952C2.19848 0.987622 2.18578 0.999682 2.17338 1.01204C0.739834 2.44558 -0.0116315 4.45247 0.000136112 6.8158C0.0202045 10.8305 2.2267 15.4218 5.90244 19.0974C6.59555 19.7906 7.3833 20.4765 8.24375 21.1363C8.67172 21.4644 9.28471 21.3835 9.61289 20.9555C9.94111 20.5275 9.86015 19.9145 9.43213 19.5863C8.6394 18.9784 7.9165 18.3493 7.28349 17.7165C3.96337 14.3964 1.97074 10.3177 1.95321 6.80608C1.94418 4.98596 2.49169 3.46677 3.53676 2.41082L3.54423 2.40408C4.25405 1.76692 5.3287 1.80569 5.99091 2.49236C8.51919 5.11433 8.33613 6.35217 7.21894 7.49778L5.40868 9.32161C5.1248 9.60764 5.04575 10.0387 5.20966 10.4069C5.25561 10.5101 6.36738 12.9668 9.13618 15.7356L9.26474 15.8639C12.0332 18.6324 14.4899 19.7442 14.5932 19.7901C14.9612 19.9541 15.3924 19.875 15.6784 19.5911L17.5023 17.7808C18.648 16.6636 19.8858 16.4806 22.5077 19.0089C23.1943 19.671 23.2331 20.7457 22.5961 21.4554L22.5892 21.4631C21.5419 22.4997 20.0388 23.0468 18.2385 23.0468C18.2237 23.0468 18.2088 23.0468 18.1939 23.0467C16.7549 23.0395 15.0886 22.645 13.3751 21.9059C12.88 21.6923 12.3053 21.9206 12.0917 22.4158C11.8781 22.9111 12.1063 23.4857 12.6016 23.6993C14.5822 24.5536 16.4604 24.9911 18.1842 24.9998C18.2025 24.9998 18.2207 24.9999 18.239 24.9999C20.5786 24.9999 22.5655 24.249 23.988 22.8265C24.0003 22.8141 24.0124 22.8015 24.024 22.7885L24.0494 22.7603C24.6957 22.0402 25.0325 21.1111 24.9976 20.1441Z" fill="white"/>
</g>
<defs>
<clipPath id="clip0">
<rect width="25" height="25" fill="white"/>
</clipPath>
</defs>
</svg>
