<svg width="40" height="40" viewBox="0 0 40 40" fill="none" xmlns="http://www.w3.org/2000/svg">
<g clip-path="url(#clip0)">
<path d="M34.3185 5.68146C30.6546 2.01752 25.7843 0 20.6024 0C20.6021 0 20.6009 0 20.6006 0C18.0377 0.000305176 15.5402 0.496521 13.1778 1.47522C10.8151 2.45392 8.69843 3.86902 6.88599 5.68146C3.22236 9.34509 1.20484 14.2163 1.20484 19.3976C1.20484 22.4875 1.95038 25.5582 3.36304 28.2941L0.102544 37.6086C-0.127254 38.2657 0.035405 38.9798 0.527959 39.472C0.872502 39.8169 1.32599 40 1.7923 40C1.99219 40 2.19422 39.9664 2.39136 39.8975L11.7059 36.6373C14.4418 38.0499 17.5125 38.7955 20.6024 38.7955C25.7837 38.7955 30.6546 36.7776 34.3185 33.114C37.9822 29.4504 40 24.5792 40 19.3979C40 14.2163 37.9825 9.34509 34.3185 5.68146ZM32.6596 31.4551C29.4391 34.6759 25.1569 36.4493 20.6024 36.4493C17.8162 36.4493 15.0482 35.7602 12.5977 34.4559C12.1533 34.2197 11.6281 34.1791 11.1566 34.3442L2.6941 37.3059L5.65613 28.8434C5.82123 28.3713 5.78034 27.8461 5.54413 27.402C4.24012 24.9521 3.55072 22.1841 3.55072 19.3976C3.55072 14.8431 5.32441 10.5609 8.54493 7.34039C11.7651 4.12018 16.0468 2.3465 20.6009 2.34589H20.6024C25.1572 2.34589 29.4391 4.11957 32.6596 7.34039C35.8804 10.5609 37.6541 14.8428 37.6541 19.3976C37.6541 23.9523 35.8804 28.2346 32.6596 31.4551Z" fill="#57FA53"/>
<path d="M27.8112 21.1303C26.9189 20.238 25.4669 20.238 24.5745 21.1303L23.5986 22.1063C21.1752 20.7858 19.2141 18.8247 17.8933 16.4013L18.8693 15.4254C19.7619 14.533 19.7619 13.081 18.8693 12.1887L16.2393 9.55865C15.3469 8.66632 13.8949 8.66632 13.0026 9.55865L10.8987 11.6625C9.69355 12.8677 9.63343 14.9395 10.7293 17.4966C11.6809 19.7167 13.4222 22.1569 15.6326 24.3673C17.843 26.5777 20.2832 28.319 22.5033 29.2706C23.7182 29.7912 24.8233 30.0509 25.7781 30.0509C26.8331 30.0509 27.7047 29.7338 28.3374 29.1012L30.4412 26.997V26.9973C30.8737 26.5649 31.1117 25.9902 31.1117 25.379C31.1117 24.7674 30.8737 24.1927 30.4412 23.7606L27.8112 21.1303ZM26.6784 27.4423C26.3345 27.7862 25.2767 27.9067 23.4277 27.1145C21.4752 26.2777 19.2959 24.7128 17.2915 22.7084C15.2871 20.704 13.7225 18.525 12.8857 16.5725C12.0931 14.7234 12.2137 13.6654 12.5576 13.3215L14.6212 11.2579L17.1701 13.807L15.9484 15.0289C15.3961 15.5813 15.2627 16.419 15.617 17.1136C17.2232 20.263 19.7369 22.7767 22.8863 24.3829C23.5812 24.7372 24.4189 24.6041 24.9713 24.0515L26.1929 22.8298L28.742 25.379L26.6784 27.4423Z" fill="#57FA53"/>
</g>
<defs>
<clipPath id="clip0">
<rect width="40" height="40" fill="white"/>
</clipPath>
</defs>
</svg>
