<svg width="40" height="40" viewBox="0 0 40 40" fill="none" xmlns="http://www.w3.org/2000/svg">
<path d="M38.3191 14.1177C38.3194 10.361 36.8469 6.81976 34.1733 4.14612C31.4996 1.47247 27.9584 0 24.2014 0H15.8365C15.8362 0 15.8362 0 15.8362 0C12.0798 0 8.53821 1.47247 5.86487 4.14581C3.19122 6.81976 1.71875 10.361 1.71875 14.1177V20.6931C1.71875 23.6026 2.6062 26.4011 4.28528 28.7866C5.7666 30.8911 7.75879 32.5351 10.0815 33.5773V37.3541C10.0815 39.3069 11.1749 40 12.1112 40C12.7802 40 13.4491 39.6698 14.1003 39.0189L18.3081 34.8111L24.2017 34.8108C27.9584 34.8108 31.4996 33.3383 34.1733 30.665C36.8469 27.9913 38.3194 24.4498 38.3194 20.6931L38.3191 14.1177ZM24.2017 32.467L17.8229 32.4673C17.5119 32.4673 17.2141 32.5906 16.9943 32.8104L12.4432 37.3615C12.4374 37.3676 12.4313 37.3734 12.4252 37.3792C12.4252 37.3709 12.4252 37.3624 12.4252 37.3541V32.7951C12.4252 32.309 12.1252 31.8735 11.6711 31.7001C7.12036 29.9637 4.06281 25.5402 4.06281 20.6931V14.1177C4.06281 10.9869 5.29144 8.03406 7.52228 5.80292C9.75311 3.57239 12.7057 2.34375 15.8365 2.34375H24.2014C27.3322 2.34375 30.285 3.57239 32.5159 5.80322C34.747 8.03436 35.9756 10.9872 35.9753 14.1177L35.9756 20.6931C35.9753 27.1854 30.6937 32.467 24.2017 32.467Z" fill="#DE00D5"/>
<path d="M23.1353 19.1668C22.6779 18.709 21.936 18.709 21.4782 19.1668L20.5316 20.1132L16.8634 16.4453L17.81 15.4989C18.0297 15.2792 18.1533 14.981 18.1533 14.67C18.1533 14.3594 18.0297 14.0612 17.81 13.8415L13.3721 9.40363C13.1524 9.1839 12.8546 9.0603 12.5436 9.0603C12.2329 9.0603 11.9348 9.1839 11.715 9.40363L8.60835 12.5103C6.92835 14.1903 6.92835 16.9244 8.60865 18.6053L18.3715 28.3688C19.1833 29.1802 20.2658 29.627 21.419 29.627C22.5726 29.627 23.655 29.1802 24.4668 28.3688L27.5735 25.2624C27.7932 25.0424 27.9168 24.7445 27.9168 24.4335C27.9168 24.1229 27.7932 23.8247 27.5735 23.605L23.1353 19.1668ZM22.8094 26.7111C22.4404 27.08 21.9467 27.2833 21.419 27.2833C20.8914 27.2833 20.3976 27.08 20.0286 26.7111L10.2661 16.9479C9.49946 16.1813 9.49915 14.9337 10.2658 14.1674L12.5436 11.8893L15.324 14.67L14.3774 15.6164C14.1577 15.8361 14.0341 16.1343 14.0341 16.4449C14.0341 16.7559 14.1577 17.0538 14.3774 17.2738L19.7027 22.5991C20.1605 23.0566 20.9024 23.0569 21.3601 22.5991L22.3068 21.6528L25.0872 24.4332L22.8094 26.7111Z" fill="#DE00D5"/>
<path d="M20.3032 5.18408C19.6559 5.18408 19.1313 5.70868 19.1313 6.35596C19.1313 7.00293 19.6559 7.52783 20.3032 7.52783C22.9851 7.52783 25.5068 8.57214 27.4031 10.4688C29.2998 12.3652 30.3441 14.8865 30.3441 17.5687C30.3441 18.2157 30.8687 18.7406 31.516 18.7406C32.163 18.7406 32.6879 18.216 32.6879 17.5687C32.6879 14.2606 31.3997 11.1506 29.0605 8.8114C26.7214 6.47223 23.6113 5.18408 20.3032 5.18408Z" fill="#DE00D5"/>
<path d="M25.3234 17.5684C25.3234 18.2154 25.8483 18.7403 26.4952 18.7403C27.1425 18.7403 27.6671 18.2154 27.6671 17.5684C27.6671 13.5081 24.3636 10.2048 20.3032 10.2048C19.6559 10.2048 19.1313 10.7294 19.1313 11.3767C19.1313 12.024 19.6559 12.5486 20.3032 12.5486C23.0715 12.5486 25.3234 14.8005 25.3234 17.5684Z" fill="#DE00D5"/>
</svg>
