<svg width="110" height="110" viewBox="0 0 110 110" fill="none" xmlns="http://www.w3.org/2000/svg">
<circle cx="55" cy="55" r="54" fill="white" stroke="#844428" stroke-width="2"/>
<path d="M75.2896 31H34.7103C32.6645 31 31 32.6647 31 34.7108V58.7606C31 60.8067 32.6645 62.4713 34.7103 62.4713H49.7866V68.3262C49.7866 68.5293 49.8906 68.7005 49.9783 68.876C50.045 69.0094 50.1117 69.1428 50.1783 69.276C51.4406 71.8009 53.3432 73.9931 55.8334 75.7917C58.1254 77.4471 60.268 78.2946 61.3413 78.6524C61.5412 78.719 61.7414 78.7845 61.9409 78.8524C62.1269 78.9157 62.3146 78.9986 62.5145 79C62.7089 79.0013 62.8911 78.9208 63.0714 78.8583C63.2762 78.7872 63.4825 78.721 63.6881 78.6524C64.7613 78.2946 66.9039 77.4472 69.1959 75.7917C71.6861 73.9931 73.5889 71.801 74.8511 69.2759C74.9178 69.1426 74.9844 69.0092 75.0511 68.876C75.1388 68.7003 75.2428 68.5291 75.2428 68.3262V62.4713H75.2898C77.3357 62.4713 79.0001 60.8066 79.0001 58.7606V34.7108C78.9999 32.6647 77.3354 31 75.2896 31ZM73.8335 68.16L73.5906 68.646C72.431 70.9654 70.6747 72.9853 68.3707 74.6495C66.2309 76.1951 64.2392 76.9835 63.2423 77.3158C63.1153 77.3581 62.9883 77.3999 62.8613 77.4421C62.7943 77.4643 62.7262 77.4847 62.6608 77.5111C62.608 77.5323 62.5587 77.5618 62.4997 77.557C62.4439 77.5526 62.3945 77.5212 62.3434 77.501C62.2852 77.4781 62.2241 77.4613 62.1647 77.4417C62.0386 77.4002 61.9129 77.3577 61.7869 77.3157C60.79 76.9834 58.7983 76.1951 56.6583 74.6494C54.3543 72.9852 52.5981 70.9653 51.4385 68.6459L51.1956 68.16V53.1499L54.2247 54.1598C54.9062 54.387 55.6233 54.5022 56.356 54.5022C59.0018 54.5021 61.112 53.0148 61.1397 52.9944L62.5193 51.9597L63.8938 52.9975C63.8978 53.0005 63.902 53.0035 63.9061 53.0065C63.9268 53.0214 66.0098 54.5022 68.6731 54.5022C69.4056 54.5022 70.1227 54.387 70.8045 54.1598L73.8335 53.15V68.16H73.8335ZM77.5909 43.0249H70.0762C69.6871 43.0249 69.3717 43.3403 69.3717 43.7296C69.3717 44.1188 69.6871 44.4342 70.0762 44.4342H77.5909V58.7607C77.5909 60.0297 76.5587 61.0622 75.2896 61.0622H75.2426V52.1724C75.2426 51.6999 74.7644 51.3543 74.3153 51.504L70.3591 52.823C69.8212 53.0021 69.254 53.0931 68.6732 53.0931C66.5581 53.0931 64.8155 51.9217 64.7335 51.8658L62.9453 50.5157C62.6948 50.3266 62.3494 50.326 62.098 50.5144L60.3056 51.8589C60.2094 51.9249 58.4712 53.0931 56.3563 53.0932C55.7753 53.0932 55.2081 53.0023 54.6705 52.823L50.7142 51.5041C50.2652 51.3547 49.7869 51.6999 49.7869 52.1725V61.0623H34.7103C33.4414 61.0623 32.409 60.0299 32.409 58.7607V44.4342H66.6476C67.0368 44.4342 67.3521 44.1188 67.3521 43.7296C67.3521 43.3403 67.0368 43.0249 66.6476 43.0249H32.409V38.4217H77.5908V43.0249H77.5909ZM77.5909 37.0124H32.409V34.7108C32.409 33.4416 33.4414 32.4091 34.7103 32.4091H75.2895C76.5585 32.4091 77.5908 33.4416 77.5908 34.7108V37.0124H77.5909Z" fill="#219653"/>
<path d="M44.4795 52.0433H34.7104C34.3213 52.0433 34.0059 52.3587 34.0059 52.7479C34.0059 53.137 34.3213 53.4524 34.7104 53.4524H44.4795C44.8686 53.4524 45.184 53.137 45.184 52.7479C45.1839 52.3587 44.8686 52.0433 44.4795 52.0433Z" fill="#219653"/>
<path d="M52.7456 46.0311H34.7104C34.3213 46.0311 34.0059 46.3465 34.0059 46.7357V49.7416C34.0059 50.1307 34.3213 50.4461 34.7104 50.4461H52.7456C53.1347 50.4461 53.4501 50.1307 53.4501 49.7416V46.7357C53.4501 46.3466 53.1347 46.0311 52.7456 46.0311ZM52.0411 49.037H35.4149V47.4402H52.0411V49.037Z" fill="#219653"/>
<path d="M71.3093 55.6751C66.8558 57.1598 62.9759 54.3057 62.9372 54.2768C62.6868 54.0889 62.3423 54.0889 62.0918 54.2768C62.0531 54.3059 58.1737 57.16 53.7198 55.6751C53.2708 55.5257 52.7925 55.8709 52.7925 56.3436V67.6169C52.7925 67.7262 52.8179 67.8342 52.8669 67.932C55.5659 73.3307 61.1914 75.434 62.2918 75.8009C62.4356 75.8488 62.5936 75.8488 62.7374 75.8009C63.8377 75.4341 69.4633 73.3308 72.1622 67.932C72.2112 67.8341 72.2367 67.7263 72.2367 67.6169V56.3436C72.2366 55.8709 71.7584 55.5256 71.3093 55.6751ZM70.8277 67.448C68.4977 71.9535 63.889 73.8933 62.5145 74.3867C61.14 73.8934 56.5312 71.9535 54.2014 67.448V57.2706C58.0479 58.1376 61.3718 56.3929 62.5145 55.6844C63.4383 56.2572 65.7867 57.5073 68.6849 57.5071C69.3719 57.507 70.0906 57.4367 70.8278 57.2704V67.448H70.8277Z" fill="#219653"/>
<path d="M68.4018 60.3982C68.4019 60.3981 68.4018 60.3981 68.4018 60.398C67.7366 59.6382 66.577 59.561 65.8171 60.2257L61.2918 64.1859L60.2226 62.76C59.624 61.9614 58.4573 61.7938 57.6582 62.3936C56.8596 62.9922 56.6926 64.159 57.2919 64.9582L59.5462 67.9644C60.1761 68.8046 61.4271 68.9358 62.2178 68.2441L68.2296 62.9831C68.9896 62.318 69.0669 61.1584 68.4018 60.3982ZM67.3017 61.9226L61.2901 67.1835C61.1078 67.343 60.819 67.3133 60.6735 67.119L58.4191 64.1128C58.2822 63.9302 58.3212 63.6578 58.5037 63.5209C58.6862 63.3841 58.9586 63.423 59.0953 63.6054L60.6205 65.6391C60.8627 65.9622 61.3438 66.0128 61.6479 65.7467L66.7448 61.2863C66.9162 61.1362 67.1913 61.1544 67.3414 61.3259C67.4915 61.4975 67.4732 61.7726 67.3017 61.9226Z" fill="#219653"/>
</svg>
