<svg width="110" height="110" viewBox="0 0 110 110" fill="none" xmlns="http://www.w3.org/2000/svg">
<circle cx="55" cy="55" r="54" fill="white" stroke="#844428" stroke-width="2"/>
<path d="M72.2908 61.5454C67.4784 61.5454 63.5635 65.4604 63.5635 70.2727C63.5635 75.085 67.4784 79 72.2908 79C77.1039 79 81.0181 75.085 81.0181 70.2727C81.0181 65.4604 77.1031 61.5454 72.2908 61.5454ZM72.2908 74.6364C69.8843 74.6364 67.9271 72.6792 67.9271 70.2727C67.9271 67.8662 69.8843 65.9091 72.2908 65.9091C74.6973 65.9091 76.6544 67.8662 76.6544 70.2727C76.6544 72.6793 74.6973 74.6364 72.2908 74.6364Z" fill="#219653"/>
<path d="M42.4727 61.5454C37.6603 61.5454 33.7454 65.4604 33.7454 70.2727C33.7454 75.085 37.6603 79 42.4727 79C47.285 79 51.2 75.085 51.2 70.2727C51.2 65.4604 47.285 61.5454 42.4727 61.5454ZM42.4727 74.6364C40.0662 74.6364 38.109 72.6792 38.109 70.2727C38.109 67.8662 40.0662 65.9091 42.4727 65.9091C44.8785 65.9091 46.8363 67.8662 46.8363 70.2727C46.8363 72.6793 44.8792 74.6364 42.4727 74.6364Z" fill="#219653"/>
<path d="M78.1681 36.5653C77.7971 35.8285 77.043 35.3638 76.2182 35.3638H64.7273V39.7274H74.8727L80.8138 51.5441L84.7135 49.5833L78.1681 36.5653Z" fill="#219653"/>
<path d="M65.7454 68.1636H49.2363V72.5272H65.7454V68.1636Z" fill="#219653"/>
<path d="M35.9272 68.1636H28.3636C27.1585 68.1636 26.1819 69.1403 26.1819 70.3453C26.1819 71.5505 27.1586 72.5271 28.3636 72.5271H35.9273C37.1325 72.5271 38.1091 71.5503 38.1091 70.3453C38.1091 69.1402 37.1323 68.1636 35.9272 68.1636Z" fill="#219653"/>
<path d="M88.7782 54.8254L84.4866 49.2981C84.0743 48.7657 83.4379 48.4545 82.7637 48.4545H66.9091V33.1818C66.9091 31.9766 65.9323 31 64.7273 31H28.3636C27.1585 31 26.1819 31.9767 26.1819 33.1818C26.1819 34.3868 27.1586 35.3635 28.3636 35.3635H62.5454V50.6362C62.5454 51.8414 63.5222 52.818 64.7272 52.818H81.6952L84.8727 56.911V68.1634H78.8363C77.6311 68.1634 76.6545 69.1402 76.6545 70.3452C76.6545 71.5503 77.6313 72.5269 78.8363 72.5269H87.0544C88.2596 72.5269 89.2362 71.5502 89.2363 70.3452V56.1636C89.2363 55.6792 89.0749 55.208 88.7782 54.8254Z" fill="#219653"/>
<path d="M35.7819 57.1089H25.7455C24.5403 57.1089 23.5637 58.0856 23.5637 59.2906C23.5637 60.4958 24.5405 61.4724 25.7455 61.4724H35.7818C36.9869 61.4724 37.9635 60.4957 37.9635 59.2906C37.9637 58.0856 36.9869 57.1089 35.7819 57.1089Z" fill="#219653"/>
<path d="M40.8 48.5273H22.1818C20.9767 48.5273 20 49.5041 20 50.7092C20 51.9144 20.9767 52.891 22.1818 52.891H40.8C42.0051 52.891 42.9817 51.9142 42.9817 50.7092C42.9817 49.5042 42.0051 48.5273 40.8 48.5273Z" fill="#219653"/>
<path d="M44.3637 39.9453H25.7455C24.5403 39.9453 23.5637 40.9221 23.5637 42.1271C23.5637 43.3322 24.5405 44.3088 25.7455 44.3088H44.3637C45.5688 44.3088 46.5455 43.3321 46.5455 42.1271C46.5456 40.9221 45.5688 39.9453 44.3637 39.9453Z" fill="#219653"/>
</svg>
