<svg width="48" height="42" viewBox="0 0 48 42" fill="none" xmlns="http://www.w3.org/2000/svg">
<path d="M27.6968 41.65L47.7081 21.6488C47.8961 21.4608 48 21.2069 48 20.941C48 20.6751 47.894 20.4212 47.7061 20.2333L27.6968 0.291924C27.4109 0.00598906 26.9811 -0.0779828 26.6072 0.0759967C26.2333 0.231944 25.9913 0.595853 25.9913 0.999686V11.996L0.999695 11.996C0.44788 11.996 0 12.4438 0 12.9957V28.9903C0 29.5421 0.44788 29.99 0.999695 29.99L25.9914 29.99V40.9443C25.9914 41.3481 26.2354 41.712 26.6092 41.868C26.9831 42.0239 27.4109 41.9359 27.6968 41.65Z" fill="#219653"/>
</svg>
