<svg width="110" height="110" viewBox="0 0 110 110" fill="none" xmlns="http://www.w3.org/2000/svg">
<circle cx="55" cy="55" r="54" fill="white" stroke="#844428" stroke-width="2"/>
<path d="M72.8001 48.6699C72.71 48.6699 72.6216 48.6775 72.5355 48.6923V48.2762C72.5355 38.7501 64.7854 31 55.2592 31C45.7329 31 37.983 38.7501 37.983 48.2762V48.6923C37.897 48.6775 37.8086 48.6699 37.7185 48.6699C35.1168 48.6699 33 50.7866 33 53.3884V61.1107C33 63.3336 34.5458 65.2012 36.6184 65.6983L36.5648 68.0417C36.5474 68.7989 37.0762 69.4593 37.8188 69.6083L43.7812 70.8039C45.4476 75.5709 49.9895 79 55.3178 79C60.0001 79 64.0749 76.3519 66.1253 72.4751H66.3162C70.0103 72.4751 73.0207 69.4996 73.081 65.8197C75.4906 65.6737 77.4065 63.668 77.4065 61.2225V53.2765C77.4067 50.7364 75.34 48.6699 72.8001 48.6699ZM37.983 62.7064H37.7185C36.8386 62.7064 36.1227 61.9907 36.1227 61.1107V53.3884C36.1227 52.5086 36.8385 51.7926 37.7185 51.7926C37.8087 51.7926 37.8971 51.785 37.983 51.7702V62.7064ZM55.2592 34.1227C61.3928 34.1227 66.6267 38.0448 68.5869 43.5124C67.8253 42.6813 66.9733 41.9265 66.0359 41.2562C63.0288 39.1059 59.2246 37.9217 55.3245 37.9218C51.4242 37.9218 47.6202 39.1063 44.6133 41.2568C43.5862 41.9913 42.6619 42.8279 41.8463 43.7546C43.7372 38.1607 49.0355 34.1227 55.2592 34.1227ZM64.4128 66.7824C64.4128 67.6746 64.283 68.537 64.0425 69.3524H57.037C56.1747 69.3524 55.4757 70.0515 55.4757 70.9137C55.4757 71.7759 56.1748 72.475 57.037 72.475H62.4053C60.7368 74.5481 58.1798 75.8773 55.3178 75.8773C50.3029 75.8773 46.223 71.7974 46.223 66.7824V56.8448C47.3844 56.1136 49.4844 54.6404 50.9229 52.7582C53.055 54.4803 57.4416 57.1537 64.4127 57.5018V66.7824H64.4128ZM69.9612 65.7076C69.9613 67.3797 68.829 68.7916 67.2911 69.2191C67.4513 68.4314 67.5354 67.6166 67.5354 66.7824V56.0117C67.5354 55.5929 67.3705 55.2124 67.102 54.9321C66.8163 54.6158 66.4028 54.417 65.9431 54.417C60.8775 54.417 57.2971 53.0266 55.1855 51.86C52.8951 50.5948 51.7822 49.3096 51.7767 49.3033C51.4268 48.8848 50.8837 48.6794 50.3443 48.7609C49.805 48.8429 49.3474 49.2005 49.1375 49.7041C48.2595 51.8113 45.0609 53.9489 43.904 54.5941C43.4079 54.8694 43.1003 55.392 43.1003 55.9592V66.7825C43.1003 67.0188 43.1078 67.2536 43.1211 67.4867L39.7165 66.8041L39.7391 65.8158C40.5093 65.7197 41.1056 65.0642 41.1056 64.2679V52.0407C41.1095 52.0255 41.1143 52.0108 41.1178 51.9953C42.9098 43.9128 49.8909 41.0447 55.3246 41.0445C60.6454 41.0444 67.4491 43.7947 69.4127 51.4976V64.2679C69.4127 64.7529 69.6338 65.1863 69.9808 65.4726C69.9691 65.5494 69.9612 65.6275 69.9612 65.7076ZM72.8001 62.7065H72.5355V52.1514C72.5755 52.0322 72.6028 51.908 72.6129 51.7802C72.6744 51.7876 72.7366 51.7926 72.8 51.7926C73.6182 51.7926 74.2838 52.4583 74.2838 53.2766V61.2226H74.2839C74.2839 62.0408 73.6182 62.7065 72.8001 62.7065Z" fill="#219653"/>
<path d="M52.3411 59.7874H49.8431C48.9807 59.7874 48.2817 60.4864 48.2817 61.3487C48.2817 62.2109 48.9808 62.91 49.8431 62.91H52.3411C53.2034 62.91 53.9024 62.2109 53.9024 61.3487C53.9024 60.4864 53.2034 59.7874 52.3411 59.7874Z" fill="#219653"/>
<path d="M60.5638 59.7874H58.0657C57.2034 59.7874 56.5044 60.4864 56.5044 61.3487C56.5044 62.2109 57.2035 62.91 58.0657 62.91H60.5638C61.4261 62.91 62.1251 62.2109 62.1251 61.3487C62.1251 60.4864 61.426 59.7874 60.5638 59.7874Z" fill="#219653"/>
</svg>
