<svg width="20" height="10" viewBox="0 0 20 10" fill="none" xmlns="http://www.w3.org/2000/svg">
<path d="M0.229151 5.39676C0.229383 5.397 0.22958 5.39727 0.229853 5.3975L4.31204 9.46C4.61786 9.76434 5.11251 9.76321 5.41692 9.45735C5.7213 9.15153 5.72012 8.65688 5.4143 8.3525L2.67352 5.625L19.2188 5.625C19.6502 5.625 20 5.27524 20 4.84375C20 4.41227 19.6502 4.06251 19.2188 4.06251L2.67356 4.06251L5.41427 1.33501C5.72009 1.03063 5.72126 0.535984 5.41688 0.230164C5.11247 -0.0757341 4.61778 -0.0767889 4.312 0.227508L0.229815 4.29001C0.22958 4.29024 0.229383 4.29051 0.229111 4.29075C-0.0768661 4.59614 -0.0758896 5.09239 0.229151 5.39676Z" fill="#219653"/>
</svg>
