<svg width="20" height="10" viewBox="0 0 20 10" fill="none" xmlns="http://www.w3.org/2000/svg">
<path d="M19.7708 4.29074C19.7706 4.2905 19.7704 4.29023 19.7701 4.29L15.688 0.227497C15.3821 -0.0768384 14.8875 -0.0757059 14.5831 0.230153C14.2787 0.535973 14.2799 1.03062 14.5857 1.335L17.3265 4.0625H0.78125C0.349765 4.0625 0 4.41226 0 4.84375C0 5.27523 0.349765 5.62499 0.78125 5.62499H17.3264L14.5857 8.35249C14.2799 8.65687 14.2787 9.15152 14.5831 9.45734C14.8875 9.76323 15.3822 9.76429 15.688 9.45999L19.7702 5.39749C19.7704 5.39726 19.7706 5.39699 19.7709 5.39675C20.0769 5.09136 20.0759 4.59511 19.7708 4.29074Z" fill="#219653"/>
</svg>
