<svg width="29" height="20" viewBox="0 0 29 20" fill="none" xmlns="http://www.w3.org/2000/svg">
<path d="M27.3333 8.88892H1.11111C0.497445 8.88892 0 9.38636 0 10C0 10.6137 0.497445 11.1111 1.11111 11.1111H27.3333C27.947 11.1111 28.4444 10.6137 28.4444 10C28.4444 9.38636 27.947 8.88892 27.3333 8.88892Z" fill="black"/>
<path d="M27.3333 0H1.11111C0.497445 0 0 0.497445 0 1.11111C0 1.72478 0.497445 2.22222 1.11111 2.22222H27.3333C27.947 2.22222 28.4444 1.72478 28.4444 1.11111C28.4444 0.497445 27.947 0 27.3333 0Z" fill="black"/>
<path d="M27.3333 17.7778H1.11111C0.497445 17.7778 0 18.2753 0 18.8889C0 19.5026 0.497445 20.0001 1.11111 20.0001H27.3333C27.947 20.0001 28.4444 19.5026 28.4444 18.8889C28.4444 18.2753 27.947 17.7778 27.3333 17.7778Z" fill="black"/>
</svg>
