<svg width="133" height="133" viewBox="0 0 133 133" fill="none" xmlns="http://www.w3.org/2000/svg">
<circle cx="67" cy="66" r="40" fill="#4F4F4F"/>
<path d="M106.927 13.6992C95.7763 5.16187 82.2094 0.373729 68.1704 0.0209818C54.1314 -0.331766 40.3411 3.76899 28.776 11.7355L38.207 25.4266C46.8808 19.4517 57.2235 16.3762 67.7528 16.6407C78.282 16.9053 88.4572 20.4964 96.8201 26.8994L106.927 13.6992Z" fill="#844428"/>
<path d="M29.0552 11.5442C17.803 19.211 9.17548 30.147 4.3382 42.8746C-0.499076 55.6021 -1.31293 69.5078 2.00662 82.7128L18.13 78.6596C15.6403 68.7559 16.2507 58.3266 19.8787 48.7809C23.5066 39.2353 29.9773 31.0333 38.4164 25.2832L29.0552 11.5442Z" fill="#828282"/>
<path d="M129.39 88.1138C124.707 101.739 115.725 113.475 103.797 121.556C91.869 129.637 77.639 133.625 63.2485 132.92C48.8581 132.216 35.0857 126.857 24.0037 117.65C12.9217 108.443 5.1297 95.8857 1.80012 81.868L17.9751 78.026C20.4723 88.5392 26.3163 97.9571 34.6278 104.862C42.9393 111.768 53.2686 115.787 64.0614 116.315C74.8542 116.844 85.5267 113.853 94.4729 107.792C103.419 101.731 110.155 92.9295 113.667 82.7104L129.39 88.1138Z" fill="#333333"/>
<path d="M106.75 13.5642C117.929 22.0642 126.13 33.8849 130.178 47.3323C134.226 60.7797 133.912 75.1634 129.283 88.4219L113.587 82.9414C117.059 72.9976 117.294 62.2098 114.258 52.1242C111.222 42.0387 105.072 33.1731 96.6874 26.7982L106.75 13.5642Z" fill="#F2C94C"/>
</svg>
