<svg width="133" height="133" viewBox="0 0 133 133" fill="none" xmlns="http://www.w3.org/2000/svg">
<circle cx="67" cy="66" r="40" fill="#4F4F4F"/>
<path d="M106.927 13.6992C95.7763 5.16187 82.2094 0.373729 68.1704 0.0209818C54.1314 -0.331766 40.3411 3.76899 28.776 11.7355L38.207 25.4266C46.8808 19.4517 57.2235 16.3762 67.7528 16.6407C78.282 16.9053 88.4572 20.4964 96.8201 26.8994L106.927 13.6992Z" fill="#844428"/>
<path d="M29.0552 11.5442C17.4497 19.4518 8.64542 30.8305 3.90431 44.0494C-0.83679 57.2683 -1.27136 71.6488 2.66289 85.1299C6.59713 98.611 14.6982 110.5 25.8051 119.094C36.9119 127.688 50.4543 132.545 64.4913 132.97L64.9935 116.352C54.4657 116.034 44.3089 112.391 35.9788 105.946C27.6487 99.5004 21.5728 90.5832 18.6222 80.4724C15.6715 70.3616 15.9974 59.5762 19.5532 49.662C23.1091 39.7479 29.7122 31.2139 38.4164 25.2832L29.0552 11.5442Z" fill="#828282"/>
<path d="M129.39 88.1138C124.744 101.629 115.869 113.289 104.078 121.365C92.2868 129.441 78.2077 133.503 63.9269 132.95L64.5702 116.338C75.2808 116.752 85.8401 113.706 94.6834 107.649C103.527 101.592 110.183 92.8471 113.667 82.7104L129.39 88.1138Z" fill="#333333"/>
<path d="M106.75 13.5642C117.929 22.0642 126.13 33.8849 130.178 47.3323C134.226 60.7797 133.912 75.1634 129.283 88.4219L113.587 82.9414C117.059 72.9976 117.294 62.2098 114.258 52.1242C111.222 42.0387 105.072 33.1731 96.6874 26.7982L106.75 13.5642Z" fill="#F2C94C"/>
</svg>
