<svg width="133" height="133" viewBox="0 0 133 133" fill="none" xmlns="http://www.w3.org/2000/svg">
<circle cx="67" cy="66" r="40" fill="black" fill-opacity="0.8"/>
<path d="M106.927 13.6992C98.3391 7.12409 88.2774 2.74285 77.6138 0.935278C66.9503 -0.872294 56.0068 -0.0516391 45.7321 3.32609C35.4573 6.70383 26.1616 12.5367 18.6506 20.319C11.1396 28.1013 5.64022 37.5982 2.62911 47.9862L18.5968 52.6147C20.8552 44.8236 24.9797 37.701 30.613 31.8642C36.2462 26.0275 43.218 21.6529 50.924 19.1196C58.6301 16.5863 66.8377 15.9708 74.8354 17.3265C82.833 18.6821 90.3793 21.9681 96.8201 26.8994L106.927 13.6992Z" fill="#844428"/>
<path d="M129.745 45.9504C132.988 55.9311 133.823 66.5377 132.181 76.9029C130.54 87.2681 126.468 97.0976 120.3 105.588C114.131 114.078 106.041 120.988 96.6904 125.752C87.3398 130.516 76.9944 133 66.5001 133C56.0057 133 45.6603 130.516 36.3097 125.752C26.9591 120.988 18.8689 114.078 12.7004 105.588C6.53196 97.0977 2.46044 87.2682 0.818741 76.903C-0.822958 66.5378 0.0117793 55.9312 3.25471 45.9505L19.066 51.0879C16.6338 58.5734 16.0078 66.5284 17.2391 74.3022C18.4703 82.0761 21.524 89.4482 26.1503 95.8158C30.7767 102.183 36.8443 107.366 43.8573 110.939C50.8702 114.512 58.6293 116.375 66.5 116.375C74.3708 116.375 82.1299 114.512 89.1428 110.939C96.1557 107.366 102.223 102.183 106.85 95.8158C111.476 89.4482 114.53 82.076 115.761 74.3022C116.992 66.5283 116.366 58.5733 113.934 51.0878L129.745 45.9504Z" fill="#333333"/>
<path d="M106.75 13.5642C117.929 22.0641 126.13 33.8849 130.178 47.3323L114.258 52.1242C111.222 42.0387 105.072 33.1731 96.6874 26.7982L106.75 13.5642Z" fill="#F2C94C"/>
</svg>
