<svg width="19" height="19" viewBox="0 0 19 19" fill="none" xmlns="http://www.w3.org/2000/svg">
<path d="M7.67595 8.42162C7.7282 8.11287 7.8232 7.83737 7.96095 7.59512C8.0987 7.35287 8.2887 7.15812 8.52145 7.01087C8.7447 6.87312 9.02495 6.79712 9.3717 6.79237C9.5997 6.79712 9.8087 6.83512 9.9892 6.91587C10.184 7.00137 10.3455 7.11537 10.4832 7.25787C10.621 7.40037 10.7255 7.57137 10.8015 7.76137C10.8775 7.95137 10.9202 8.15562 10.9297 8.36937H12.6302C12.616 7.92287 12.5257 7.51437 12.369 7.14387C12.2122 6.77337 11.9842 6.45512 11.6992 6.18437C11.4142 5.91362 11.0722 5.70937 10.6732 5.56212C10.2742 5.41487 9.83245 5.33887 9.34795 5.33887C8.73045 5.33887 8.1937 5.44337 7.7377 5.65712C7.2817 5.87087 6.9017 6.16062 6.5977 6.53112C6.2937 6.90162 6.0657 7.32912 5.91845 7.81837C5.7712 8.30762 5.69995 8.82537 5.69995 9.37162V9.63287C5.69995 10.1839 5.77595 10.7016 5.9232 11.1909C6.07045 11.6801 6.29845 12.1076 6.60245 12.4734C6.90645 12.8391 7.28645 13.1289 7.7472 13.3426C8.20795 13.5564 8.7447 13.6609 9.3622 13.6609C9.8087 13.6609 10.2267 13.5896 10.6162 13.4424C11.0057 13.2951 11.3477 13.0956 11.6422 12.8391C11.9367 12.5826 12.1742 12.2881 12.3452 11.9461C12.5162 11.6041 12.616 11.2431 12.6302 10.8536H10.9297C10.9202 11.0531 10.8727 11.2336 10.7872 11.4046C10.7017 11.5756 10.5877 11.7181 10.4452 11.8369C10.3027 11.9556 10.1365 12.0506 9.94645 12.1171C9.76595 12.1789 9.57595 12.2121 9.3717 12.2121C9.0297 12.2026 8.74945 12.1314 8.52145 11.9889C8.28395 11.8369 8.09395 11.6421 7.9562 11.3999C7.81845 11.1576 7.72345 10.8821 7.6712 10.5686C7.61895 10.2551 7.59995 9.95112 7.59995 9.63287V9.37162C7.59995 9.04862 7.6237 8.73037 7.67595 8.42162Z" fill="#219653"/>
<path d="M9.5 0C4.25125 0 0 4.25125 0 9.5C0 14.7487 4.25125 19 9.5 19C14.7487 19 19 14.7487 19 9.5C19 4.25125 14.7487 0 9.5 0ZM9.5 17.1C5.3105 17.1 1.9 13.6895 1.9 9.5C1.9 5.3105 5.3105 1.9 9.5 1.9C13.6895 1.9 17.1 5.3105 17.1 9.5C17.1 13.6895 13.6895 17.1 9.5 17.1Z" fill="#219653"/>
</svg>
