<svg width="48" height="48" viewBox="0 0 48 48" fill="none" xmlns="http://www.w3.org/2000/svg">
<path d="M37.5 35.25H39V39H37.5V35.25Z" fill="#219653"/>
<path d="M10.5 35.25H12V39H10.5V35.25Z" fill="#219653"/>
<path d="M6 0H7.5V13.125H6V0Z" fill="#219653"/>
<path d="M12 0H13.5V14.625H12V0Z" fill="#219653"/>
<path d="M18 0H19.5V14.625H18V0Z" fill="#219653"/>
<path d="M24 0H25.5V12.75H24V0Z" fill="#219653"/>
<path d="M30 0H31.5V12.375H30V0Z" fill="#219653"/>
<path d="M36 0H37.5V5.625H36V0Z" fill="#219653"/>
<path d="M42 0H43.5V7.5H42V0Z" fill="#219653"/>
<path d="M46.5 0V6.75H39.6434C39.2673 5.28882 37.8629 4.33557 36.3662 4.52637C34.8691 4.7168 33.7482 5.99121 33.75 7.5C33.7533 7.98962 33.8782 8.47083 34.1129 8.90039L27.4622 13.7369C26.933 12.5881 25.7373 11.8975 24.4779 12.0128C23.2185 12.1282 22.1682 13.0243 21.8566 14.25H9.64343C9.36108 13.1191 8.44739 12.2552 7.30261 12.0366C6.15747 11.818 4.98999 12.2845 4.31067 13.2319C3.63171 14.1793 3.5647 15.4347 4.13928 16.4491L1.5 18.6489V0H0V21.8511L5.17493 17.5411C5.98096 18.0491 6.98181 18.1399 7.86621 17.7854C8.75061 17.4309 9.41125 16.674 9.64343 15.75H21.8566C22.2103 17.1339 23.4946 18.0732 24.921 17.9908C26.347 17.9084 27.5145 16.8274 27.7064 15.4116L35.1262 10.0162C35.9323 10.5425 36.943 10.6469 37.8398 10.2964C38.7363 9.94556 39.4083 9.18347 39.6434 8.25H48V0H46.5ZM6.75 16.5C5.92163 16.5 5.25 15.8284 5.25 15C5.25 14.1716 5.92163 13.5 6.75 13.5C7.57837 13.5 8.25 14.1716 8.25 15C8.25 15.8284 7.57837 16.5 6.75 16.5ZM24.75 16.5C23.9216 16.5 23.25 15.8284 23.25 15C23.25 14.1716 23.9216 13.5 24.75 13.5C25.5784 13.5 26.25 14.1716 26.25 15C26.25 15.8284 25.5784 16.5 24.75 16.5ZM36.75 9C35.9216 9 35.25 8.32837 35.25 7.5C35.25 6.67163 35.9216 6 36.75 6C37.5784 6 38.25 6.67163 38.25 7.5C38.25 8.32837 37.5784 9 36.75 9Z" fill="#219653"/>
<path d="M19.5 37.5H21V48H19.5V37.5Z" fill="#219653"/>
<path d="M28.5 37.5H30V48H28.5V37.5Z" fill="#219653"/>
<path d="M45.546 31.9882L41.25 30.9152V28.6688L42 28.0972V24H43.7106L43.4777 23.0684C42.9558 20.97 41.0702 19.4974 38.9077 19.5H36.75C35.5074 19.5 34.5 20.5074 34.5 21.75V28.0972L35.25 28.6688V30.9152L31.5 31.8519V26.25C31.5 22.522 28.478 19.5 24.75 19.5C21.022 19.5 18 22.522 18 26.25V31.8519L14.25 30.9152V28.6688L15 28.0972V21.75C15 20.5074 13.9926 19.5 12.75 19.5H10.5923C8.42981 19.4974 6.54419 20.97 6.02234 23.0684L5.78943 24H7.5V28.0972L8.25 28.6688V30.9152L3.95325 31.9882C2.95203 32.239 2.24963 33.1392 2.25 34.1715V48H3.75V39.75H5.25V48H6.75V36H5.25V38.25H3.75V34.1715C3.74963 33.8273 3.98364 33.527 4.31763 33.4431L8.48547 32.4001C8.8396 33.0751 9.64563 33.75 11.25 33.75C12.8544 33.75 13.6604 33.0751 14.0145 32.4001L18 33.3973V33.5361C17.1035 33.8547 16.5033 34.7014 16.5 35.6528V48H18V35.6528C18 35.276 18.2794 34.9574 18.6533 34.9087L21.0802 34.5938C21.338 35.9315 22.2059 37.0723 23.4269 37.6769L24 37.9636V48H25.5V37.9636L26.0731 37.6769C27.2941 37.0723 28.162 35.9315 28.4198 34.5938L30.8474 34.9094C31.2206 34.9585 31.4996 35.2764 31.5 35.6528V48H33V35.6528C32.9967 34.7014 32.3965 33.8547 31.5 33.5361V33.3973L35.4855 32.4001C35.8396 33.0751 36.6456 33.75 38.25 33.75C39.8544 33.75 40.6604 33.0751 41.0145 32.4001L45.1816 33.4417C45.5156 33.5251 45.7504 33.8254 45.75 34.17V38.25H44.25V36H42.75V48H44.25V39.75H45.75V48H47.25V34.1715C47.2504 33.1388 46.5476 32.2387 45.546 31.9882ZM12 24V22.5H7.875C8.46204 21.5654 9.48926 20.9985 10.593 21H12.75C13.1642 21 13.5 21.3358 13.5 21.75V27.3549L12 28.5H10.5073L9 27.3549V24H12ZM11.25 32.25C9.86938 32.25 9.75842 31.6073 9.75 31.5V29.8118L9.99683 30H12.5032L12.75 29.8118V31.4835C12.7394 31.6201 12.6189 32.25 11.25 32.25ZM25.4019 36.3351L24.75 36.6614L24.0981 36.3351C23.3079 35.9418 22.7432 35.2061 22.5667 34.3411C23.3053 34.0514 23.8363 33.3933 23.9634 32.61L24.75 32.9769L25.5366 32.61C25.6637 33.3933 26.1947 34.0514 26.9333 34.3411C26.7568 35.2061 26.1921 35.9418 25.4019 36.3351ZM25.7018 30.8782L24.75 31.3217L23.799 30.8782C23.0079 30.5068 22.5022 29.7122 22.5 28.8384V26.562L27 27.687V28.8384C26.9978 29.7122 26.4921 30.5068 25.701 30.8782H25.7018ZM27.6621 32.9821C27.2875 32.9418 27.0029 32.6268 27 32.25V31.8263C27.9401 31.1199 28.4952 30.0139 28.5 28.8384V26.5133L21 24.6383V28.8384C21.0048 30.0139 21.5599 31.1199 22.5 31.8263V32.25C22.4967 32.6257 22.2133 32.9399 21.8401 32.9821L19.5 33.2856V26.25C19.5 23.3503 21.8503 21 24.75 21C27.6497 21 30 23.3503 30 26.25V33.2864L27.6621 32.9821ZM36 21.75C36 21.3358 36.3358 21 36.75 21H38.9077C40.0115 20.9989 41.038 21.5654 41.625 22.5H37.5V24H40.5V27.3549L39 28.5H37.5073L36 27.3549V21.75ZM38.25 32.25C36.8694 32.25 36.7584 31.6073 36.75 31.5V29.8118L36.9968 30H39.5032L39.75 29.8118V31.4835C39.7394 31.6201 39.6189 32.25 38.25 32.25Z" fill="#219653"/>
</svg>
