<svg width="110" height="110" viewBox="0 0 110 110" fill="none" xmlns="http://www.w3.org/2000/svg">
<circle cx="55" cy="55" r="54" fill="white" stroke="#844428" stroke-width="2"/>
<path d="M71.8757 45.9055C71.8781 45.9032 59.0343 33.0594 59.0343 33.0594C57.7589 31.7885 56.0011 31 54.0625 31H37V79H73.9375V50.875C73.9375 48.9365 73.149 47.1787 71.8757 45.9055ZM61.0938 39.0963L65.8413 43.8438H61.0938V39.0963ZM71.125 76.1875H39.8125V33.8125H54.0625C56.3887 33.8125 58.2812 35.705 58.2812 38.0312V46.6562H66.9062C69.2325 46.6562 71.125 48.5488 71.125 50.875V76.1875Z" fill="#219653"/>
<path d="M44.0312 69.1562H60.5781V71.9688H44.0312V69.1562Z" fill="#219653"/>
<path d="M44.0312 63.5312H66.9062V66.3438H44.0312V63.5312Z" fill="#219653"/>
<path d="M44.0312 57.9062H66.9062V60.7188H44.0312V57.9062Z" fill="#219653"/>
<path d="M44.0312 52.2812H66.9062V55.0938H44.0312V52.2812Z" fill="#219653"/>
</svg>
