<svg width="58" height="20" viewBox="0 0 58 20" fill="none" xmlns="http://www.w3.org/2000/svg">
<path d="M1.16331 19.9998H54.2233C54.5518 19.9998 54.8144 19.7316 54.8075 19.4033C54.759 17.0647 54.772 8.49188 57.428 5.25374C57.5023 5.16318 57.4107 5.0329 57.3002 5.07173C56.0351 5.51599 52.2638 7.04484 51.3252 9.76083C51.2878 9.869 51.1334 9.86351 51.1038 9.75297L49.6402 4.29732C49.6123 4.1934 49.4704 4.17971 49.4232 4.27644L47.7878 7.62781C47.749 7.70748 47.6388 7.71612 47.5879 7.64352L44.4687 3.18783C44.4101 3.10389 44.2793 3.13138 44.2593 3.23182L42.8121 10.5045C42.7878 10.6262 42.6153 10.6305 42.5852 10.5101L39.9734 0.0880582C39.9444 -0.0278619 39.7804 -0.0298829 39.7485 0.0852518L37.5515 7.99419C37.5223 8.09923 37.3775 8.11 37.3331 8.01047L34.7943 2.31927C34.7503 2.22074 34.6075 2.22994 34.5766 2.3333L32.5405 9.14262C32.5065 9.25652 32.3437 9.25203 32.316 9.13645L31.1162 4.13629C31.0899 4.02699 30.9392 4.01476 30.8958 4.11844L27.572 12.0443C27.5322 12.1393 27.3977 12.1395 27.3576 12.0447L22.9097 1.5397C22.8582 1.41794 22.6758 1.46204 22.6866 1.59379C22.8532 3.61975 23.0943 9.19009 21.0263 11.7422C20.9686 11.8134 20.856 11.7961 20.825 11.71L18.6388 5.65873C18.6004 5.55258 18.4485 5.55774 18.4175 5.66625L16.5963 12.0366C16.5679 12.1358 16.4345 12.1524 16.3835 12.0627C15.7283 10.9067 13.0148 5.70508 14.3684 1.0318C14.3684 1.0318 10.8206 5.69184 10.6998 9.12489C10.6954 9.25136 10.5199 9.27897 10.4752 9.16058L9.00638 5.26609C8.96677 5.16094 8.81584 5.16756 8.78554 5.27574L6.99759 11.6526C6.96313 11.7755 6.78392 11.7615 6.77001 11.6346C6.57385 9.84836 5.54763 4.83158 0.180627 1.21752C0.0895068 1.15614 -0.0277599 1.24546 0.00590517 1.35005C0.525694 2.968 2.68049 10.5453 0.596167 19.2794C0.508301 19.6468 0.785589 19.9998 1.16331 19.9998Z" fill="#219653"/>
<path d="M54.8071 19.4039C54.8141 19.7311 54.5511 20 54.2239 20H1.16318C0.78568 20 0.508728 19.6471 0.59637 19.28C0.832475 18.2913 1.01359 17.3165 1.14915 16.364C1.15386 16.3652 1.15846 16.3652 1.16318 16.3652H54.2239C54.5511 16.3652 54.7761 16.3477 54.7761 16.3477C54.7762 17.1607 54.7851 18.3239 54.8071 19.4039Z" fill="#844428"/>
<path d="M10.8378 14.648C11.3894 14.648 11.8366 14.2008 11.8366 13.6492C11.8366 13.0977 11.3894 12.6505 10.8378 12.6505C10.2863 12.6505 9.83911 13.0977 9.83911 13.6492C9.83911 14.2008 10.2863 14.648 10.8378 14.648Z" fill="#844428"/>
<path d="M13.6296 17.44C14.1812 17.44 14.6283 16.9928 14.6283 16.4412C14.6283 15.8897 14.1812 15.4425 13.6296 15.4425C13.078 15.4425 12.6309 15.8897 12.6309 16.4412C12.6309 16.9928 13.078 17.44 13.6296 17.44Z" fill="#844428"/>
<path d="M46.9602 13.1959C47.5117 13.1959 47.9589 12.7487 47.9589 12.1972C47.9589 11.6456 47.5117 11.1984 46.9602 11.1984C46.4086 11.1984 45.9614 11.6456 45.9614 12.1972C45.9614 12.7487 46.4086 13.1959 46.9602 13.1959Z" fill="#844428"/>
</svg>
