<svg width="58" height="20" viewBox="0 0 58 20" fill="none" xmlns="http://www.w3.org/2000/svg">
<path d="M6.27299 11.6891C6.34832 12.3763 7.29978 12.4269 7.47902 11.7876L8.95125 6.53678L10.0074 9.33702L10.0074 9.33706C10.2379 9.94813 11.175 9.83442 11.1995 9.14263L11.1995 9.14247C11.2553 7.55576 12.117 5.62352 13.0146 4.03719C13.1821 3.74111 13.3492 3.45998 13.51 3.19875C13.4231 4.90603 13.7258 6.57529 14.1426 8.00606C14.7484 10.0858 15.6103 11.7125 15.9485 12.3093L15.9488 12.3097C16.2219 12.7904 16.9285 12.6928 17.077 12.1742L17.077 12.174L18.5719 6.94515L20.3547 11.8799C20.523 12.346 21.1213 12.419 21.4147 12.0571L21.4148 12.057C22.5485 10.6579 23.0136 8.49647 23.1924 6.51565C23.2812 5.53259 23.3014 4.56739 23.289 3.71786L26.8971 12.2396L26.8972 12.2397C27.1099 12.7417 27.822 12.7409 28.0331 12.2378L28.0331 12.2377L30.9035 5.3929L31.8298 9.25305C31.9766 9.86524 32.8394 9.88961 33.0196 9.28564L34.7592 3.46791L36.8765 8.21416L36.8765 8.2143C37.1119 8.7415 37.8786 8.68483 38.0332 8.12802L39.8415 1.61842L42.1001 10.6313C42.1001 10.6314 42.1001 10.6315 42.1002 10.6316C42.2603 11.2713 43.1744 11.2453 43.3025 10.6021L43.3025 10.6021L44.5744 4.21058L47.1783 7.93026L47.1783 7.93029C47.4475 8.31475 48.0313 8.26948 48.2373 7.84684L49.4229 5.41719L50.6208 9.88243C50.778 10.4688 51.5993 10.4986 51.7978 9.92408C52.212 8.72571 53.2743 7.74182 54.4592 6.9859C55.1113 6.56986 55.7778 6.23727 56.3467 5.98684C55.9645 6.69336 55.6583 7.50582 55.4108 8.36317C55.0266 9.69436 54.7734 11.172 54.6069 12.6083C54.274 15.481 54.2832 18.2344 54.3076 19.4137C54.3086 19.462 54.2715 19.4998 54.2233 19.4998H1.16331C1.11036 19.4998 1.06939 19.4503 1.08245 19.3957L1.08251 19.3955C2.89122 11.8163 1.55613 5.10205 0.79898 2.28112C5.21543 5.70732 6.09674 10.0843 6.27299 11.6891ZM6.27299 11.6891L6.77001 11.6346M6.27299 11.6891C6.27299 11.6891 6.27299 11.6892 6.273 11.6892L6.77001 11.6346M6.77001 11.6346C6.7683 11.6191 6.76653 11.6033 6.7647 11.5873C6.75368 11.491 6.7403 11.386 6.72407 11.2729L7.18545 10.9825C7.2217 11.2064 7.24786 11.406 7.26674 11.5776M6.77001 11.6346C6.78392 11.7615 6.96313 11.7755 6.99759 11.6526L7.01 11.6083L7.01001 11.6083L7.09743 11.2965C7.1852 11.3515 7.25151 11.4452 7.26674 11.5776M7.26674 11.5776C7.26683 11.5784 7.26693 11.5792 7.26702 11.58L7.26703 11.5801C7.26694 11.5793 7.26684 11.5784 7.26674 11.5776ZM50.8526 9.59757C50.8529 9.59686 50.8531 9.59615 50.8533 9.59545C50.8531 9.59614 50.8529 9.59682 50.8526 9.59751L50.8526 9.59757ZM51.5867 9.62341L51.5863 9.62199C51.5865 9.62249 51.5866 9.623 51.5868 9.62352L51.5867 9.62341ZM47.3384 7.40852C47.3385 7.40837 47.3386 7.40821 47.3387 7.40806L47.3384 7.40852ZM21.2952 11.5401L21.2949 11.5392C21.295 11.5395 21.2951 11.5399 21.2952 11.5402L21.2952 11.5401ZM32.0614 8.9996C32.0616 8.99904 32.0618 8.99848 32.0619 8.99792L32.0615 8.99938L32.0614 8.9996ZM37.0697 7.86038C37.0698 7.86008 37.0699 7.85978 37.07 7.85948L37.0697 7.86037L37.2939 7.92265L37.0697 7.86038ZM43.0703 10.389L43.0702 10.3886L43.0703 10.389Z" stroke="black"/>
<path d="M54.3072 19.4141L54.3072 19.4147C54.3082 19.4617 54.2706 19.5 54.2239 19.5H1.16318C1.11072 19.5 1.06964 19.4508 1.0827 19.3961C1.28712 18.54 1.4509 17.6947 1.58001 16.8652H54.2239C54.2419 16.8652 54.2597 16.8651 54.2772 16.865C54.2802 17.618 54.2894 18.5428 54.3072 19.4141Z" stroke="black"/>
<path d="M11.3366 13.6492C11.3366 13.9247 11.1133 14.148 10.8378 14.148C10.5624 14.148 10.3391 13.9247 10.3391 13.6492C10.3391 13.3738 10.5624 13.1505 10.8378 13.1505C11.1133 13.1505 11.3366 13.3738 11.3366 13.6492Z" stroke="black"/>
<path d="M14.1283 16.4412C14.1283 16.7167 13.905 16.94 13.6296 16.94C13.3541 16.94 13.1309 16.7167 13.1309 16.4412C13.1309 16.1658 13.3542 15.9425 13.6296 15.9425C13.905 15.9425 14.1283 16.1658 14.1283 16.4412Z" stroke="black"/>
<path d="M47.4589 12.1972C47.4589 12.4726 47.2356 12.6959 46.9602 12.6959C46.6847 12.6959 46.4614 12.4726 46.4614 12.1972C46.4614 11.9217 46.6847 11.6984 46.9602 11.6984C47.2356 11.6984 47.4589 11.9217 47.4589 12.1972Z" stroke="black"/>
</svg>
