<svg width="22" height="32" viewBox="0 0 22 32" fill="none" xmlns="http://www.w3.org/2000/svg">
<path d="M11.0002 0C5.11868 0 0.333496 4.78519 0.333496 10.6667C0.333496 12.4323 0.774933 14.1829 1.61412 15.7357L10.4169 31.6562C10.5341 31.8685 10.7574 32 11.0002 32C11.243 32 11.4663 31.8685 11.5835 31.6562L20.3895 15.7304C21.2254 14.1829 21.6669 12.4323 21.6669 10.6666C21.6669 4.78519 16.8817 0 11.0002 0ZM11.0002 16C8.05943 16 5.66687 13.6074 5.66687 10.6667C5.66687 7.72594 8.05943 5.33337 11.0002 5.33337C13.9409 5.33337 16.3335 7.72594 16.3335 10.6667C16.3335 13.6074 13.9409 16 11.0002 16Z" fill="#EB5757"/>
</svg>
