<svg width="48" height="48" viewBox="0 0 48 48" fill="none" xmlns="http://www.w3.org/2000/svg">
<path d="M3.1999 20.8001C3.64173 20.8001 3.9999 20.4419 3.9999 20.0001C3.9999 19.5582 3.64173 19.2001 3.1999 19.2001C2.75807 19.2001 2.3999 19.5582 2.3999 20.0001C2.3999 20.4419 2.75807 20.8001 3.1999 20.8001Z" fill="#219653"/>
<path d="M4.8 19.2C5.24183 19.2 5.6 18.8418 5.6 18.4C5.6 17.9581 5.24183 17.6 4.8 17.6C4.35817 17.6 4 17.9581 4 18.4C4 18.8418 4.35817 19.2 4.8 19.2Z" fill="#219653"/>
<path d="M1.60005 19.2C2.04188 19.2 2.40005 18.8418 2.40005 18.4C2.40005 17.9581 2.04188 17.6 1.60005 17.6C1.15822 17.6 0.800049 17.9581 0.800049 18.4C0.800049 18.8418 1.15822 19.2 1.60005 19.2Z" fill="#219653"/>
<path d="M3.1999 17.6C3.64173 17.6 3.9999 17.2418 3.9999 16.8C3.9999 16.3582 3.64173 16 3.1999 16C2.75807 16 2.3999 16.3582 2.3999 16.8C2.3999 17.2418 2.75807 17.6 3.1999 17.6Z" fill="#219653"/>
<path d="M6.4001 20.8001C6.84192 20.8001 7.2001 20.4419 7.2001 20.0001C7.2001 19.5582 6.84192 19.2001 6.4001 19.2001C5.95827 19.2001 5.6001 19.5582 5.6001 20.0001C5.6001 20.4419 5.95827 20.8001 6.4001 20.8001Z" fill="#219653"/>
<path d="M7.99995 19.2C8.44178 19.2 8.79995 18.8418 8.79995 18.4C8.79995 17.9581 8.44178 17.6 7.99995 17.6C7.55812 17.6 7.19995 17.9581 7.19995 18.4C7.19995 18.8418 7.55812 19.2 7.99995 19.2Z" fill="#219653"/>
<path d="M6.4001 17.6C6.84192 17.6 7.2001 17.2418 7.2001 16.8C7.2001 16.3582 6.84192 16 6.4001 16C5.95827 16 5.6001 16.3582 5.6001 16.8C5.6001 17.2418 5.95827 17.6 6.4001 17.6Z" fill="#219653"/>
<path d="M9.60005 20.8001C10.0419 20.8001 10.4 20.4419 10.4 20.0001C10.4 19.5582 10.0419 19.2001 9.60005 19.2001C9.15822 19.2001 8.80005 19.5582 8.80005 20.0001C8.80005 20.4419 9.15822 20.8001 9.60005 20.8001Z" fill="#219653"/>
<path d="M11.1999 19.2C11.6417 19.2 11.9999 18.8418 11.9999 18.4C11.9999 17.9581 11.6417 17.6 11.1999 17.6C10.7581 17.6 10.3999 17.9581 10.3999 18.4C10.3999 18.8418 10.7581 19.2 11.1999 19.2Z" fill="#219653"/>
<path d="M9.60005 17.6C10.0419 17.6 10.4 17.2418 10.4 16.8C10.4 16.3582 10.0419 16 9.60005 16C9.15822 16 8.80005 16.3582 8.80005 16.8C8.80005 17.2418 9.15822 17.6 9.60005 17.6Z" fill="#219653"/>
<path d="M12.8 20.8001C13.2418 20.8001 13.6 20.4419 13.6 20.0001C13.6 19.5582 13.2418 19.2001 12.8 19.2001C12.3582 19.2001 12 19.5582 12 20.0001C12 20.4419 12.3582 20.8001 12.8 20.8001Z" fill="#219653"/>
<path d="M14.4001 19.2C14.8419 19.2 15.2001 18.8418 15.2001 18.4C15.2001 17.9581 14.8419 17.6 14.4001 17.6C13.9583 17.6 13.6001 17.9581 13.6001 18.4C13.6001 18.8418 13.9583 19.2 14.4001 19.2Z" fill="#219653"/>
<path d="M12.8 17.6C13.2418 17.6 13.6 17.2418 13.6 16.8C13.6 16.3582 13.2418 16 12.8 16C12.3582 16 12 16.3582 12 16.8C12 17.2418 12.3582 17.6 12.8 17.6Z" fill="#219653"/>
<path d="M16 20.8001C16.4418 20.8001 16.7999 20.4419 16.7999 20.0001C16.7999 19.5582 16.4418 19.2001 16 19.2001C15.5581 19.2001 15.2 19.5582 15.2 20.0001C15.2 20.4419 15.5581 20.8001 16 20.8001Z" fill="#219653"/>
<path d="M17.6 19.2C18.0419 19.2 18.4 18.8418 18.4 18.4C18.4 17.9581 18.0419 17.6 17.6 17.6C17.1582 17.6 16.8 17.9581 16.8 18.4C16.8 18.8418 17.1582 19.2 17.6 19.2Z" fill="#219653"/>
<path d="M16 17.6C16.4418 17.6 16.7999 17.2418 16.7999 16.8C16.7999 16.3582 16.4418 16 16 16C15.5581 16 15.2 16.3582 15.2 16.8C15.2 17.2418 15.5581 17.6 16 17.6Z" fill="#219653"/>
<path d="M19.1999 20.8001C19.6417 20.8001 19.9999 20.4419 19.9999 20.0001C19.9999 19.5582 19.6417 19.2001 19.1999 19.2001C18.7581 19.2001 18.3999 19.5582 18.3999 20.0001C18.3999 20.4419 18.7581 20.8001 19.1999 20.8001Z" fill="#219653"/>
<path d="M20.8 19.2C21.2418 19.2 21.6 18.8418 21.6 18.4C21.6 17.9581 21.2418 17.6 20.8 17.6C20.3582 17.6 20 17.9581 20 18.4C20 18.8418 20.3582 19.2 20.8 19.2Z" fill="#219653"/>
<path d="M19.1999 17.6C19.6417 17.6 19.9999 17.2418 19.9999 16.8C19.9999 16.3582 19.6417 16 19.1999 16C18.7581 16 18.3999 16.3582 18.3999 16.8C18.3999 17.2418 18.7581 17.6 19.1999 17.6Z" fill="#219653"/>
<path d="M22.4001 20.8001C22.8419 20.8001 23.2001 20.4419 23.2001 20.0001C23.2001 19.5582 22.8419 19.2001 22.4001 19.2001C21.9583 19.2001 21.6001 19.5582 21.6001 20.0001C21.6001 20.4419 21.9583 20.8001 22.4001 20.8001Z" fill="#219653"/>
<path d="M24 19.2C24.4418 19.2 24.7999 18.8418 24.7999 18.4C24.7999 17.9581 24.4418 17.6 24 17.6C23.5581 17.6 23.2 17.9581 23.2 18.4C23.2 18.8418 23.5581 19.2 24 19.2Z" fill="#219653"/>
<path d="M22.4001 17.6C22.8419 17.6 23.2001 17.2418 23.2001 16.8C23.2001 16.3582 22.8419 16 22.4001 16C21.9583 16 21.6001 16.3582 21.6001 16.8C21.6001 17.2418 21.9583 17.6 22.4001 17.6Z" fill="#219653"/>
<path d="M25.6 20.8001C26.0419 20.8001 26.4 20.4419 26.4 20.0001C26.4 19.5582 26.0419 19.2001 25.6 19.2001C25.1582 19.2001 24.8 19.5582 24.8 20.0001C24.8 20.4419 25.1582 20.8001 25.6 20.8001Z" fill="#219653"/>
<path d="M27.1999 19.2C27.6417 19.2 27.9999 18.8418 27.9999 18.4C27.9999 17.9581 27.6417 17.6 27.1999 17.6C26.7581 17.6 26.3999 17.9581 26.3999 18.4C26.3999 18.8418 26.7581 19.2 27.1999 19.2Z" fill="#219653"/>
<path d="M25.6 17.6C26.0419 17.6 26.4 17.2418 26.4 16.8C26.4 16.3582 26.0419 16 25.6 16C25.1582 16 24.8 16.3582 24.8 16.8C24.8 17.2418 25.1582 17.6 25.6 17.6Z" fill="#219653"/>
<path d="M28.8 20.8001C29.2418 20.8001 29.6 20.4419 29.6 20.0001C29.6 19.5582 29.2418 19.2001 28.8 19.2001C28.3582 19.2001 28 19.5582 28 20.0001C28 20.4419 28.3582 20.8001 28.8 20.8001Z" fill="#219653"/>
<path d="M30.3999 19.2C30.8417 19.2 31.1999 18.8418 31.1999 18.4C31.1999 17.9581 30.8417 17.6 30.3999 17.6C29.958 17.6 29.5999 17.9581 29.5999 18.4C29.5999 18.8418 29.958 19.2 30.3999 19.2Z" fill="#219653"/>
<path d="M28.8 17.6C29.2418 17.6 29.6 17.2418 29.6 16.8C29.6 16.3582 29.2418 16 28.8 16C28.3582 16 28 16.3582 28 16.8C28 17.2418 28.3582 17.6 28.8 17.6Z" fill="#219653"/>
<path d="M32 20.8001C32.4418 20.8001 32.7999 20.4419 32.7999 20.0001C32.7999 19.5582 32.4418 19.2001 32 19.2001C31.5581 19.2001 31.2 19.5582 31.2 20.0001C31.2 20.4419 31.5581 20.8001 32 20.8001Z" fill="#219653"/>
<path d="M33.6 19.2C34.0419 19.2 34.4 18.8418 34.4 18.4C34.4 17.9581 34.0419 17.6 33.6 17.6C33.1582 17.6 32.8 17.9581 32.8 18.4C32.8 18.8418 33.1582 19.2 33.6 19.2Z" fill="#219653"/>
<path d="M32 17.6C32.4418 17.6 32.7999 17.2418 32.7999 16.8C32.7999 16.3582 32.4418 16 32 16C31.5581 16 31.2 16.3582 31.2 16.8C31.2 17.2418 31.5581 17.6 32 17.6Z" fill="#219653"/>
<path d="M35.1999 20.8001C35.6417 20.8001 35.9999 20.4419 35.9999 20.0001C35.9999 19.5582 35.6417 19.2001 35.1999 19.2001C34.7581 19.2001 34.3999 19.5582 34.3999 20.0001C34.3999 20.4419 34.7581 20.8001 35.1999 20.8001Z" fill="#219653"/>
<path d="M36.8 19.2C37.2418 19.2 37.6 18.8418 37.6 18.4C37.6 17.9581 37.2418 17.6 36.8 17.6C36.3582 17.6 36 17.9581 36 18.4C36 18.8418 36.3582 19.2 36.8 19.2Z" fill="#219653"/>
<path d="M35.1999 17.6C35.6417 17.6 35.9999 17.2418 35.9999 16.8C35.9999 16.3582 35.6417 16 35.1999 16C34.7581 16 34.3999 16.3582 34.3999 16.8C34.3999 17.2418 34.7581 17.6 35.1999 17.6Z" fill="#219653"/>
<path d="M38.3999 20.8001C38.8417 20.8001 39.1999 20.4419 39.1999 20.0001C39.1999 19.5582 38.8417 19.2001 38.3999 19.2001C37.958 19.2001 37.5999 19.5582 37.5999 20.0001C37.5999 20.4419 37.958 20.8001 38.3999 20.8001Z" fill="#219653"/>
<path d="M40 19.2C40.4418 19.2 40.7999 18.8418 40.7999 18.4C40.7999 17.9581 40.4418 17.6 40 17.6C39.5581 17.6 39.2 17.9581 39.2 18.4C39.2 18.8418 39.5581 19.2 40 19.2Z" fill="#219653"/>
<path d="M38.3999 17.6C38.8417 17.6 39.1999 17.2418 39.1999 16.8C39.1999 16.3582 38.8417 16 38.3999 16C37.958 16 37.5999 16.3582 37.5999 16.8C37.5999 17.2418 37.958 17.6 38.3999 17.6Z" fill="#219653"/>
<path d="M41.6 20.8001C42.0419 20.8001 42.4 20.4419 42.4 20.0001C42.4 19.5582 42.0419 19.2001 41.6 19.2001C41.1582 19.2001 40.8 19.5582 40.8 20.0001C40.8 20.4419 41.1582 20.8001 41.6 20.8001Z" fill="#219653"/>
<path d="M43.1999 19.2C43.6417 19.2 43.9999 18.8418 43.9999 18.4C43.9999 17.9581 43.6417 17.6 43.1999 17.6C42.7581 17.6 42.3999 17.9581 42.3999 18.4C42.3999 18.8418 42.7581 19.2 43.1999 19.2Z" fill="#219653"/>
<path d="M41.6 17.6C42.0419 17.6 42.4 17.2418 42.4 16.8C42.4 16.3582 42.0419 16 41.6 16C41.1582 16 40.8 16.3582 40.8 16.8C40.8 17.2418 41.1582 17.6 41.6 17.6Z" fill="#219653"/>
<path d="M44.8 20.8001C45.2418 20.8001 45.6 20.4419 45.6 20.0001C45.6 19.5582 45.2418 19.2001 44.8 19.2001C44.3582 19.2001 44 19.5582 44 20.0001C44 20.4419 44.3582 20.8001 44.8 20.8001Z" fill="#219653"/>
<path d="M46.3999 19.2C46.8417 19.2 47.1999 18.8418 47.1999 18.4C47.1999 17.9581 46.8417 17.6 46.3999 17.6C45.958 17.6 45.5999 17.9581 45.5999 18.4C45.5999 18.8418 45.958 19.2 46.3999 19.2Z" fill="#219653"/>
<path d="M44.8 17.6C45.2418 17.6 45.6 17.2418 45.6 16.8C45.6 16.3582 45.2418 16 44.8 16C44.3582 16 44 16.3582 44 16.8C44 17.2418 44.3582 17.6 44.8 17.6Z" fill="#219653"/>
<path d="M47.9999 46.4H0V48H47.9999V46.4Z" fill="#219653"/>
<path d="M41.6 20.8H0V22.4H3.6686L0.234326 25.8343L1.08374 26.6838C0.785675 26.8182 0.509992 26.9976 0.266309 27.2156L1.33359 28.4076C1.5126 28.2473 1.72543 28.1295 1.95625 28.0628C2.18707 27.9962 2.42994 27.9824 2.66682 28.0225C2.9037 28.0626 3.12849 28.1556 3.32448 28.2946C3.52047 28.4335 3.68262 28.6149 3.79887 28.8251C3.85794 28.9319 3.94064 29.0238 4.04066 29.0937C4.14067 29.1636 4.25535 29.2097 4.37593 29.2285C4.4965 29.2472 4.61977 29.2382 4.7363 29.202C4.85284 29.1658 4.95956 29.1034 5.04829 29.0197C5.16186 28.912 5.30449 28.84 5.45855 28.8125C5.61261 28.785 5.77134 28.8033 5.91514 28.865C6.05894 28.9267 6.1815 29.0293 6.26767 29.1599C6.35383 29.2905 6.39984 29.4435 6.39999 29.6C6.40008 29.6857 6.41398 29.7708 6.44115 29.8521C5.89623 30.0993 5.44478 30.5145 5.15293 31.0369C4.86109 31.5593 4.74417 32.1614 4.81932 32.755C4.89447 33.3487 5.15772 33.9027 5.57053 34.3359C5.98334 34.7691 6.52401 35.0587 7.11335 35.1623C7.70268 35.266 8.30972 35.1782 8.84556 34.9118C9.38139 34.6455 9.81785 34.2145 10.091 33.6821C10.3642 33.1498 10.4597 32.5439 10.3636 31.9533C10.2675 31.3627 9.98481 30.8183 9.55692 30.4H15.016C15.4704 30.4004 15.9134 30.2576 16.282 29.9919C16.6507 29.7262 16.9262 29.3512 17.0696 28.92L17.2479 28.387C17.2853 28.2743 17.3572 28.1763 17.4534 28.1068C17.5496 28.0374 17.6653 28 17.784 28H18.634C18.7084 27.9998 18.7821 28.0144 18.8509 28.0428C18.9196 28.0713 18.982 28.1132 19.0345 28.166C19.4407 28.572 19.9916 28.8001 20.566 28.8H20.756C20.8622 28.8 20.9662 28.8299 21.0562 28.8863C21.1462 28.9427 21.2184 29.0234 21.2646 29.119L21.3072 29.2022C21.4857 29.563 21.7618 29.8665 22.1042 30.0783C22.4465 30.29 22.8414 30.4015 23.244 30.4H30.5376C30.4094 30.7621 30.37 31.1496 30.4226 31.53C30.4752 31.9104 30.6184 32.2726 30.8401 32.5863C31.0617 32.8999 31.3554 33.1557 31.6964 33.3323C32.0375 33.5089 32.4159 33.601 32.8 33.601C33.184 33.601 33.5624 33.5089 33.9035 33.3323C34.2445 33.1557 34.5382 32.8999 34.7599 32.5863C34.9815 32.2726 35.1247 31.9104 35.1773 31.53C35.2299 31.1496 35.1905 30.7621 35.0623 30.4H36C36.2121 30.4 36.4156 30.3158 36.5656 30.1658H36.5656L36.9261 29.8053C37.0898 29.6416 37.2877 29.5162 37.5057 29.4382C37.7237 29.3602 37.9563 29.3316 38.1867 29.3544C38.4171 29.3772 38.6395 29.4509 38.838 29.5701C39.0364 29.6893 39.206 29.8511 39.3343 30.0438C39.4074 30.1534 39.5064 30.2432 39.6225 30.3054C39.7386 30.3675 39.8683 30.4 40 30.4H47.9999V28.8H42.7314L47.7656 23.7658L46.6343 22.6343L40.4686 28.8H40.39C39.9852 28.3466 39.4576 28.0202 38.8711 27.8603L44.3314 22.4H47.9999V20.8H41.6ZM36.8 22.4C36.9582 22.4 37.1129 22.447 37.2444 22.5349C37.376 22.6228 37.4785 22.7477 37.5391 22.8939C37.5996 23.0401 37.6155 23.2009 37.5846 23.3561C37.5537 23.5113 37.4775 23.6538 37.3656 23.7657C37.2538 23.8776 37.1112 23.9538 36.956 23.9847C36.8008 24.0155 36.64 23.9997 36.4938 23.9391C36.3476 23.8786 36.2227 23.7761 36.1348 23.6445C36.0469 23.5129 36 23.3583 36 23.2C36.0002 22.9879 36.0846 22.7846 36.2345 22.6346C36.3845 22.4847 36.5879 22.4003 36.8 22.4ZM29.9314 22.4H32.4686L31.1224 23.7462C30.8406 23.5139 30.5092 23.3492 30.1538 23.2648C29.7984 23.1804 29.4284 23.1785 29.0722 23.2592L29.9314 22.4ZM29.6 24.8C29.7582 24.8 29.9129 24.847 30.0444 24.9349C30.176 25.0228 30.2785 25.1477 30.3391 25.2939C30.3996 25.4401 30.4155 25.6009 30.3846 25.7561C30.3537 25.9113 30.2775 26.0538 30.1657 26.1657C30.0538 26.2776 29.9112 26.3538 29.756 26.3847C29.6009 26.4155 29.44 26.3997 29.2938 26.3391C29.1476 26.2786 29.0227 26.1761 28.9348 26.0445C28.8469 25.9129 28.8 25.7583 28.8 25.6C28.8002 25.3879 28.8846 25.1846 29.0345 25.0346C29.1845 24.8847 29.3879 24.8003 29.6 24.8ZM4.02424 26.8444C3.38204 26.4638 2.62646 26.3213 1.88976 26.4417L5.93139 22.4H8.46859L4.02424 26.8444ZM7.59999 33.6C7.36265 33.6 7.13065 33.5297 6.93331 33.3978C6.73597 33.2659 6.58216 33.0785 6.49134 32.8593C6.40051 32.64 6.37675 32.3987 6.42305 32.1659C6.46935 31.9331 6.58364 31.7193 6.75146 31.5515C6.91929 31.3837 7.13311 31.2694 7.36588 31.2231C7.59866 31.1768 7.83994 31.2006 8.05921 31.2914C8.27848 31.3822 8.4659 31.536 8.59775 31.7334C8.72961 31.9307 8.79999 32.1627 8.79999 32.4C8.79963 32.7182 8.67309 33.0232 8.44813 33.2482C8.22316 33.4731 7.91814 33.5997 7.59999 33.6ZM11.6686 28.8H9.13137L10.4775 27.4538C10.7594 27.6862 11.0907 27.8509 11.4461 27.9353C11.8015 28.0197 12.1715 28.0216 12.5278 27.9409L11.6686 28.8ZM12 26.4C11.8418 26.4 11.6871 26.3531 11.5555 26.2652C11.424 26.1773 11.3214 26.0524 11.2609 25.9062C11.2003 25.76 11.1845 25.5992 11.2154 25.444C11.2462 25.2888 11.3224 25.1462 11.4343 25.0344C11.5462 24.9225 11.6887 24.8463 11.8439 24.8154C11.9991 24.7845 12.16 24.8004 12.3061 24.8609C12.4523 24.9215 12.5773 25.024 12.6652 25.1556C12.7531 25.2871 12.8 25.4418 12.8 25.6C12.7997 25.8121 12.7154 26.0155 12.5654 26.1655C12.4154 26.3154 12.2121 26.3998 12 26.4ZM12.4294 23.2393C12.0477 23.1694 11.6546 23.1932 11.2841 23.3086C10.9136 23.4241 10.5766 23.6278 10.3022 23.9022C10.0278 24.1766 9.82407 24.5136 9.70859 24.8841C9.5931 25.2546 9.5693 25.6476 9.63921 26.0294L7.51434 28.1543C7.32217 27.9001 7.08131 27.6867 6.80581 27.5266C6.5303 27.3665 6.22567 27.2629 5.90968 27.2218L10.7314 22.4H13.2686L12.4294 23.2393ZM15.5314 22.4H18.0686L14.3408 26.1278C14.4215 25.7716 14.4196 25.4016 14.3352 25.0462C14.2508 24.6908 14.0862 24.3595 13.8539 24.0776L15.5314 22.4ZM18.857 26.4117C18.7829 26.404 18.7085 26.4002 18.634 26.4H17.784C17.3296 26.3997 16.8866 26.5425 16.5179 26.8082C16.1493 27.0738 15.8737 27.4489 15.7304 27.8801L15.552 28.4131C15.5147 28.5258 15.4428 28.6238 15.3466 28.6932C15.2503 28.7627 15.1347 28.8001 15.016 28.8H13.9314L20.3314 22.4H22.8686L18.857 26.4117ZM22.2611 27.8075C21.8579 27.4163 21.3177 27.1984 20.756 27.2H20.566C20.4985 27.1996 20.4316 27.1871 20.3686 27.1629L25.1314 22.4H27.6686L22.2611 27.8075ZM26.0686 28.8H23.5314L27.2592 25.0723C27.1784 25.4285 27.1803 25.7985 27.2647 26.1539C27.3491 26.5093 27.5138 26.8406 27.7461 27.1225L26.0686 28.8ZM30.8686 28.8H28.3313L29.1706 27.9608C29.5523 28.0307 29.9453 28.0069 30.3158 27.8914C30.6864 27.776 31.0233 27.5723 31.2977 27.2979C31.5722 27.0234 31.7759 26.6865 31.8914 26.316C32.0068 25.9455 32.0307 25.5524 31.9607 25.1707L34.4592 22.6723C34.3784 23.0285 34.3803 23.3985 34.4647 23.7539C34.5491 24.1093 34.7138 24.4406 34.9461 24.7225L30.8686 28.8ZM32.8 32C32.6417 32 32.4871 31.9531 32.3555 31.8652C32.2239 31.7773 32.1214 31.6524 32.0609 31.5062C32.0003 31.36 31.9845 31.1991 32.0153 31.044C32.0462 30.8888 32.1224 30.7462 32.2343 30.6344C32.3462 30.5225 32.4887 30.4463 32.6439 30.4154C32.7991 30.3845 32.9599 30.4004 33.1061 30.4609C33.2523 30.5215 33.3772 30.624 33.4651 30.7556C33.553 30.8871 33.6 31.0418 33.6 31.2C33.5997 31.4121 33.5154 31.6155 33.3654 31.7655C33.2154 31.9154 33.0121 31.9998 32.8 32ZM35.6686 28.8H33.1313L36.3705 25.5608C36.7842 25.6363 37.2105 25.6017 37.6066 25.4604C38.0027 25.3192 38.3547 25.0764 38.6274 24.7562C38.9001 24.4361 39.0838 24.0499 39.1601 23.6363C39.2364 23.2228 39.2027 22.7964 39.0623 22.4H42.0686L35.6686 28.8Z" fill="#219653"/>
<path d="M0 16H3.2H6.39999H9.59999H12.8H16H19.2H22.4H25.6H28.8H32H35.2H38.4H41.6H44.7999H47.9999V14.4H0V16Z" fill="#219653"/>
<path d="M24.4944 5.60005L24.4054 5.42212C24.1374 4.88405 24.0746 4.26671 24.2289 3.6857C24.3832 3.10468 24.744 2.59983 25.2437 2.26568C25.3978 2.16294 25.5115 2.0099 25.5654 1.83267C25.6193 1.65545 25.61 1.46502 25.5391 1.29389C25.4682 1.12276 25.3401 0.981534 25.1767 0.894304C25.0133 0.807074 24.8247 0.779249 24.6431 0.815578C23.4703 1.04868 22.378 1.58189 21.4729 2.36316C21.6426 1.99213 21.8772 1.65437 22.1656 1.36578C22.2871 1.24436 22.3662 1.08711 22.3913 0.917266C22.4165 0.747419 22.3863 0.573988 22.3053 0.422604C22.2243 0.27122 22.0967 0.149915 21.9415 0.0766175C21.7862 0.00331996 21.6115 -0.0180812 21.4431 0.0155768C20.5249 0.202386 19.6557 0.578517 18.891 1.11998C18.1263 1.66144 17.4828 2.35634 17.0016 3.16035C16.7526 2.43296 16.3389 1.77297 15.7927 1.23188C15.2465 0.690786 14.5827 0.283246 13.853 0.0410668C13.7418 0.00400178 13.6238 -0.00818505 13.5074 0.00536796C13.391 0.018921 13.279 0.0578829 13.1794 0.119498C13.0797 0.181114 12.9948 0.263878 12.9306 0.361936C12.8664 0.459995 12.8246 0.570954 12.808 0.686966L12.6057 2.10325C11.7668 1.46231 10.7923 1.02184 9.75687 0.815582C9.57524 0.779254 9.38663 0.807079 9.22323 0.894309C9.05983 0.98154 8.93176 1.12277 8.86088 1.2939C8.79 1.46503 8.78069 1.65545 8.83456 1.83268C8.88842 2.0099 9.00212 2.16294 9.15624 2.26568C9.65597 2.59984 10.0168 3.10469 10.1711 3.6857C10.3254 4.26672 10.2626 4.88405 9.99452 5.42212L9.90555 5.60005H0V7.20005H47.9999V5.60005H24.4944ZM11.6472 5.60005C11.8742 4.9155 11.9148 4.18285 11.7649 3.47739C12.4566 4.04193 12.9944 4.77207 13.3284 5.60005H11.6472ZM15.0227 5.60005C14.8025 4.86671 14.4618 4.17509 14.0147 3.55349L14.2356 2.00786C14.6029 2.26715 14.9151 2.59685 15.1539 2.97781C15.3927 3.35877 15.5535 3.78339 15.6268 4.227L15.8556 5.60005H15.0227ZM19.6593 4.77563L19.6666 4.81235C19.5544 5.06884 19.4577 5.33189 19.3773 5.60005H17.7484C18.0002 4.35094 18.7075 3.24011 19.7328 2.48355C19.5319 3.23169 19.5068 4.01615 19.6593 4.77563ZM21.0715 5.60005C21.4056 4.77207 21.9434 4.04193 22.6351 3.47739C22.4851 4.18285 22.5258 4.9155 22.7528 5.60005H21.0715Z" fill="#219653"/>
<path d="M0 10.4H15.7835C15.6433 10.643 15.4416 10.8448 15.1988 10.9852C14.956 11.1256 14.6805 11.1997 14.4 11.2H13.7941C13.3737 11.1989 12.9572 11.2811 12.5689 11.442C12.1805 11.6029 11.8278 11.8392 11.5314 12.1373L10.6343 13.0343L11.7657 14.1658L12.6627 13.2687C12.8109 13.1196 12.9873 13.0015 13.1815 12.921C13.3757 12.8406 13.5839 12.7995 13.7941 12.8H14.4C15.1092 12.7991 15.7981 12.5631 16.3589 12.1288C16.9196 11.6945 17.3205 11.0865 17.4987 10.4H17.673C17.8246 11.0802 18.2033 11.6884 18.7467 12.1247C19.2901 12.5609 19.9659 12.7991 20.6627 12.8C20.8549 12.7995 21.0452 12.8371 21.2228 12.9106C21.4003 12.9841 21.5615 13.0921 21.697 13.2284L22.6343 14.1657L23.7657 13.0344L22.8284 12.097C22.5446 11.8118 22.2071 11.5856 21.8354 11.4316C21.4637 11.2777 21.0651 11.199 20.6627 11.2C20.393 11.1997 20.1286 11.1248 19.8988 10.9836C19.669 10.8424 19.4827 10.6405 19.3604 10.4H47.9999V8.80005H0V10.4Z" fill="#219653"/>
<path d="M23.9999 33.6001C23.9999 33.1254 23.8592 32.6614 23.5955 32.2667C23.3318 31.872 22.9569 31.5644 22.5184 31.3828C22.0798 31.2011 21.5973 31.1536 21.1317 31.2462C20.6662 31.3388 20.2385 31.5674 19.9029 31.903C19.5672 32.2387 19.3387 32.6663 19.2461 33.1319C19.1535 33.5974 19.201 34.08 19.3826 34.5185C19.5643 34.9571 19.8719 35.3319 20.2666 35.5956C20.6613 35.8593 21.1253 36.0001 21.5999 36.0001C22.2362 35.9993 22.8463 35.7463 23.2962 35.2963C23.7461 34.8464 23.9992 34.2364 23.9999 33.6001ZM20.8 33.6001C20.8 33.4418 20.8469 33.2872 20.9348 33.1556C21.0227 33.0241 21.1476 32.9215 21.2938 32.861C21.44 32.8004 21.6008 32.7846 21.756 32.8154C21.9112 32.8463 22.0538 32.9225 22.1656 33.0344C22.2775 33.1463 22.3537 33.2888 22.3846 33.444C22.4154 33.5992 22.3996 33.76 22.3391 33.9062C22.2785 34.0524 22.176 34.1773 22.0444 34.2652C21.9128 34.3532 21.7582 34.4001 21.5999 34.4001C21.3879 34.3998 21.1845 34.3155 21.0345 34.1655C20.8846 34.0155 20.8002 33.8122 20.8 33.6001Z" fill="#219653"/>
<path d="M17.3895 36.8337C17.2763 36.4811 17.0864 36.1579 16.8334 35.8874C16.5804 35.6169 16.2707 35.4058 15.9264 35.2693L14.8973 34.8573C14.4551 34.6799 13.9706 34.6365 13.5039 34.7323C13.0372 34.8281 12.6089 35.059 12.2724 35.3963L11.5813 36.0873C11.4448 36.2231 11.2655 36.3077 11.0738 36.3266C10.8821 36.3455 10.6898 36.2976 10.5293 36.1911C10.0117 35.8464 9.3818 35.7129 8.76886 35.8179C8.15591 35.923 7.6064 36.2586 7.23305 36.7559L6.01677 38.3775C5.78666 37.9627 5.46338 37.607 5.07239 37.3384C4.68139 37.0698 4.23338 36.8957 3.76362 36.8297C3.29387 36.7638 2.81523 36.8078 2.36539 36.9583C1.91555 37.1089 1.50682 37.3618 1.17139 37.6972L0.234375 38.6342L1.36572 39.7657L2.30273 38.8287C2.50733 38.6241 2.76798 38.4849 3.05172 38.4284C3.33546 38.372 3.62957 38.401 3.89685 38.5117C4.16414 38.6224 4.3926 38.8098 4.55336 39.0503C4.71412 39.2909 4.79997 39.5736 4.80004 39.8629C4.80005 39.9119 4.79754 39.9609 4.79252 40.0096L4.19121 40.8111C4.0497 41.0001 3.93292 41.2064 3.8437 41.425L3.29736 41.9712C3.03795 42.2308 2.69043 42.3834 2.32376 42.3987C1.9571 42.414 1.59809 42.2909 1.31797 42.0538L0.282129 43.2731C0.773793 43.6899 1.38439 43.9411 2.02704 43.9908C2.6697 44.0406 3.31167 43.8864 3.86162 43.5501C4.07397 44.0484 4.42837 44.473 4.88057 44.7711C5.33277 45.0692 5.86274 45.2275 6.40434 45.2262C6.69993 45.2262 6.99359 45.1785 7.27397 45.0849L10.5778 43.9839L14.9691 43.4349C15.0563 43.4239 15.1429 43.4083 15.2284 43.3881C15.3944 43.6672 15.5942 43.9247 15.8234 44.1547L15.8913 44.2227C16.3349 44.6661 16.8779 44.9972 17.4752 45.1886C18.0725 45.38 18.7068 45.4261 19.3255 45.3231L20.3932 45.1452C21.1823 45.0148 21.9128 44.6464 22.4868 44.0894C22.5425 44.0354 22.5962 43.9796 22.6484 43.9226C22.8838 43.974 23.1241 43.9999 23.365 44H24.5135C24.7478 44.2689 25.0427 44.4782 25.3739 44.6107L26.6631 45.1264C27.1245 45.3112 27.6341 45.3386 28.1127 45.2046C28.5914 45.0706 29.0126 44.7825 29.311 44.3849L30.211 43.185C30.2719 43.1045 30.3505 43.0391 30.4407 42.9937C30.5309 42.9484 30.6303 42.9244 30.7313 42.9235C30.974 43.3339 31.289 43.6971 31.661 43.9955L32.5995 44.7468C33.1871 45.2148 33.8959 45.5057 34.6428 45.5854C35.3897 45.6651 36.1439 45.5303 36.817 45.1968L36.8401 45.1858C36.8442 45.1838 36.8482 45.1818 36.8523 45.1798C37.1956 45.0077 37.5118 44.7864 37.7911 44.5229C38.359 44.7825 38.9926 44.8622 39.607 44.7513C40.2215 44.6405 40.7873 44.3443 41.2287 43.9027L42.1157 43.0157L42.1266 43.0321C42.325 43.3301 42.5941 43.5744 42.9097 43.7433C43.2254 43.9121 43.578 44.0003 43.936 44H46.625C46.9393 44.0006 47.25 43.9326 47.5353 43.8005L46.8647 42.3478C46.7895 42.3824 46.7077 42.4002 46.625 42.4H43.936C43.8414 42.4001 43.7482 42.3768 43.6647 42.3321C43.5813 42.2875 43.5101 42.2229 43.4577 42.1442L43.0664 41.5573C43.2294 41.0223 43.2429 40.4529 43.1053 39.9108C42.9678 39.3687 42.6846 38.8746 42.2863 38.482C41.888 38.0894 41.3898 37.8132 40.8458 37.6835C40.3018 37.5538 39.7326 37.5754 39.2 37.7461V37.65C39.1996 37.5431 39.2292 37.4382 39.2853 37.3473C39.3415 37.2564 39.422 37.183 39.5178 37.1355L41.2438 36.2725C41.3346 36.2273 41.4358 36.2068 41.537 36.2131C41.6383 36.2195 41.7361 36.2525 41.8205 36.3087L42.8931 37.0232C43.212 37.2356 43.5814 37.3599 43.9639 37.3837C44.3464 37.4075 44.7283 37.3299 45.0712 37.1587C45.1792 37.1048 45.3015 37.0862 45.4207 37.1055C45.5398 37.1249 45.6499 37.1813 45.7353 37.2667L46.6343 38.1657L47.7657 37.0342L46.8666 36.1352C46.544 35.8122 46.1278 35.599 45.6772 35.5258C45.2265 35.4526 44.7643 35.5232 44.356 35.7275C44.265 35.7718 44.164 35.7917 44.063 35.7853C43.9619 35.779 43.8643 35.7465 43.7795 35.6912L42.7078 34.9773C42.3886 34.765 42.0189 34.6406 41.6363 34.6168C41.2536 34.5929 40.8714 34.6704 40.5282 34.8415L38.8023 35.7044C38.444 35.8821 38.142 36.1557 37.9299 36.4948C37.7178 36.834 37.6039 37.2253 37.6009 37.6253C37.4887 37.5384 37.3719 37.4576 37.251 37.3832C37.329 37.0768 37.3422 36.7576 37.2897 36.4458C37.2371 36.1341 37.1201 35.8367 36.946 35.5728L36.5863 35.0322C36.281 34.5735 35.8187 34.242 35.2863 34.0999C34.7539 33.9578 34.188 34.0148 33.6946 34.2602L31.011 35.6C30.8327 35.1183 30.536 34.6891 30.1484 34.352C29.7607 34.0148 29.2945 33.7806 28.7927 33.6708C28.2908 33.561 27.7694 33.5791 27.2764 33.7235C26.7834 33.8679 26.3346 34.134 25.9714 34.4972L24.8973 35.5713C24.7407 35.7281 24.6016 35.9016 24.4825 36.0885C24.3121 36.0959 24.1425 36.1163 23.9751 36.1495L22.7055 36.4034C22.0823 36.5285 21.5071 36.8273 21.0466 37.2655C20.5178 36.9021 19.9085 36.6729 19.2714 36.5977C18.6342 36.5225 17.9883 36.6035 17.3895 36.8337ZM15.8381 37.9726C15.8162 38.0247 15.7894 38.0745 15.7579 38.1214C15.5628 38.414 15.431 38.7441 15.3709 39.0905C15.3108 39.437 15.3238 39.7922 15.409 40.1334L15.5528 40.7076C15.5979 40.8907 15.5861 41.0832 15.5191 41.2595C15.4521 41.4358 15.3329 41.5876 15.1776 41.6945C15.0566 41.7774 14.9174 41.8298 14.7718 41.8471L10.3008 42.4061C10.2485 42.4127 10.1971 42.4243 10.1471 42.441L6.76772 43.5671C6.56418 43.6351 6.34578 43.6453 6.13679 43.5966C5.9278 43.5479 5.73641 43.4422 5.5839 43.2912C5.43138 43.1403 5.32371 42.95 5.27285 42.7415C5.22199 42.533 5.22993 42.3145 5.29579 42.1103H5.29578L5.29589 42.11C5.33533 41.9877 5.39483 41.8728 5.47197 41.7701L6.18998 40.813L6.19018 40.8127L8.51264 37.7164C8.64061 37.546 8.8289 37.431 9.03893 37.395C9.24895 37.359 9.46479 37.4046 9.64223 37.5226C10.1107 37.8335 10.6721 37.9731 11.2316 37.9177C11.7911 37.8623 12.3143 37.6153 12.7126 37.2186L13.4037 36.5277C13.5189 36.4121 13.6655 36.333 13.8254 36.3001C13.9852 36.2672 14.1512 36.282 14.3027 36.3426L15.3324 36.7549C15.5042 36.8233 15.6514 36.9418 15.7548 37.095C15.8582 37.2483 15.913 37.4291 15.912 37.614C15.9122 37.7374 15.887 37.8594 15.8381 37.9726ZM38.9545 42.4277L39.1236 41.5814C39.25 40.9544 39.2208 40.3059 39.0385 39.6928L39.1027 39.6287C39.3418 39.3897 39.6564 39.2409 39.9928 39.2077C40.3293 39.1744 40.6668 39.2586 40.9482 39.4461C41.2295 39.6336 41.4373 39.9127 41.5361 40.236C41.6349 40.5593 41.6187 40.9069 41.4903 41.2196C41.4803 41.2435 41.4699 41.2669 41.4583 41.2897C41.4555 41.2952 41.4527 41.3006 41.4501 41.3061C41.3797 41.4512 41.2855 41.5834 41.1713 41.6972L40.0973 42.7712C39.9618 42.9075 39.8006 43.0156 39.6231 43.0892C39.4456 43.1628 39.2552 43.2004 39.063 43.2C38.9513 43.1997 38.84 43.1868 38.7312 43.1615C38.8294 42.9248 38.9042 42.679 38.9545 42.4277ZM36.4942 38.7984C36.6202 38.8825 36.7377 38.9787 36.8451 39.0855L36.9144 39.1548C37.1865 39.4274 37.3872 39.7629 37.4988 40.1315C37.6105 40.5001 37.6296 40.8905 37.5545 41.2682L37.3855 42.1147C37.3204 42.4432 37.1849 42.7537 36.9883 43.0248C36.7684 43.3292 36.4787 43.5763 36.1434 43.7454L36.121 43.7561C36.1167 43.7582 36.1125 43.7602 36.1082 43.7624C35.7081 43.9615 35.2595 44.0423 34.815 43.9954C34.3706 43.9485 33.9487 43.7757 33.599 43.4974L33.2591 43.2253C33.6792 43.0435 34.0338 42.7377 34.2754 42.3489L36.4942 38.7984ZM30.9674 37.8345C31.0348 37.6715 31.088 37.5029 31.1264 37.3308L34.4093 35.6917C34.5536 35.6201 34.7189 35.6036 34.8744 35.6453C35.0299 35.687 35.1649 35.784 35.254 35.9181L35.6127 36.4572C35.6827 36.5632 35.7209 36.6871 35.7227 36.8141C35.7244 36.9412 35.6897 37.0661 35.6226 37.174L32.9182 41.5015C32.8717 41.5764 32.8105 41.6411 32.7385 41.6919C32.6664 41.7426 32.5849 41.7784 32.4987 41.7971C32.4126 41.8157 32.3236 41.8169 32.237 41.8005C32.1504 41.7841 32.0679 41.7504 31.9946 41.7015C31.8558 41.6082 31.7069 41.531 31.5506 41.4714C31.0913 41.2962 30.5875 41.2749 30.115 41.4108C29.6425 41.5467 29.227 41.8324 28.931 42.225L28.031 43.425C27.9438 43.5409 27.8209 43.625 27.6812 43.6641C27.5415 43.7031 27.3928 43.6951 27.2581 43.6412L26.5924 43.3749C27.026 43.0652 27.3798 42.6569 27.6245 42.1835C27.8692 41.7102 27.9977 41.1854 27.9996 40.6525C28.4631 40.504 28.8845 40.2469 29.2287 39.9027L30.3027 38.8287C30.5873 38.5441 30.8132 38.2063 30.9674 37.8345ZM27.1027 35.6287C27.3073 35.4241 27.5679 35.2849 27.8517 35.2284C28.1354 35.172 28.4295 35.201 28.6968 35.3117C28.9641 35.4224 29.1926 35.6098 29.3533 35.8503C29.5141 36.0909 29.5999 36.3736 29.6 36.6629C29.6 36.6873 29.5994 36.711 29.598 36.7379C29.5898 36.904 29.5532 37.0673 29.4897 37.221C29.4158 37.399 29.3077 37.5609 29.1714 37.6972L28.0973 38.7712C28.0522 38.8157 28.0043 38.8571 27.9539 38.8954C27.8699 38.3848 27.6683 37.9007 27.3652 37.4814C27.0712 37.0691 26.6857 36.7306 26.2388 36.4926L27.1027 35.6287ZM23.0189 37.9724L24.2894 37.7183C24.4781 37.6803 24.6718 37.6738 24.8627 37.6991C24.9751 37.7129 25.0858 37.738 25.1932 37.774C25.545 37.891 25.8508 38.1161 26.0673 38.417C26.2844 38.7172 26.4009 39.0785 26.4 39.449V40.6349C26.4007 41.0705 26.24 41.4909 25.9489 41.8149C25.6578 42.139 25.257 42.3437 24.8238 42.3895C24.7611 42.3967 24.6981 42.4002 24.635 42.4H23.5169C23.5535 42.279 23.5843 42.1559 23.6095 42.0307C23.7474 41.3477 23.7008 40.6403 23.4747 39.9812C23.2486 39.3222 22.851 38.7352 22.3228 38.2808C22.5296 38.1285 22.7672 38.0233 23.0189 37.9724H23.0189ZM21.2075 39.4309C21.6648 39.7964 21.9684 40.3202 22.0583 40.8987C22.1483 41.4772 22.0179 42.0684 21.6931 42.5555C21.601 42.6948 21.494 42.8236 21.374 42.9398C21.0331 43.2706 20.5993 43.4894 20.1306 43.5668L19.0622 43.7449C18.6948 43.8058 18.3181 43.7782 17.9635 43.6646C17.6088 43.5509 17.2863 43.3544 17.0227 43.0913L16.9548 43.0234C16.8135 42.8814 16.691 42.7219 16.5904 42.5488C16.8448 42.2435 17.024 41.8828 17.1134 41.4956C17.2028 41.1084 17.1999 40.7056 17.1051 40.3197L16.9611 39.7446C16.9299 39.6203 16.9251 39.4909 16.9469 39.3646C16.9687 39.2383 17.0166 39.118 17.0876 39.0113C17.1398 38.933 17.1874 38.8519 17.2303 38.7682C17.3806 38.6349 17.5475 38.5215 17.7269 38.4309L17.7501 38.4198C17.7538 38.418 17.7574 38.4162 17.7611 38.4144C18.161 38.2152 18.6095 38.1343 19.0538 38.1813C19.4981 38.2282 19.9197 38.4011 20.2691 38.6796L21.2075 39.4309Z" fill="#219653"/>
</svg>
