<svg width="48" height="48" viewBox="0 0 48 48" fill="none" xmlns="http://www.w3.org/2000/svg">
<path d="M41.4664 18.5804V17.4663C41.4664 7.81241 33.655 0 24.0001 0C14.3691 0 6.53375 7.83537 6.53375 17.4663V18.5804C2.7027 19.6668 -0.223887 23.3253 0.0134773 27.7478C0.270041 32.5276 4.27963 36.2666 8.99755 36.2666C11.3225 36.2666 13.2076 34.3901 13.2076 32.0637V22.4408C13.2076 20.2385 11.5093 18.4228 9.35727 18.2528V17.4664C9.35727 9.39236 15.926 2.82362 24.0001 2.82362C32.0935 2.82362 38.6429 9.37212 38.6429 17.4664V18.2525C36.4933 18.4203 34.7925 20.237 34.7925 22.4409V32.0638C34.7925 34.2658 36.4831 36.0696 38.6429 36.2507C38.6429 40.0718 35.6508 42.7294 32.2946 42.7294H29.2215C28.6567 41.2982 27.2609 40.2824 25.6313 40.2824H22.3686C20.2409 40.2824 18.5098 42.0135 18.5098 44.1412C18.5098 46.2689 20.2409 48 22.3686 48H25.6313C27.2609 48 28.6567 46.9842 29.2215 45.5529H32.2945C37.3519 45.5529 41.4663 41.4381 41.4663 36.3803V35.9173C45.0686 34.879 47.7778 31.6389 47.9866 27.7479C48.2232 23.3406 45.3108 19.6707 41.4664 18.5804ZM10.3841 22.4408V32.0637C10.3841 32.777 9.83576 33.4599 8.88847 33.4419C5.66533 33.3787 3.00538 30.811 2.83286 27.5966C2.64077 24.0187 5.47455 21.062 9.01365 21.062H9.03784C9.78014 21.0648 10.3841 21.6833 10.3841 22.4408ZM25.6314 45.1764H22.3687C21.7979 45.1764 21.3334 44.7119 21.3334 44.1411C21.3334 43.5703 21.7979 43.1058 22.3687 43.1058H25.6314C26.2032 43.1058 26.668 43.5718 26.6666 44.1438C26.665 44.7134 26.2013 45.1764 25.6314 45.1764ZM45.1672 27.5966C44.9947 30.811 42.3347 33.3787 39.1117 33.4419C38.1817 33.4607 37.6159 32.7922 37.6159 32.0637V22.4408C37.6159 21.6833 38.2199 21.0648 38.9568 21.062H38.9863C42.526 21.062 45.3593 24.0191 45.1672 27.5966Z" fill="#219653"/>
<path d="M24.9981 35.0542L31.5172 28.5353C33.5479 26.5045 33.5481 23.2177 31.5172 21.1868C29.6491 19.3186 26.412 18.9442 23.9999 21.3554C21.6206 18.9768 18.3789 19.2904 16.4827 21.1867C14.4518 23.2176 14.4517 26.5043 16.4827 28.5353L23.0017 35.0542C23.5529 35.6055 24.4468 35.6056 24.9981 35.0542ZM18.4791 23.1832C19.4042 22.2582 20.9094 22.2581 21.8346 23.1832L23.0015 24.3502C23.5528 24.9015 24.4467 24.9015 24.998 24.3502L26.165 23.1832C27.0902 22.2581 28.5953 22.258 29.5205 23.1832C30.4477 24.1104 30.4479 25.6112 29.5205 26.5387L23.9997 32.0593L18.479 26.5387C17.5518 25.6115 17.5517 24.1106 18.4791 23.1832Z" fill="#219653"/>
</svg>
