<svg width="46" height="32" viewBox="0 0 46 32" fill="none" xmlns="http://www.w3.org/2000/svg">
<path d="M43.7335 14.2222H1.77778C0.795914 14.2222 0 15.0181 0 16C0 16.9818 0.795914 17.7777 1.77778 17.7777H43.7335C44.7154 17.7777 45.5113 16.9818 45.5113 16C45.5113 15.0181 44.7154 14.2222 43.7335 14.2222Z" fill="black"/>
<path d="M43.7335 0H1.77778C0.795914 0 0 0.795914 0 1.77778C0 2.75965 0.795914 3.55557 1.77778 3.55557H43.7335C44.7154 3.55557 45.5113 2.75965 45.5113 1.77778C45.5113 0.795914 44.7154 0 43.7335 0Z" fill="black"/>
<path d="M43.7335 28.4446H1.77778C0.795914 28.4446 0 29.2405 0 30.2224C0 31.2042 0.795914 32.0001 1.77778 32.0001H43.7335C44.7154 32.0001 45.5113 31.2042 45.5113 30.2224C45.5113 29.2405 44.7154 28.4446 43.7335 28.4446Z" fill="black"/>
</svg>
