<svg width="66" height="48" viewBox="0 0 66 48" fill="none" xmlns="http://www.w3.org/2000/svg">
<path d="M65.049 24.9452V11.9354C65.049 11.6479 64.9348 11.3721 64.7314 11.1688C64.5281 10.9655 64.2524 10.8512 63.9648 10.8512H63.8109C63.5712 9.92305 63.0308 9.10043 62.274 8.51197C61.5173 7.92351 60.5869 7.60238 59.6282 7.59879C59.3407 7.59879 59.0649 7.71301 58.8616 7.91633C58.6583 8.11965 58.5441 8.39541 58.5441 8.68294C58.5441 8.97048 58.6583 9.24623 58.8616 9.44955C59.0649 9.65287 59.3407 9.76709 59.6282 9.76709C60.0072 9.76823 60.3791 9.869 60.7068 10.0593C61.0345 10.2496 61.3063 10.5227 61.4951 10.8512H42.2818C41.9943 10.8512 41.7185 10.9655 41.5152 11.1688C41.3119 11.3721 41.1977 11.6479 41.1977 11.9354C41.1977 12.2229 41.3119 12.4987 41.5152 12.702C41.7185 12.9053 41.9943 13.0195 42.2818 13.0195H62.8807V24.4963L57.0111 30.3659H34.5551L32.1895 13.0195H37.9452C38.2328 13.0195 38.5085 12.9053 38.7118 12.702C38.9152 12.4987 39.0294 12.2229 39.0294 11.9354C39.0294 11.6479 38.9152 11.3721 38.7118 11.1688C38.5085 10.9655 38.2328 10.8512 37.9452 10.8512H33.8255C33.9639 10.4481 34.1814 10.0766 34.4652 9.75851C34.749 9.44048 35.0935 9.18231 35.4784 8.99914C35.8634 8.81597 36.281 8.71149 36.7068 8.69182C37.1326 8.67215 37.5581 8.73769 37.9583 8.88459C38.1969 8.97124 38.4584 8.97138 38.6971 8.885C38.9359 8.79862 39.1367 8.63119 39.2646 8.4119C39.4353 8.09685 39.7097 7.85049 40.0412 7.71456C40.3728 7.57863 40.7411 7.56147 41.0839 7.66601C41.3537 7.73956 41.6416 7.70595 41.8873 7.5722C42.133 7.43844 42.3175 7.2149 42.4022 6.9483C42.5144 6.58066 42.7235 6.25003 43.0076 5.99114C43.2917 5.73225 43.6403 5.55465 44.0168 5.47701C44.3932 5.39937 44.7837 5.42454 45.147 5.5499C45.5104 5.67525 45.8333 5.89615 46.0818 6.1894C46.1962 6.32123 46.3408 6.42348 46.5033 6.48744C46.6657 6.5514 46.8412 6.57518 47.0148 6.55677C47.1884 6.53835 47.355 6.47828 47.5004 6.38167C47.6459 6.28505 47.7658 6.15475 47.85 6.00184C47.978 5.76883 48.1871 5.59097 48.4376 5.50205C48.5938 5.44729 48.7353 5.35752 48.8514 5.23961C48.9675 5.12171 49.055 4.9788 49.1074 4.82183C49.1597 4.66486 49.1754 4.49799 49.1533 4.33402C49.1311 4.17004 49.0718 4.01331 48.9797 3.87582C48.8542 3.69582 48.7868 3.48165 48.7867 3.26219C48.7835 3.11982 48.8083 2.9782 48.8597 2.84541C48.9112 2.71262 48.9883 2.59127 49.0866 2.48828C49.185 2.38529 49.3027 2.30268 49.433 2.24517C49.5632 2.18767 49.7036 2.15638 49.846 2.15311C50.1335 2.14649 50.4119 2.25437 50.6199 2.45301C50.7229 2.55137 50.8055 2.66905 50.863 2.79933C50.9205 2.92962 50.9518 3.06995 50.955 3.21232L50.9409 3.33483C50.9272 3.50749 50.9551 3.68091 51.0222 3.84058C51.0893 4.00026 51.1937 4.14153 51.3266 4.25257C51.4595 4.36362 51.6171 4.44121 51.7862 4.47883C51.9552 4.51646 52.1308 4.51304 52.2983 4.46885C53.0638 4.24908 53.8841 4.32657 54.595 4.68581C55.3058 5.04505 55.8547 5.65953 56.1319 6.40623C56.238 6.67363 56.4459 6.88794 56.71 7.002C56.9742 7.11606 57.2728 7.12053 57.5402 7.01443C57.8076 6.90833 58.0219 6.70035 58.1359 6.43624C58.25 6.17213 58.2545 5.87353 58.1484 5.60612C57.7466 4.56244 57.0282 3.67068 56.094 3.0559C55.1597 2.44112 54.0565 2.13415 52.939 2.17804C52.6671 1.40114 52.1108 0.756228 51.3821 0.373334C50.6535 -0.00955952 49.8068 -0.101953 49.0127 0.114784C48.2187 0.331522 47.5363 0.841267 47.1033 1.54124C46.6702 2.24122 46.5187 3.07935 46.6791 3.88666C46.188 3.58765 45.6419 3.39021 45.0731 3.30604C44.5042 3.22186 43.9243 3.25266 43.3676 3.39661C42.8109 3.54056 42.2888 3.79474 41.8321 4.14409C41.3754 4.49344 40.9934 4.93088 40.7087 5.43049C40.1847 5.42376 39.665 5.52633 39.1829 5.73166C38.7007 5.937 38.2667 6.24059 37.9084 6.62306C37.5638 6.55167 37.213 6.51535 36.8611 6.51464C35.7525 6.51881 34.6718 6.86277 33.7648 7.50016C32.8577 8.13756 32.1679 9.03773 31.7884 10.0793L31.4306 7.45243C31.3952 7.19262 31.2668 6.95444 31.0693 6.78202C30.8717 6.60959 30.6184 6.5146 30.3562 6.51464H24.9354C24.6479 6.51464 24.3722 6.62886 24.1688 6.83218C23.9655 7.0355 23.8513 7.31126 23.8513 7.59879C23.8513 7.88632 23.9655 8.16208 24.1688 8.3654C24.3722 8.56872 24.6479 8.68294 24.9354 8.68294H29.4097L32.3662 30.3659H29.1636L27.1037 11.8161C27.0743 11.5497 26.9472 11.3037 26.7469 11.1255C26.5467 10.9473 26.2876 10.8496 26.0196 10.8512H18.4305V8.68294H20.5988C20.8864 8.68294 21.1621 8.56872 21.3655 8.3654C21.5688 8.16208 21.683 7.88632 21.683 7.59879C21.683 7.31126 21.5688 7.0355 21.3655 6.83218C21.1621 6.62886 20.8864 6.51464 20.5988 6.51464H17.3464C17.0589 6.51464 16.7831 6.62886 16.5798 6.83218C16.3765 7.0355 16.2622 7.31126 16.2622 7.59879V11.9354C16.2622 12.2229 16.3765 12.4987 16.5798 12.702C16.7831 12.9053 17.0589 13.0195 17.3464 13.0195H25.0493L26.9769 30.3659H22.7671C22.4796 30.3659 22.2039 30.4802 22.0005 30.6835C21.7972 30.8868 21.683 31.1626 21.683 31.4501V36.8708H19.8562C19.243 35.5737 18.274 34.4774 17.0619 33.7097C15.8498 32.942 14.4446 32.5344 13.0098 32.5344C11.575 32.5344 10.1698 32.942 8.95769 33.7097C7.74561 34.4774 6.77656 35.5737 6.16339 36.8708H2.1683V30.3659H11.9256C13.3628 30.3642 14.7406 29.7925 15.7568 28.7763C16.773 27.7601 17.3447 26.3823 17.3464 24.9452V20.6086C17.3464 20.3211 17.2322 20.0453 17.0289 19.842C16.8255 19.6387 16.5498 19.5244 16.2622 19.5244C15.9747 19.5244 15.699 19.6387 15.4956 19.842C15.2923 20.0453 15.1781 20.3211 15.1781 20.6086V24.9452C15.1781 25.8078 14.8354 26.6351 14.2255 27.245C13.6155 27.855 12.7882 28.1976 11.9256 28.1976H2.1683V27.1135C2.17179 24.7148 3.05768 22.4011 4.65716 20.6135C6.25664 18.8259 8.45791 17.6892 10.8415 17.4201V24.9452C10.8415 25.2327 10.9557 25.5085 11.159 25.7118C11.3624 25.9151 11.6381 26.0293 11.9256 26.0293C12.2132 26.0293 12.4889 25.9151 12.6923 25.7118C12.8956 25.5085 13.0098 25.2327 13.0098 24.9452V17.3561H21.683V27.1135C21.683 27.401 21.7972 27.6768 22.0005 27.8801C22.2039 28.0834 22.4796 28.1976 22.7671 28.1976C23.0547 28.1976 23.3304 28.0834 23.5338 27.8801C23.7371 27.6768 23.8513 27.401 23.8513 27.1135V16.272C23.8513 15.9845 23.7371 15.7087 23.5338 15.5054C23.3304 15.3021 23.0547 15.1878 22.7671 15.1878H11.9256C8.76391 15.1916 5.73275 16.4492 3.49706 18.6849C1.26138 20.9206 0.00372999 23.9518 0 27.1135V37.955C0 38.2425 0.114223 38.5183 0.31754 38.7216C0.520858 38.9249 0.796615 39.0391 1.08415 39.0391H5.50748C5.34266 40.12 5.41332 41.2237 5.71463 42.2747C6.01594 43.3257 6.54078 44.2991 7.25323 45.1285C7.96568 45.9578 8.84892 46.6234 9.84248 47.0797C10.836 47.536 11.9165 47.7723 13.0098 47.7723C14.1031 47.7723 15.1836 47.536 16.1771 47.0797C17.1707 46.6234 18.0539 45.9578 18.7664 45.1285C19.4788 44.2991 20.0037 43.3257 20.305 42.2747C20.6063 41.2237 20.6769 40.12 20.5121 39.0391H21.683V42.2916C21.683 42.5791 21.7972 42.8549 22.0005 43.0582C22.2039 43.2615 22.4796 43.3757 22.7671 43.3757H29.272C29.5596 43.3757 29.8353 43.2615 30.0387 43.0582C30.242 42.8549 30.3562 42.5791 30.3562 42.2916V39.0391H31.5271C31.252 40.9354 31.7038 42.8657 32.7919 44.4429C33.88 46.0201 35.524 47.1278 37.3945 47.5439C39.2649 47.96 41.2235 47.6538 42.8776 46.6867C44.5318 45.7196 45.7593 44.1629 46.3141 42.3289C46.8689 40.4948 46.71 38.5188 45.8693 36.7969C45.0285 35.0751 43.5681 33.7346 41.7806 33.0442C39.9932 32.3538 38.0108 32.3645 36.2309 33.0742C34.451 33.7838 33.0051 35.14 32.183 36.8708H30.3562V32.5342H62.8807V36.2344C61.8943 34.5653 60.3216 33.3234 58.4692 32.751C56.6168 32.1786 54.6177 32.3168 52.8616 33.1386C51.1056 33.9603 49.7186 35.4068 48.9713 37.1957C48.224 38.9847 48.1698 40.9879 48.8195 42.8147C49.4691 44.6414 50.7759 46.1606 52.485 47.076C54.1941 47.9914 56.1829 48.2374 58.0635 47.7659C59.944 47.2944 61.5816 46.1392 62.6566 44.5258C63.7317 42.9123 64.1671 40.9563 63.8781 39.0391H63.9648C64.2524 39.0391 64.5281 38.9249 64.7314 38.7216C64.9348 38.5183 65.049 38.2425 65.049 37.955V31.4501C65.049 31.1626 64.9348 30.8868 64.7314 30.6835C64.5281 30.4802 64.2524 30.3659 63.9648 30.3659H60.0771L64.7313 25.7117C64.9347 25.5084 65.0489 25.2327 65.049 24.9452ZM13.0098 45.544C11.9377 45.544 10.8896 45.2261 9.99819 44.6305C9.10675 44.0348 8.41196 43.1882 8.00168 42.1977C7.59139 41.2072 7.48405 40.1173 7.69321 39.0657C7.90237 38.0142 8.41864 37.0483 9.17675 36.2902C9.93485 35.5321 10.9007 35.0159 11.9523 34.8067C13.0038 34.5975 14.0937 34.7049 15.0842 35.1152C16.0747 35.5255 16.9213 36.2202 17.517 37.1117C18.1126 38.0031 18.4305 39.0512 18.4305 40.1233C18.4288 41.5604 17.8572 42.9382 16.8409 43.9544C15.8247 44.9706 14.4469 45.5423 13.0098 45.544ZM39.0294 34.7025C40.1015 34.7025 41.1496 35.0205 42.041 35.6161C42.9324 36.2117 43.6272 37.0583 44.0375 38.0489C44.4478 39.0394 44.5551 40.1293 44.346 41.1808C44.1368 42.2323 43.6205 43.1982 42.8624 43.9563C42.1043 44.7144 41.1384 45.2307 40.0869 45.4399C39.0354 45.649 37.9455 45.5417 36.955 45.1314C35.9644 44.7211 35.1178 44.0263 34.5222 43.1349C33.9266 42.2435 33.6086 41.1954 33.6086 40.1233C33.6104 38.6861 34.182 37.3084 35.1982 36.2921C36.2145 35.2759 37.5922 34.7043 39.0294 34.7025ZM28.1879 41.2074H23.8513V39.0391H28.1879V41.2074ZM28.1879 36.8708H23.8513V32.5342H28.1879V36.8708ZM56.3758 45.544C55.3037 45.544 54.2556 45.2261 53.3642 44.6305C52.4727 44.0348 51.778 43.1882 51.3677 42.1977C50.9574 41.2072 50.85 40.1173 51.0592 39.0657C51.2684 38.0142 51.7846 37.0483 52.5427 36.2902C53.3008 35.5321 54.2667 35.0159 55.3182 34.8067C56.3698 34.5975 57.4597 34.7049 58.4502 35.1152C59.4407 35.5255 60.2873 36.2202 60.883 37.1117C61.4786 38.0031 61.7965 39.0512 61.7965 40.1233C61.7948 41.5604 61.2231 42.9382 60.2069 43.9544C59.1907 44.9706 57.8129 45.5423 56.3758 45.544Z" fill="#219653"/>
<path d="M40.8248 19.9354C40.8509 20.0766 40.9049 20.2113 40.9836 20.3315C41.0622 20.4518 41.164 20.5552 41.283 20.6357C41.4019 20.7163 41.5357 20.7724 41.6765 20.8008C41.8174 20.8292 41.9625 20.8293 42.1034 20.8012C42.2442 20.773 42.3781 20.7171 42.4972 20.6367C42.6163 20.5564 42.7183 20.4532 42.7971 20.3331C42.876 20.213 42.9302 20.0784 42.9566 19.9371C42.9829 19.7959 42.981 19.6508 42.9508 19.5104L42.2602 16.0552C42.2102 15.8103 42.0772 15.5902 41.8836 15.4322C41.6899 15.2741 41.4477 15.1878 41.1977 15.1879H35.777C35.6162 15.1878 35.4574 15.2236 35.3122 15.2925C35.1669 15.3614 35.0388 15.4617 34.9371 15.5863C34.8354 15.7108 34.7626 15.8564 34.7241 16.0125C34.6857 16.1686 34.6824 16.3313 34.7145 16.4888L36.8828 27.3303C36.9328 27.5752 37.0659 27.7953 37.2595 27.9534C37.4531 28.1114 37.6954 28.1977 37.9453 28.1977H43.366C43.5268 28.1977 43.6856 28.162 43.8309 28.0931C43.9761 28.0242 44.1043 27.9238 44.206 27.7993C44.3077 27.6747 44.3804 27.5291 44.4189 27.373C44.4574 27.2169 44.4607 27.0542 44.4285 26.8967L43.8019 23.7635C43.7757 23.6222 43.7218 23.4875 43.6431 23.3673C43.5645 23.2471 43.4627 23.1437 43.3437 23.0631C43.2248 22.9826 43.091 22.9264 42.9501 22.898C42.8093 22.8697 42.6642 22.8695 42.5233 22.8977C42.3824 22.9259 42.2485 22.9817 42.1294 23.0621C42.0103 23.1425 41.9084 23.2457 41.8296 23.3658C41.7507 23.4859 41.6965 23.6205 41.6701 23.7617C41.6437 23.9029 41.6457 24.048 41.6759 24.1885L42.0434 26.0294H38.8332L37.0986 17.3562H40.3087L40.8248 19.9354Z" fill="#219653"/>
<path d="M47.7026 28.1977H53.1234C53.2842 28.1977 53.4429 28.162 53.5882 28.0931C53.7335 28.0242 53.8616 27.9238 53.9633 27.7993C54.065 27.6747 54.1377 27.5291 54.1762 27.373C54.2147 27.2169 54.218 27.0542 54.1858 26.8967L52.0175 16.0552C51.9676 15.8103 51.8345 15.5902 51.6409 15.4322C51.4473 15.2741 51.205 15.1878 50.9551 15.1879H45.5343C45.3735 15.1878 45.2148 15.2236 45.0695 15.2925C44.9242 15.3614 44.7961 15.4617 44.6944 15.5863C44.5927 15.7108 44.52 15.8564 44.4815 16.0125C44.443 16.1686 44.4397 16.3313 44.4719 16.4888L46.6402 27.3303C46.6901 27.5752 46.8232 27.7953 47.0168 27.9534C47.2104 28.1114 47.4527 28.1977 47.7026 28.1977ZM50.0672 17.3562L51.8018 26.0294H48.5905L46.8559 17.3562H50.0672Z" fill="#219653"/>
<path d="M56.3757 24.9452H59.6282C59.9157 24.9452 60.1915 24.831 60.3948 24.6277C60.5981 24.4244 60.7123 24.1486 60.7123 23.8611V16.272C60.7123 15.9845 60.5981 15.7087 60.3948 15.5054C60.1915 15.3021 59.9157 15.1879 59.6282 15.1879H55.2916C55.1362 15.1878 54.9826 15.2212 54.8412 15.2858C54.6999 15.3503 54.574 15.4444 54.4722 15.5619C54.3705 15.6793 54.2951 15.8172 54.2513 15.9663C54.2075 16.1154 54.1962 16.2721 54.2183 16.426L55.3024 24.015C55.3395 24.2733 55.4684 24.5095 55.6655 24.6803C55.8627 24.8512 56.1148 24.9452 56.3757 24.9452ZM58.544 17.3562V22.7769H57.3157L56.5416 17.3562H58.544Z" fill="#219653"/>
<path d="M39.0293 43.3757C39.6726 43.3757 40.3014 43.185 40.8363 42.8276C41.3711 42.4702 41.788 41.9623 42.0342 41.368C42.2803 40.7736 42.3448 40.1197 42.2193 39.4888C42.0938 38.8579 41.784 38.2783 41.3291 37.8235C40.8743 37.3686 40.2947 37.0588 39.6638 36.9333C39.0329 36.8078 38.379 36.8723 37.7846 37.1184C37.1903 37.3646 36.6824 37.7815 36.325 38.3163C35.9676 38.8512 35.7769 39.48 35.7769 40.1233C35.7769 40.9859 36.1195 41.8132 36.7295 42.4231C37.3394 43.0331 38.1667 43.3757 39.0293 43.3757ZM39.0293 39.0392C39.2437 39.0392 39.4533 39.1027 39.6316 39.2219C39.8099 39.341 39.9489 39.5103 40.0309 39.7084C40.113 39.9065 40.1345 40.1245 40.0926 40.3348C40.0508 40.5451 39.9475 40.7383 39.7959 40.8899C39.6443 41.0415 39.4511 41.1448 39.2408 41.1866C39.0305 41.2285 38.8125 41.207 38.6144 41.1249C38.4163 41.0429 38.247 40.9039 38.1279 40.7256C38.0087 40.5473 37.9452 40.3377 37.9452 40.1233C37.9452 39.8358 38.0594 39.56 38.2627 39.3567C38.466 39.1534 38.7418 39.0392 39.0293 39.0392Z" fill="#219653"/>
<path d="M56.3757 36.8708C55.7325 36.8708 55.1036 37.0616 54.5688 37.419C54.0339 37.7764 53.617 38.2843 53.3709 38.8786C53.1247 39.4729 53.0603 40.1269 53.1858 40.7578C53.3113 41.3887 53.6211 41.9683 54.0759 42.4231C54.5308 42.878 55.1103 43.1878 55.7412 43.3133C56.3721 43.4387 57.0261 43.3743 57.6204 43.1282C58.2147 42.882 58.7227 42.4651 59.0801 41.9303C59.4374 41.3954 59.6282 40.7666 59.6282 40.1233C59.6282 39.2607 59.2855 38.4334 58.6756 37.8235C58.0656 37.2135 57.2383 36.8708 56.3757 36.8708ZM56.3757 41.2074C56.1613 41.2074 55.9517 41.1439 55.7734 41.0247C55.5951 40.9056 55.4562 40.7363 55.3741 40.5382C55.2921 40.3401 55.2706 40.1221 55.3124 39.9118C55.3543 39.7015 55.4575 39.5083 55.6091 39.3567C55.7608 39.2051 55.9539 39.1018 56.1642 39.06C56.3745 39.0181 56.5925 39.0396 56.7906 39.1217C56.9887 39.2037 57.1581 39.3427 57.2772 39.521C57.3963 39.6993 57.4599 39.9089 57.4599 40.1233C57.4599 40.4108 57.3457 40.6866 57.1424 40.8899C56.939 41.0932 56.6633 41.2074 56.3757 41.2074Z" fill="#219653"/>
<path d="M13.0098 36.8708C12.3665 36.8708 11.7377 37.0616 11.2028 37.419C10.6679 37.7764 10.2511 38.2843 10.0049 38.8786C9.75873 39.4729 9.69432 40.1269 9.81982 40.7578C9.94532 41.3887 10.2551 41.9683 10.7099 42.4231C11.1648 42.878 11.7443 43.1878 12.3753 43.3133C13.0062 43.4387 13.6601 43.3743 14.2544 43.1282C14.8487 42.882 15.3567 42.4651 15.7141 41.9303C16.0715 41.3954 16.2622 40.7666 16.2622 40.1233C16.2622 39.2607 15.9196 38.4334 15.3096 37.8235C14.6997 37.2135 13.8724 36.8708 13.0098 36.8708ZM13.0098 41.2074C12.7954 41.2074 12.5857 41.1439 12.4075 41.0247C12.2292 40.9056 12.0902 40.7363 12.0082 40.5382C11.9261 40.3401 11.9046 40.1221 11.9465 39.9118C11.9883 39.7015 12.0915 39.5083 12.2432 39.3567C12.3948 39.2051 12.588 39.1018 12.7983 39.06C13.0086 39.0181 13.2266 39.0396 13.4247 39.1217C13.6228 39.2037 13.7921 39.3427 13.9112 39.521C14.0303 39.6993 14.0939 39.9089 14.0939 40.1233C14.0939 40.4108 13.9797 40.6866 13.7764 40.8899C13.5731 41.0932 13.2973 41.2074 13.0098 41.2074Z" fill="#219653"/>
</svg>
