<svg width="26" height="19" viewBox="0 0 26 19" fill="none" xmlns="http://www.w3.org/2000/svg">
<path d="M22.9583 0H2.37501C1.06535 0 0 1.06535 0 2.37501V16.625C0 17.9347 1.06535 19 2.37501 19H22.9583C24.2679 19 25.3333 17.9347 25.3333 16.625V2.37501C25.3333 1.06535 24.2679 0 22.9583 0ZM22.9583 1.58332C23.0658 1.58332 23.1682 1.60564 23.2617 1.64461L12.6666 10.8274L2.07153 1.64461C2.16507 1.60569 2.2674 1.58332 2.37496 1.58332H22.9583ZM22.9583 17.4166H2.37501C1.93821 17.4166 1.58332 17.0618 1.58332 16.6249V3.31741L12.1479 12.4734C12.2971 12.6025 12.4819 12.6666 12.6666 12.6666C12.8514 12.6666 13.0362 12.6025 13.1854 12.4734L23.75 3.31741V16.625C23.7499 17.0618 23.3951 17.4166 22.9583 17.4166Z" fill="#219653"/>
</svg>
