<svg width="29" height="22" viewBox="0 0 29 22" fill="none" xmlns="http://www.w3.org/2000/svg">
<path d="M26.3436 0H2.53846C2.14771 0 1.78189 0.0960668 1.45093 0.25441L14.3846 13.1881L17.2835 10.4022C17.2835 10.4022 17.2837 10.4019 17.2838 10.4018C17.2838 10.4017 17.284 10.4015 17.284 10.4015L27.4315 0.254636C27.1005 0.0961795 26.7345 0 26.3436 0Z" fill="#219653"/>
<path d="M28.628 1.45142L19.0787 11.0002L28.6276 20.5492C28.786 20.2182 28.8821 19.8524 28.8821 19.4616V2.53855C28.8821 2.14803 28.7862 1.78226 28.628 1.45142Z" fill="#219653"/>
<path d="M0.25441 1.45093C0.0960667 1.78189 0 2.14771 0 2.53846V19.4615C0 19.8521 0.0959539 20.2179 0.254185 20.5488L9.80348 11L0.25441 1.45093Z" fill="#219653"/>
<path d="M17.8822 12.1966L14.9829 14.9829C14.8176 15.1482 14.6011 15.2308 14.3847 15.2308C14.1682 15.2308 13.9517 15.1482 13.7864 14.9829L11 12.1965L1.45053 21.7454C1.78155 21.9038 2.14759 22 2.53846 22H26.3436C26.7343 22 27.1002 21.9039 27.4311 21.7456L17.8822 12.1966Z" fill="#219653"/>
</svg>
