<svg width="17" height="17" viewBox="0 0 17 17" fill="none" xmlns="http://www.w3.org/2000/svg">
<path d="M16.5194 12.4763L14.147 10.1039C13.2998 9.25659 11.8594 9.59554 11.5205 10.697C11.2663 11.4596 10.419 11.8832 9.65643 11.7137C7.96186 11.2901 5.67419 9.08713 5.25055 7.30783C4.99636 6.54524 5.50473 5.69796 6.26729 5.44381C7.36876 5.10489 7.70767 3.66451 6.86039 2.81722L4.48799 0.444825C3.81016 -0.148275 2.79342 -0.148275 2.20032 0.444825L0.590479 2.05467C-1.01936 3.74924 0.759936 8.23985 4.74218 12.2221C8.72441 16.2043 13.215 18.0684 14.9096 16.3738L16.5194 14.7639C17.1126 14.0861 17.1126 13.0694 16.5194 12.4763Z" fill="#844428"/>
</svg>
