<svg width="32" height="32" viewBox="0 0 32 32" fill="none" xmlns="http://www.w3.org/2000/svg">
<path d="M22.9983 32C21.9653 32 20.9411 31.8174 19.9396 31.4535C15.5274 29.8507 11.4319 27.2402 8.09583 23.9041C4.75971 20.5681 2.1492 16.4726 0.54645 12.0604C0.0314089 10.6424 -0.120585 9.17875 0.0948438 7.70981C0.296648 6.33387 0.829626 4.99811 1.63622 3.8469C2.44637 2.69064 3.52645 1.72893 4.75965 1.06577C6.07472 0.35861 7.5101 0 9.02604 0C9.49752 0 9.905 0.329424 10.0038 0.790405L11.5734 8.11504C11.6444 8.44672 11.5425 8.79183 11.3027 9.03169L8.62074 11.7136C11.1508 16.7438 15.2561 20.8491 20.2863 23.3791L22.9682 20.6972C23.208 20.4573 23.5531 20.3555 23.8848 20.4265L31.2094 21.996C31.6705 22.0948 31.9998 22.5023 31.9998 22.9738C31.9998 24.4897 31.6412 25.9252 30.934 27.2403C30.2709 28.4735 29.3091 29.5535 28.1529 30.3637C27.0017 31.1703 25.666 31.7033 24.29 31.9051C23.8588 31.9684 23.4277 31.9999 22.9983 32ZM8.22707 2.04367C6.22747 2.26441 4.45266 3.31249 3.27409 4.99461C1.94877 6.88609 1.63972 9.21256 2.42619 11.3776C5.50756 19.8601 12.1398 26.4924 20.6224 29.5738C22.7873 30.3603 25.1139 30.0513 27.0054 28.7259C28.6875 27.5473 29.7356 25.7725 29.9563 23.7729L23.9977 22.4961L21.1969 25.297C20.8988 25.595 20.4459 25.6742 20.0646 25.495C14.1155 22.7001 9.2999 17.8845 6.50502 11.9354C6.32584 11.554 6.40496 11.1011 6.70301 10.8031L9.50389 8.00223L8.22707 2.04367Z" fill="#219653"/>
<path d="M31 16.9993C30.4477 16.9993 30 16.5516 30 15.9993C30 8.28004 23.7199 1.99992 16.0006 1.99992C15.4483 1.99992 15.0006 1.55219 15.0006 0.999959C15.0006 0.447732 15.4483 0 16.0006 0C20.2742 0 24.292 1.66418 27.3139 4.68606C30.3357 7.70793 31.9999 11.7257 31.9999 15.9993C31.9999 16.5516 31.5522 16.9993 31 16.9993Z" fill="#219653"/>
<path d="M27.0001 16.9992C26.4479 16.9992 26.0002 16.5515 26.0002 15.9993C26.0002 10.4855 21.5143 5.99967 16.0006 5.99967C15.4483 5.99967 15.0006 5.55194 15.0006 4.99971C15.0006 4.44749 15.4483 3.99976 16.0006 3.99976C22.6171 3.99976 28.0001 9.38272 28.0001 15.9993C28.0001 16.5515 27.5524 16.9992 27.0001 16.9992Z" fill="#219653"/>
<path d="M23.0003 16.9994C22.4481 16.9994 22.0003 16.5517 22.0003 15.9994C22.0003 12.6911 19.3089 9.99967 16.0006 9.99967C15.4483 9.99967 15.0006 9.55194 15.0006 8.99971C15.0006 8.44749 15.4483 7.99976 16.0006 7.99976C20.4116 7.99976 24.0002 11.5884 24.0002 15.9994C24.0002 16.5517 23.5526 16.9994 23.0003 16.9994Z" fill="#219653"/>
</svg>
