<svg width="19" height="19" viewBox="0 0 19 19" fill="none" xmlns="http://www.w3.org/2000/svg">
<path d="M18.4629 13.9441L15.8114 11.2926C14.8644 10.3456 13.2546 10.7244 12.8758 11.9554C12.5917 12.8077 11.6447 13.2812 10.7925 13.0918C8.89855 12.6183 6.34174 10.1562 5.86826 8.16758C5.58417 7.31527 6.15235 6.36831 7.00462 6.08425C8.23567 5.70547 8.61446 4.09563 7.66749 3.14866L5.01599 0.497157C4.25842 -0.165719 3.12206 -0.165719 2.45918 0.497157L0.659947 2.29639C-1.13929 4.19032 0.84934 9.20924 5.30008 13.66C9.75082 18.1107 14.7697 20.1941 16.6637 18.3001L18.4629 16.5009C19.1258 15.7433 19.1258 14.6069 18.4629 13.9441Z" fill="#219653"/>
</svg>
