<svg width="49" height="48" viewBox="0 0 49 48" fill="none" xmlns="http://www.w3.org/2000/svg">
<path d="M48.0377 19.6877H39.7969C34.0314 19.6877 28.7154 22.5002 25.425 27.1969V40.9689H22.6125V35.6344C19.3221 30.9377 14.0061 28.1252 8.24063 28.1252H0C0.197063 27.844 1.82822 19.6877 9.95634 19.6877C15.1594 19.6877 19.4345 23.7658 19.772 28.8846C20.7845 29.5877 21.7406 30.3752 22.6126 31.247V18.2814C22.6126 14.4002 19.4626 11.2502 15.5813 11.2502H8.55009V9.8439C8.55009 5.96265 11.7001 2.81265 15.5813 2.81265C19.4626 2.81265 22.6126 5.96265 22.6126 9.8439C22.6126 10.3219 22.5563 10.8002 22.4719 11.2502C22.7534 11.5313 22.9783 11.8409 23.2313 12.1502C23.4565 11.5594 23.7096 10.9969 24.0189 10.4626C24.4409 9.7315 24.9755 9.02837 25.5659 8.43765C25.4814 7.98775 25.4252 7.50943 25.4252 7.0314C25.4252 3.15015 28.5752 0.000152588 32.4564 0.000152588C36.3377 0.000152588 39.4877 3.15015 39.4877 7.0314V8.43765H32.4564C28.5752 8.43765 25.4252 11.5877 25.4252 15.4689V22.8095C26.2973 21.9377 27.2534 21.1502 28.2658 20.4471C28.6596 15.2439 32.9062 11.2502 38.0814 11.2502C46.2377 11.2502 47.8125 19.3502 48.0377 19.6877Z" fill="#97DE3D"/>
<path d="M48.0377 19.6875H39.7969C34.0314 19.6875 28.7154 22.5 25.425 27.1968V40.9688H24.0187V10.4624C24.4407 9.73135 24.9753 9.02822 25.5657 8.4375C25.4812 7.98759 25.425 7.50928 25.425 7.03125C25.425 3.15 28.575 0 32.4562 0C36.3375 0 39.4875 3.15 39.4875 7.03125V8.4375H32.4562C28.575 8.4375 25.425 11.5875 25.425 15.4688V22.8094C26.2971 21.9375 27.2532 21.1501 28.2656 20.447C28.6594 15.2438 32.906 11.25 38.0812 11.25C46.2377 11.25 47.8125 19.35 48.0377 19.6875Z" fill="#59C36A"/>
<path d="M40.8939 45.1875C37.1008 45.1875 35.31 43.9942 33.2364 42.6113C31.094 41.1817 28.6633 39.5625 24.0189 39.5625C19.3744 39.5625 16.9436 41.1817 14.8014 42.6113C12.7277 43.9942 10.9369 45.1875 7.14386 45.1875H2.92511V48H45.1126V45.1875H40.8939Z" fill="#704C55"/>
<path d="M45.1126 48V45.1875H40.8939C37.1008 45.1875 35.31 43.9942 33.2364 42.6113C31.094 41.1817 28.6633 39.5625 24.0189 39.5625V48C24.5167 48 46.0338 48 45.1126 48Z" fill="#5A344B"/>
</svg>
