<svg width="48" height="48" viewBox="0 0 48 48" fill="none" xmlns="http://www.w3.org/2000/svg">
<path d="M43.909 16.5883C44.9713 15.5834 45.6393 14.1647 45.6393 12.5901C45.6393 9.55273 43.1685 7.08191 40.1311 7.08191C37.0938 7.08191 34.623 9.55273 34.623 12.5901C34.623 14.5227 35.6254 16.2232 37.1355 17.206C36.0952 17.915 35.4098 19.1079 35.4098 20.459V25.9672H32.2623V22.0327C32.2623 19.2173 30.1377 16.8912 27.4072 16.567C28.4569 15.5637 29.1148 14.1536 29.1148 12.5901C29.1148 9.55273 26.6439 7.08191 23.6066 7.08191C20.5692 7.08191 18.0984 9.55273 18.0984 12.5901C18.0984 14.1536 18.7562 15.5637 19.8059 16.567C17.0754 16.8912 14.9508 19.2173 14.9508 22.0327V25.9672H11.8033V20.459C11.8033 19.1079 11.1179 17.915 10.0776 17.206C11.5877 16.2232 12.5902 14.5227 12.5902 12.5901C12.5902 9.55273 10.1193 7.08191 7.08197 7.08191C4.04459 7.08191 1.57377 9.55273 1.57377 12.5901C1.57377 14.1647 2.24184 15.5834 3.30413 16.5883C1.43528 16.892 0 18.5051 0 20.459V32.2622C0 34.1618 1.35423 35.7513 3.14754 36.1172V47.9999H4.72131V36.1967H11.8033V47.2131C11.8033 47.6474 12.1558 47.9999 12.5902 47.9999H17.3115C17.7458 47.9999 18.0984 47.6474 18.0984 47.2131V34.6229H22.8197V46.4262H19.6721V47.9999H27.541V46.4262H24.3934V34.6229H29.1148V47.2131C29.1148 47.6474 29.4673 47.9999 29.9016 47.9999H34.623C35.0573 47.9999 35.4098 47.6474 35.4098 47.2131V36.1967H42.4918V47.9999H44.0656V36.1172C45.8589 35.7513 47.2131 34.1626 47.2131 32.2622V20.459C47.2131 18.5051 45.7778 16.892 43.909 16.5883ZM36.1967 12.5901C36.1967 10.4207 37.9617 8.65568 40.1311 8.65568C42.3006 8.65568 44.0656 10.4207 44.0656 12.5901C44.0656 14.7595 42.3006 16.5245 40.1311 16.5245C37.9617 16.5245 36.1967 14.7595 36.1967 12.5901ZM19.6721 12.5901C19.6721 10.4207 21.4371 8.65568 23.6066 8.65568C25.776 8.65568 27.541 10.4207 27.541 12.5901C27.541 14.7595 25.776 16.5245 23.6066 16.5245C21.4371 16.5245 19.6721 14.7595 19.6721 12.5901ZM24.8317 18.0983L23.6066 21.3655L22.3814 18.0983H24.8317ZM16.5246 22.0327C16.5246 19.8633 18.2896 18.0983 20.459 18.0983H20.7006L22.87 23.8827C22.9849 24.1896 23.2784 24.3934 23.6066 24.3934C23.9347 24.3934 24.2282 24.1896 24.3439 23.8827L26.5125 18.0983H26.7541C28.9235 18.0983 30.6885 19.8633 30.6885 22.0327V25.9672H27.541C27.1066 25.9672 26.7541 26.3197 26.7541 26.754V29.9016H20.459V26.754C20.459 26.3197 20.1065 25.9672 19.6721 25.9672H16.5246V22.0327ZM3.14754 12.5901C3.14754 10.4207 4.91252 8.65568 7.08197 8.65568C9.25141 8.65568 11.0164 10.4207 11.0164 12.5901C11.0164 14.7595 9.25141 16.5245 7.08197 16.5245C4.91252 16.5245 3.14754 14.7595 3.14754 12.5901ZM16.5246 46.4262H13.377V35.4098C13.377 34.9754 13.0245 34.6229 12.5902 34.6229H3.93443C2.63292 34.6229 1.57377 33.5637 1.57377 32.2622V20.459C1.57377 19.1575 2.63292 18.0983 3.93443 18.0983H7.86885C9.17036 18.0983 10.2295 19.1575 10.2295 20.459V26.754C10.2295 27.1884 10.582 27.5409 11.0164 27.5409H18.8852V29.9016H7.86885V22.8196H6.29508V30.6885C6.29508 31.1228 6.64761 31.4754 7.08197 31.4754H14.1639C15.4654 31.4754 16.5246 32.5345 16.5246 33.836V46.4262ZM29.2029 33.0491H18.0102C17.8914 32.4692 17.653 31.9325 17.3099 31.4754H19.6721H27.541H29.9032C29.5601 31.9325 29.3217 32.4692 29.2029 33.0491ZM45.6393 32.2622C45.6393 33.5637 44.5802 34.6229 43.2787 34.6229H34.623C34.1886 34.6229 33.8361 34.9754 33.8361 35.4098V46.4262H30.6885V33.836C30.6885 32.5345 31.7477 31.4754 33.0492 31.4754H40.1311C40.5655 31.4754 40.918 31.1228 40.918 30.6885V22.8196H39.3443V29.9016H28.3279V27.5409H36.1967C36.6311 27.5409 36.9836 27.1884 36.9836 26.754V20.459C36.9836 19.1575 38.0428 18.0983 39.3443 18.0983H43.2787C44.5802 18.0983 45.6393 19.1575 45.6393 20.459V32.2622Z" fill="#219653"/>
<path d="M24.3936 25.9672H22.8198V27.5409H24.3936V25.9672Z" fill="#219653"/>
<path d="M19.6719 0H8.65554C8.22118 0 7.86865 0.352525 7.86865 0.786885V4.72131C7.86865 5.15567 8.22118 5.5082 8.65554 5.5082H11.8031V7.08197C11.8031 7.3802 11.9715 7.65246 12.2382 7.78623C12.3492 7.84131 12.4704 7.86885 12.59 7.86885C12.7568 7.86885 12.9228 7.81534 13.0621 7.71148L15.9995 5.5082H19.6719C20.1063 5.5082 20.4588 5.15567 20.4588 4.72131V0.786885C20.4588 0.352525 20.1063 0 19.6719 0ZM18.885 3.93443H15.7375C15.5675 3.93443 15.4015 3.98951 15.2654 4.0918L13.3768 5.5082V4.72131C13.3768 4.28695 13.0243 3.93443 12.59 3.93443H9.44242V1.57377H18.885V3.93443Z" fill="#219653"/>
<path d="M29.1148 2.3606H27.541V3.93437H29.1148V2.3606Z" fill="#219653"/>
<path d="M32.2622 2.3606H30.6885V3.93437H32.2622V2.3606Z" fill="#219653"/>
<path d="M35.4097 2.3606H33.8359V3.93437H35.4097V2.3606Z" fill="#219653"/>
</svg>
