<svg width="48" height="24" viewBox="0 0 48 24" fill="none" xmlns="http://www.w3.org/2000/svg">
<path d="M1.87497 13.5L41.5835 13.5L35.0057 20.046C34.2717 20.7765 34.2689 21.9637 34.9994 22.6976C35.7299 23.4317 36.9171 23.4344 37.6511 22.704L47.4483 12.954C47.449 12.9534 47.4495 12.9528 47.45 12.9522C48.1821 12.2217 48.1845 11.0307 47.4502 10.2978C47.4496 10.2972 47.4491 10.2966 47.4485 10.296L37.6513 0.546009C36.9174 -0.184303 35.7302 -0.181772 34.9996 0.552383C34.2691 1.28635 34.2719 2.47351 35.0058 3.20401L41.5835 9.75001L1.87497 9.75001C0.839405 9.75001 -3.43323e-05 10.5894 -3.43323e-05 11.625C-3.43323e-05 12.6606 0.839405 13.5 1.87497 13.5Z" fill="#219653"/>
</svg>
