<svg width="48" height="24" viewBox="0 0 48 24" fill="none" xmlns="http://www.w3.org/2000/svg">
<path d="M46.125 9.99999H6.41647L12.9943 3.45399C13.7283 2.72349 13.7311 1.53634 13.0006 0.802368C12.2701 0.0683058 11.0829 0.0655877 10.3489 0.795994L0.551661 10.546C0.551004 10.5466 0.550536 10.5472 0.549973 10.5478C-0.182121 11.2783 -0.184464 12.4693 0.549785 13.2022C0.550442 13.2028 0.550911 13.2034 0.551473 13.204L10.3487 22.954C11.0826 23.6843 12.2698 23.6818 13.0004 22.9476C13.7309 22.2136 13.7281 21.0265 12.9942 20.296L6.41647 13.75H46.125C47.1606 13.75 48 12.9106 48 11.875C48 10.8394 47.1606 9.99999 46.125 9.99999Z" fill="#219653"/>
</svg>
