<svg width="37" height="37" viewBox="0 0 37 37" fill="none" xmlns="http://www.w3.org/2000/svg">
<path d="M19.77 18.7405L27.06 11.4505C27.2238 11.2592 27.3094 11.0131 27.2997 10.7614C27.2899 10.5098 27.1856 10.271 27.0075 10.0929C26.8294 9.91484 26.5907 9.81051 26.339 9.80078C26.0873 9.79106 25.8413 9.87667 25.65 10.0405L18.36 17.3305L11.07 10.0305C10.8787 9.86667 10.6326 9.78106 10.3809 9.79078C10.1292 9.80051 9.89049 9.90484 9.7124 10.0829C9.5343 10.261 9.42997 10.4998 9.42025 10.7514C9.41053 11.0031 9.49613 11.2492 9.65996 11.4405L16.95 18.7405L9.64996 26.0305C9.54528 26.1201 9.46026 26.2305 9.40023 26.3545C9.34021 26.4786 9.30648 26.6137 9.30116 26.7514C9.29584 26.8892 9.31905 27.0265 9.36932 27.1548C9.4196 27.2831 9.49585 27.3997 9.59331 27.4971C9.69076 27.5946 9.80731 27.6709 9.93564 27.7211C10.064 27.7714 10.2013 27.7946 10.339 27.7893C10.4767 27.784 10.6119 27.7502 10.7359 27.6902C10.86 27.6302 10.9703 27.5452 11.06 27.4405L18.36 20.1505L25.65 27.4405C25.8413 27.6043 26.0873 27.6899 26.339 27.6802C26.5907 27.6705 26.8294 27.5662 27.0075 27.3881C27.1856 27.21 27.2899 26.9712 27.2997 26.7195C27.3094 26.4679 27.2238 26.2218 27.06 26.0305L19.77 18.7405Z" fill="black"/>
</svg>
