<svg width="20" height="21" viewBox="0 0 20 21" fill="none" xmlns="http://www.w3.org/2000/svg">
<path d="M0.936245 2.70437L0.968355 2.6843L5.0274 0.68457L9.40848 6.52599L7.39285 9.21367C7.45317 10.2273 7.88301 11.1836 8.60099 11.9015C9.31898 12.6195 10.2753 13.0493 11.2889 13.1096L13.9765 11.094L19.8179 15.475L17.8348 19.5001L17.8181 19.5341L17.798 19.5662C17.6922 19.7367 17.5444 19.8773 17.3689 19.9746C17.1934 20.0718 16.9959 20.1226 16.7952 20.1219H15.7478C13.7297 20.1219 11.7314 19.7245 9.86698 18.9522C8.00253 18.1799 6.30845 17.0479 4.88146 15.6209C3.45447 14.194 2.32253 12.4999 1.55025 10.6354C0.777973 8.77096 0.380487 6.77265 0.380495 4.75459V3.70716C0.379852 3.50648 0.430586 3.30897 0.527866 3.13344C0.625145 2.95791 0.765732 2.8102 0.936245 2.70437ZM1.8805 4.75459C1.8805 12.4011 8.10137 18.6219 15.7478 18.6219H16.5953L17.9222 15.9284L13.9762 12.9689L11.7793 14.6165H11.5293C10.033 14.6148 8.5985 14.0197 7.54045 12.9617C6.48241 11.9036 5.88726 10.4691 5.88559 8.97277V8.72279L7.5332 6.52595L4.57407 2.58024L1.8805 3.90732V4.75459Z" fill="black"/>
</svg>
