<svg width="378" height="316" viewBox="0 0 378 316" fill="none" xmlns="http://www.w3.org/2000/svg">
<circle cx="19.5932" cy="260.569" r="4" transform="rotate(-31.5995 19.5932 260.569)" fill="#448CDB"/>
<circle cx="29.351" cy="254.566" r="4" transform="rotate(-31.5995 29.351 254.566)" fill="#448CDB"/>
<circle cx="39.1088" cy="248.563" r="4" transform="rotate(-31.5995 39.1088 248.563)" fill="#448CDB"/>
<circle cx="48.8671" cy="242.56" r="4" transform="rotate(-31.5995 48.8671 242.56)" fill="#448CDB"/>
<circle cx="58.6249" cy="236.557" r="4" transform="rotate(-31.5995 58.6249 236.557)" fill="#448CDB"/>
<circle cx="68.3827" cy="230.554" r="4" transform="rotate(-31.5995 68.3827 230.554)" fill="#448CDB"/>
<circle cx="78.1405" cy="224.551" r="4" transform="rotate(-31.5995 78.1405 224.551)" fill="#448CDB"/>
<circle cx="87.8983" cy="218.548" r="4" transform="rotate(-31.5995 87.8983 218.548)" fill="#448CDB"/>
<circle cx="97.6562" cy="212.545" r="4" transform="rotate(-31.5995 97.6562 212.545)" fill="#448CDB"/>
<circle cx="107.414" cy="206.542" r="4" transform="rotate(-31.5995 107.414 206.542)" fill="#448CDB"/>
<circle cx="117.172" cy="200.539" r="4" transform="rotate(-31.5995 117.172 200.539)" fill="#448CDB"/>
<circle cx="126.93" cy="194.536" r="4" transform="rotate(-31.5995 126.93 194.536)" fill="#448CDB"/>
<circle cx="136.688" cy="188.533" r="4" transform="rotate(-31.5995 136.688 188.533)" fill="#448CDB"/>
<circle cx="146.446" cy="182.53" r="4" transform="rotate(-31.5995 146.446 182.53)" fill="#448CDB"/>
<circle cx="156.204" cy="176.527" r="4" transform="rotate(-31.5995 156.204 176.527)" fill="#448CDB"/>
<circle cx="165.962" cy="170.524" r="4" transform="rotate(-31.5995 165.962 170.524)" fill="#448CDB"/>
<circle cx="175.72" cy="164.521" r="4" transform="rotate(-31.5995 175.72 164.521)" fill="#448CDB"/>
<circle cx="185.477" cy="158.518" r="4" transform="rotate(-31.5995 185.477 158.518)" fill="#448CDB"/>
<path d="M10.9895 266.067L16.5932 246.572L31.0538 269.05L10.9895 266.067Z" fill="#448CDB"/>
<circle cx="195.65" cy="151.807" r="4" transform="rotate(-31.5982 195.65 151.807)" fill="#448CDB"/>
<circle cx="205.408" cy="145.804" r="4" transform="rotate(-31.5982 205.408 145.804)" fill="#448CDB"/>
<circle cx="215.166" cy="139.801" r="4" transform="rotate(-31.5982 215.166 139.801)" fill="#448CDB"/>
<circle cx="224.924" cy="133.799" r="4" transform="rotate(-31.5982 224.924 133.799)" fill="#448CDB"/>
<circle cx="234.682" cy="127.796" r="4" transform="rotate(-31.5982 234.682 127.796)" fill="#448CDB"/>
<circle cx="244.44" cy="121.794" r="4" transform="rotate(-31.5982 244.44 121.794)" fill="#448CDB"/>
<circle cx="254.198" cy="115.791" r="4" transform="rotate(-31.5982 254.198 115.791)" fill="#448CDB"/>
<circle cx="263.956" cy="109.788" r="4" transform="rotate(-31.5982 263.956 109.788)" fill="#448CDB"/>
<circle cx="273.714" cy="103.785" r="4" transform="rotate(-31.5982 273.714 103.785)" fill="#448CDB"/>
<circle cx="283.472" cy="97.7828" r="4" transform="rotate(-31.5982 283.472 97.7828)" fill="#448CDB"/>
<circle cx="293.23" cy="91.7799" r="4" transform="rotate(-31.5982 293.23 91.7799)" fill="#448CDB"/>
<circle cx="302.988" cy="85.777" r="4" transform="rotate(-31.5982 302.988 85.777)" fill="#448CDB"/>
<circle cx="312.746" cy="79.774" r="4" transform="rotate(-31.5982 312.746 79.774)" fill="#448CDB"/>
<circle cx="322.504" cy="73.7711" r="4" transform="rotate(-31.5982 322.504 73.7711)" fill="#448CDB"/>
<circle cx="332.262" cy="67.7682" r="4" transform="rotate(-31.5982 332.262 67.7682)" fill="#448CDB"/>
<circle cx="342.02" cy="61.7662" r="4" transform="rotate(-31.5982 342.02 61.7662)" fill="#448CDB"/>
<circle cx="351.778" cy="55.7633" r="4" transform="rotate(-31.5982 351.778 55.7633)" fill="#448CDB"/>
<circle cx="361.536" cy="49.7604" r="4" transform="rotate(-31.5982 361.536 49.7604)" fill="#448CDB"/>
<circle cx="371.294" cy="43.7574" r="4" transform="rotate(-31.5982 371.294 43.7574)" fill="#448CDB"/>
</svg>
