<svg width="324" height="32" viewBox="0 0 324 32" fill="none" xmlns="http://www.w3.org/2000/svg">
<circle cx="4.2002" cy="16.2461" r="4" fill="#448CDB"/>
<circle cx="15.6567" cy="16.2461" r="4" fill="#448CDB"/>
<circle cx="27.1133" cy="16.2461" r="4" fill="#448CDB"/>
<circle cx="38.5698" cy="16.2461" r="4" fill="#448CDB"/>
<circle cx="50.0264" cy="16.2461" r="4" fill="#448CDB"/>
<circle cx="61.4829" cy="16.2461" r="4" fill="#448CDB"/>
<circle cx="72.9395" cy="16.2461" r="4" fill="#448CDB"/>
<circle cx="84.396" cy="16.2461" r="4" fill="#448CDB"/>
<circle cx="95.8525" cy="16.2461" r="4" fill="#448CDB"/>
<circle cx="107.309" cy="16.2461" r="4" fill="#448CDB"/>
<circle cx="118.766" cy="16.2461" r="4" fill="#448CDB"/>
<circle cx="130.222" cy="16.2461" r="4" fill="#448CDB"/>
<circle cx="141.679" cy="16.2461" r="4" fill="#448CDB"/>
<circle cx="153.135" cy="16.2461" r="4" fill="#448CDB"/>
<circle cx="164.592" cy="16.2461" r="4" fill="#448CDB"/>
<circle cx="176.048" cy="16.2461" r="4" fill="#448CDB"/>
<circle cx="187.505" cy="16.2461" r="4" fill="#448CDB"/>
<circle cx="198.961" cy="16.2461" r="4" fill="#448CDB"/>
<circle cx="210.418" cy="16.2461" r="4" fill="#448CDB"/>
<circle cx="221.875" cy="16.2461" r="4" fill="#448CDB"/>
<circle cx="233.331" cy="16.2461" r="4" fill="#448CDB"/>
<circle cx="244.788" cy="16.2461" r="4" fill="#448CDB"/>
<circle cx="256.244" cy="16.2461" r="4" fill="#448CDB"/>
<circle cx="267.701" cy="16.2461" r="4" fill="#448CDB"/>
<circle cx="279.157" cy="16.2461" r="4" fill="#448CDB"/>
<circle cx="290.614" cy="16.2461" r="4" fill="#448CDB"/>
<circle cx="302.07" cy="16.2461" r="4" fill="#448CDB"/>
<circle cx="313.527" cy="16.2461" r="4" fill="#448CDB"/>
<path d="M323.7 16.1052L308.44 29.4692V2.74124L323.7 16.1052Z" fill="#448CDB"/>
</svg>
