<svg width="199" height="197" viewBox="0 0 199 197" fill="none" xmlns="http://www.w3.org/2000/svg">
<path d="M99.0853 189.618C150.144 189.618 191.536 148.815 191.536 98.4832C191.536 48.1509 150.144 7.34863 99.0853 7.34863C48.0267 7.34863 6.63477 48.1509 6.63477 98.4832" stroke="#448CDB" stroke-width="13" stroke-linecap="round" stroke-linejoin="round"/>
<path d="M137.582 71.8928L109.801 44.1115C109.007 43.3178 108.214 42.9209 107.023 42.9209H67.3354C62.9698 42.9209 59.3979 46.4928 59.3979 50.8584V146.108C59.3979 150.474 62.9698 154.046 67.3354 154.046H130.835C135.201 154.046 138.773 150.474 138.773 146.108V74.6709C138.773 73.4803 138.376 72.6865 137.582 71.8928ZM107.023 52.4459L129.248 74.6709H107.023V52.4459ZM130.835 146.108H67.3354V50.8584H99.0854V74.6709C99.0854 79.0365 102.657 82.6084 107.023 82.6084H130.835V146.108Z" fill="#448CDB"/>
<path d="M75.2729 122.296H122.898V130.233H75.2729V122.296Z" fill="#448CDB"/>
<path d="M75.2729 98.4834H122.898V106.421H75.2729V98.4834Z" fill="#448CDB"/>
</svg>
