<svg width="199" height="197" viewBox="0 0 199 197" fill="none" xmlns="http://www.w3.org/2000/svg">
<path d="M99.7596 189.667C150.818 189.667 192.21 148.864 192.21 98.532C192.21 48.1997 150.818 7.39746 99.7596 7.39746C48.701 7.39746 7.30908 48.1997 7.30908 98.532" stroke="#448CDB" stroke-width="13" stroke-linecap="round" stroke-linejoin="round"/>
<path d="M110.343 70.7507V60.1673H89.1766V70.7507H110.343ZM57.4266 81.334V139.542H142.093V81.334H57.4266ZM142.093 70.7507C147.967 70.7507 152.677 75.4602 152.677 81.334V139.542C152.677 145.416 147.967 150.126 142.093 150.126H57.4266C51.5528 150.126 46.8433 145.416 46.8433 139.542L46.8962 81.334C46.8962 75.4602 51.5528 70.7507 57.4266 70.7507H78.5933V60.1673C78.5933 54.2936 83.3028 49.584 89.1766 49.584H110.343C116.217 49.584 120.927 54.2936 120.927 60.1673V70.7507H142.093Z" fill="#448CDB"/>
</svg>
