<svg width="199" height="196" viewBox="0 0 199 196" fill="none" xmlns="http://www.w3.org/2000/svg">
<path d="M99.7601 189.24C150.819 189.24 192.211 148.438 192.211 98.1052C192.211 47.7729 150.819 6.9707 99.7601 6.9707C48.7015 6.9707 7.30957 47.7729 7.30957 98.1052" stroke="#448CDB" stroke-width="13" stroke-linecap="round" stroke-linejoin="round"/>
<path d="M99.7603 153.668C88.7711 153.668 78.0286 150.409 68.8914 144.304C59.7542 138.199 52.6326 129.521 48.4272 119.368C44.2218 109.216 43.1215 98.0439 45.2654 87.2658C47.4093 76.4877 52.7011 66.5874 60.4717 58.8169C68.2422 51.0463 78.1425 45.7545 88.9206 43.6106C99.6986 41.4667 110.87 42.567 121.023 46.7724C131.176 50.9778 139.854 58.0994 145.959 67.2366C152.064 76.3738 155.323 87.1163 155.323 98.1055C155.323 112.842 149.469 126.974 139.049 137.394C128.629 147.814 114.496 153.668 99.7603 153.668ZM99.7603 50.4805C90.3409 50.4805 81.1331 53.2737 73.3012 58.5068C65.4694 63.7399 59.3651 71.1779 55.7605 79.8802C52.1559 88.5825 51.2128 98.1583 53.0504 107.397C54.888 116.635 59.4238 125.121 66.0843 131.781C72.7448 138.442 81.2308 142.978 90.4691 144.815C99.7075 146.653 109.283 145.71 117.986 142.105C126.688 138.501 134.126 132.396 139.359 124.565C144.592 116.733 147.385 107.525 147.385 98.1055C147.385 85.4746 142.368 73.361 133.436 64.4295C124.505 55.4981 112.391 50.4805 99.7603 50.4805Z" fill="#448CDB"/>
<path d="M119.604 83.8577V98.1055H127.542V70.3242H99.7603V78.2617H114.008L79.9165 112.353V98.1055H71.979V125.887H99.7603V117.949H85.5124L119.604 83.8577Z" fill="#448CDB"/>
</svg>
