<svg width="199" height="196" viewBox="0 0 199 196" fill="none" xmlns="http://www.w3.org/2000/svg">
<path d="M99.39 188.792C150.449 188.792 191.841 147.989 191.841 97.657C191.841 47.3247 150.449 6.52246 99.39 6.52246C48.3313 6.52246 6.93945 47.3247 6.93945 97.657" stroke="#448CDB" stroke-width="13" stroke-linecap="round" stroke-linejoin="round"/>
<path d="M147.353 56.3941L147.183 56.288L125.704 45.7061L102.521 76.6169L113.187 90.8392C112.867 96.2027 110.593 101.263 106.793 105.062C102.994 108.862 97.9337 111.136 92.5701 111.455L78.3481 100.789L47.4375 123.972L57.9314 145.272L58.0197 145.451L58.1261 145.621C58.6861 146.523 59.4677 147.267 60.3966 147.782C61.3254 148.297 62.3706 148.566 63.4326 148.562H68.9749C79.6539 148.562 90.2282 146.459 100.094 142.372C109.96 138.285 118.925 132.296 126.476 124.744C134.027 117.193 140.017 108.229 144.104 98.3626C148.19 88.4966 150.294 77.9222 150.294 67.2432V61.7006C150.297 60.6387 150.029 59.5935 149.514 58.6647C148.999 57.7358 148.255 56.9542 147.353 56.3941ZM142.356 67.2432C142.356 107.706 109.437 140.625 68.9749 140.625H64.4902L57.469 126.371L78.3496 110.711L89.9748 119.429H91.2976C99.2156 119.42 106.807 116.271 112.405 110.672C118.004 105.073 121.154 97.4824 121.162 89.5645V88.2416L112.444 76.6167L128.103 55.7373L142.356 62.7598V67.2432Z" fill="#448CDB"/>
</svg>
