<svg width="36" height="37" viewBox="0 0 36 37" fill="none" xmlns="http://www.w3.org/2000/svg">
<g clip-path="url(#clip0)">
<path d="M19.9336 18.9979L35.0996 3.3985C35.6335 2.84929 35.6335 1.95885 35.0996 1.40971C34.5656 0.860571 33.6999 0.8605 33.166 1.40971L18 17.0091L2.83401 1.40971C2.30005 0.8605 1.43435 0.8605 0.900466 1.40971C0.36658 1.95892 0.366511 2.84936 0.900466 3.3985L16.0664 18.9978L0.900466 34.5971C0.366511 35.1464 0.366511 36.0368 0.900466 36.5859C1.16741 36.8605 1.51734 36.9977 1.86727 36.9977C2.2172 36.9977 2.56706 36.8605 2.83408 36.5859L18 20.9866L33.166 36.5859C33.4329 36.8605 33.7828 36.9977 34.1328 36.9977C34.4827 36.9977 34.8326 36.8605 35.0996 36.5859C35.6335 36.0367 35.6335 35.1463 35.0996 34.5971L19.9336 18.9979Z" fill="black"/>
</g>
<defs>
<clipPath id="clip0">
<rect width="35" height="36" fill="white" transform="translate(0.5 0.99707)"/>
</clipPath>
</defs>
</svg>
