<svg width="80" height="36" viewBox="0 0 80 36" fill="none" xmlns="http://www.w3.org/2000/svg">
<ellipse cx="25.403" cy="8.63805" rx="0.335665" ry="0.315299" fill="#448CDB"/>
<rect x="25.1729" y="8.95312" width="0.459642" height="5.92241" fill="#448CDB"/>
<rect x="25.1729" y="15.8555" width="0.459642" height="0.84901" fill="#448CDB"/>
<rect x="25.0615" y="14.876" width="0.682327" height="0.12422" fill="#448CDB"/>
<rect x="25.0615" y="16.7046" width="0.682327" height="0.12422" fill="#448CDB"/>
<rect x="25.0615" y="17.9009" width="0.682327" height="0.12422" fill="#448CDB"/>
<rect x="25.0615" y="20.6191" width="0.682327" height="0.12422" fill="#448CDB"/>
<rect x="25.0615" y="16.9526" width="0.682327" height="0.12422" fill="#448CDB"/>
<rect x="25.0615" y="18.1494" width="0.682327" height="0.12422" fill="#448CDB"/>
<rect x="25.0615" y="20.8677" width="0.682327" height="0.12422" fill="#448CDB"/>
<rect x="24.9795" y="16.8286" width="0.847751" height="0.12422" fill="#448CDB"/>
<rect x="24.9795" y="18.0249" width="0.847751" height="0.12422" fill="#448CDB"/>
<rect x="24.9795" y="20.7437" width="0.847751" height="0.12422" fill="#448CDB"/>
<rect x="24.9795" y="17.0771" width="0.847751" height="0.12422" fill="#448CDB"/>
<rect x="24.9795" y="18.2734" width="0.847751" height="0.12422" fill="#448CDB"/>
<rect x="25.1201" y="15.7314" width="0.566282" height="0.12422" fill="#448CDB"/>
<rect x="25.0791" y="15" width="0.647667" height="0.731165" fill="#448CDB"/>
<rect x="25.0791" y="17.2012" width="0.647667" height="0.699605" fill="#448CDB"/>
<rect x="25.0264" y="18.3975" width="0.753606" height="2.2215" fill="#448CDB"/>
<ellipse cx="25.4025" cy="21.3723" rx="0.393702" ry="0.566593" fill="#448CDB"/>
<rect x="25.0332" y="21.8115" width="0.740333" height="0.127324" fill="#448CDB"/>
<rect x="25.0957" y="21.9385" width="0.613852" height="0.501202" fill="#448CDB"/>
<rect x="25.208" y="22.4399" width="0.389841" height="0.407434" fill="#448CDB"/>
<rect x="24.9297" y="22.8477" width="0.946758" height="0.674812" fill="#448CDB"/>
<rect x="24.7168" y="23.5225" width="1.37166" height="4.48383" fill="#448CDB"/>
<rect x="24.8604" y="28.0059" width="1.08545" height="0.131273" fill="#448CDB"/>
<rect x="24.8125" y="28.2686" width="1.18026" height="0.131273" fill="#448CDB"/>
<rect x="24.9785" y="28.1372" width="0.848781" height="0.131273" fill="#448CDB"/>
<rect x="24.9785" y="28.3999" width="0.848781" height="0.262542" fill="#448CDB"/>
<rect x="24.7119" y="28.6621" width="1.38229" height="0.590717" fill="#448CDB"/>
<path d="M9.71973 3.15162L16.8112 0.492676L13.6594 3.69935L9.71973 3.15162Z" fill="#448CDB"/>
<path d="M9.97947 26.2258L5.39062 26.5277V8.32324L9.97947 8.7761V26.2258Z" fill="#448CDB"/>
<ellipse cx="8.7133" cy="5.87523" rx="0.41057" ry="0.321034" fill="#448CDB"/>
<rect x="8.43262" y="6.19629" width="0.562213" height="6.03013" fill="#448CDB"/>
<rect x="8.43262" y="13.2236" width="0.562213" height="0.864452" fill="#448CDB"/>
<rect x="8.2959" y="12.2266" width="0.834592" height="0.126479" fill="#448CDB"/>
<rect x="8.2959" y="14.0884" width="0.834592" height="0.126479" fill="#448CDB"/>
<rect x="8.2959" y="15.3066" width="0.834592" height="0.126479" fill="#448CDB"/>
<rect x="8.2959" y="18.0742" width="0.834592" height="0.126479" fill="#448CDB"/>
<rect x="8.2959" y="14.3413" width="0.834592" height="0.126479" fill="#448CDB"/>
<rect x="8.2959" y="15.5591" width="0.834592" height="0.126479" fill="#448CDB"/>
<rect x="8.2959" y="18.3271" width="0.834592" height="0.126479" fill="#448CDB"/>
<rect x="8.19531" y="14.2148" width="1.03693" height="0.126479" fill="#448CDB"/>
<rect x="8.19531" y="15.4331" width="1.03693" height="0.126479" fill="#448CDB"/>
<rect x="8.19531" y="18.2007" width="1.03693" height="0.126479" fill="#448CDB"/>
<rect x="8.19531" y="14.4678" width="1.03693" height="0.126479" fill="#448CDB"/>
<rect x="8.19531" y="15.686" width="1.03693" height="0.126479" fill="#448CDB"/>
<rect x="8.36719" y="13.0972" width="0.692652" height="0.126479" fill="#448CDB"/>
<rect x="8.31738" y="12.3525" width="0.792197" height="0.744463" fill="#448CDB"/>
<rect x="8.31738" y="14.5942" width="0.792197" height="0.71233" fill="#448CDB"/>
<rect x="8.25293" y="15.8125" width="0.921777" height="2.2619" fill="#448CDB"/>
<ellipse cx="8.71398" cy="18.8411" rx="0.481559" ry="0.576898" fill="#448CDB"/>
<rect x="8.26074" y="19.2881" width="0.905543" height="0.12964" fill="#448CDB"/>
<rect x="8.33789" y="19.418" width="0.750837" height="0.510318" fill="#448CDB"/>
<rect x="8.47461" y="19.9282" width="0.476836" height="0.414844" fill="#448CDB"/>
<rect x="8.13477" y="20.3428" width="1.15803" height="0.687085" fill="#448CDB"/>
<rect x="7.875" y="21.0298" width="1.67775" height="4.56538" fill="#448CDB"/>
<rect x="8.0498" y="25.5952" width="1.32768" height="0.13366" fill="#448CDB"/>
<rect x="7.99219" y="25.8628" width="1.44364" height="0.13366" fill="#448CDB"/>
<rect x="8.19434" y="25.729" width="1.03819" height="0.13366" fill="#448CDB"/>
<rect x="8.19434" y="25.9961" width="1.03819" height="0.267317" fill="#448CDB"/>
<rect x="7.86816" y="26.2637" width="1.69075" height="0.601461" fill="#448CDB"/>
<ellipse cx="11.8178" cy="6.17209" rx="0.41057" ry="0.320523" fill="#448CDB"/>
<rect x="11.5371" y="6.49268" width="0.562213" height="6.02052" fill="#448CDB"/>
<rect x="11.5371" y="13.5088" width="0.562213" height="0.863074" fill="#448CDB"/>
<rect x="11.4004" y="12.5132" width="0.834592" height="0.126277" fill="#448CDB"/>
<rect x="11.4004" y="14.3721" width="0.834592" height="0.126277" fill="#448CDB"/>
<rect x="11.4004" y="15.5884" width="0.834592" height="0.126277" fill="#448CDB"/>
<rect x="11.4004" y="18.3521" width="0.834592" height="0.126277" fill="#448CDB"/>
<rect x="11.4004" y="14.6245" width="0.834592" height="0.126277" fill="#448CDB"/>
<rect x="11.4004" y="15.8408" width="0.834592" height="0.126277" fill="#448CDB"/>
<rect x="11.4004" y="18.604" width="0.834592" height="0.126277" fill="#448CDB"/>
<rect x="11.2998" y="14.498" width="1.03693" height="0.126277" fill="#448CDB"/>
<rect x="11.2998" y="15.7148" width="1.03693" height="0.126277" fill="#448CDB"/>
<rect x="11.2998" y="18.478" width="1.03693" height="0.126277" fill="#448CDB"/>
<rect x="11.2998" y="14.751" width="1.03693" height="0.126277" fill="#448CDB"/>
<rect x="11.2998" y="15.9673" width="1.03693" height="0.126277" fill="#448CDB"/>
<rect x="11.4717" y="13.3828" width="0.692652" height="0.126277" fill="#448CDB"/>
<rect x="11.4219" y="12.6392" width="0.792197" height="0.743277" fill="#448CDB"/>
<rect x="11.4219" y="14.877" width="0.792197" height="0.711195" fill="#448CDB"/>
<rect x="11.3574" y="16.0933" width="0.921777" height="2.2583" fill="#448CDB"/>
<ellipse cx="11.8185" cy="19.117" rx="0.481559" ry="0.575979" fill="#448CDB"/>
<rect x="11.3652" y="19.564" width="0.905543" height="0.129434" fill="#448CDB"/>
<rect x="11.4424" y="19.6929" width="0.750837" height="0.509505" fill="#448CDB"/>
<rect x="11.5791" y="20.2026" width="0.476836" height="0.414183" fill="#448CDB"/>
<rect x="11.2393" y="20.6167" width="1.15803" height="0.685991" fill="#448CDB"/>
<rect x="10.9795" y="21.3027" width="1.67775" height="4.55811" fill="#448CDB"/>
<rect x="11.1543" y="25.8608" width="1.32768" height="0.133447" fill="#448CDB"/>
<rect x="11.0967" y="26.1279" width="1.44364" height="0.133447" fill="#448CDB"/>
<rect x="11.2988" y="25.9941" width="1.03819" height="0.133447" fill="#448CDB"/>
<rect x="11.2988" y="26.2612" width="1.03819" height="0.266891" fill="#448CDB"/>
<rect x="10.9727" y="26.5278" width="1.69075" height="0.600503" fill="#448CDB"/>
<ellipse cx="23.1742" cy="8.28133" rx="0.346092" ry="0.315994" fill="#448CDB"/>
<rect x="22.9375" y="8.59717" width="0.47392" height="5.93545" fill="#448CDB"/>
<rect x="22.9375" y="15.5146" width="0.47392" height="0.85088" fill="#448CDB"/>
<rect x="22.8232" y="14.5327" width="0.703523" height="0.124493" fill="#448CDB"/>
<rect x="22.8232" y="16.3652" width="0.703523" height="0.124493" fill="#448CDB"/>
<rect x="22.8232" y="17.5645" width="0.703523" height="0.124493" fill="#448CDB"/>
<rect x="22.8232" y="20.2891" width="0.703523" height="0.124493" fill="#448CDB"/>
<rect x="22.8232" y="16.6143" width="0.703523" height="0.124493" fill="#448CDB"/>
<rect x="22.8232" y="17.8135" width="0.703523" height="0.124493" fill="#448CDB"/>
<rect x="22.8232" y="20.5376" width="0.703523" height="0.124493" fill="#448CDB"/>
<rect x="22.7373" y="16.4897" width="0.874086" height="0.124493" fill="#448CDB"/>
<rect x="22.7373" y="17.689" width="0.874086" height="0.124493" fill="#448CDB"/>
<rect x="22.7373" y="20.4136" width="0.874086" height="0.124493" fill="#448CDB"/>
<rect x="22.7373" y="16.7388" width="0.874086" height="0.124493" fill="#448CDB"/>
<rect x="22.7373" y="17.938" width="0.874086" height="0.124493" fill="#448CDB"/>
<rect x="22.8828" y="15.3901" width="0.583873" height="0.124493" fill="#448CDB"/>
<rect x="22.8408" y="14.6572" width="0.667786" height="0.732775" fill="#448CDB"/>
<rect x="22.8408" y="16.8633" width="0.667786" height="0.701146" fill="#448CDB"/>
<rect x="22.7861" y="18.0625" width="0.777016" height="2.22639" fill="#448CDB"/>
<ellipse cx="23.1745" cy="21.0434" rx="0.405932" ry="0.567841" fill="#448CDB"/>
<rect x="22.793" y="21.4839" width="0.763331" height="0.127605" fill="#448CDB"/>
<rect x="22.8574" y="21.6113" width="0.632921" height="0.502306" fill="#448CDB"/>
<rect x="22.9736" y="22.1138" width="0.401951" height="0.408331" fill="#448CDB"/>
<rect x="22.6865" y="22.522" width="0.976168" height="0.676298" fill="#448CDB"/>
<rect x="22.4678" y="23.1982" width="1.41426" height="4.4937" fill="#448CDB"/>
<rect x="22.6152" y="27.6919" width="1.11917" height="0.131562" fill="#448CDB"/>
<rect x="22.5654" y="27.9551" width="1.21693" height="0.131562" fill="#448CDB"/>
<rect x="22.7373" y="27.8232" width="0.875147" height="0.131562" fill="#448CDB"/>
<rect x="22.7373" y="28.0864" width="0.875147" height="0.26312" fill="#448CDB"/>
<rect x="22.4619" y="28.3496" width="1.42523" height="0.592018" fill="#448CDB"/>
<path d="M9.01677 33.5493L0.273438 31.1321V32.495L9.01677 35.9152L29.3322 31.9035V30.4377C29.3322 30.3143 15.7886 32.4607 9.01677 33.5493Z" fill="#448CDB"/>
<path d="M9.96858 32.5721L2.09958 30.772V29.5633L9.96858 31.132L26.6576 28.9463L26.6589 30.0008L9.96858 32.5721Z" fill="#448CDB"/>
<path d="M3.87359 29.2292L2.09863 29.5639L9.96568 31.1413L26.6577 28.9463L23.4175 28.6377L10.4065 30.3324L3.87359 29.2292Z" fill="#448CDB"/>
<path d="M3.87305 28.0723V29.2295L10.4048 30.3353L23.8913 28.6149V27.6812L10.4048 29.2295L3.87305 28.0723Z" fill="#448CDB"/>
<path d="M5.39294 27.6566L3.87109 28.0722L10.4158 29.2357L23.7451 27.6921L21.4579 27.312L11.5966 28.4739L5.39294 27.6566Z" fill="#448CDB"/>
<path d="M5.39062 26.5267V27.6582L11.5881 28.4811L21.4587 27.3128V26.2212L11.5881 27.3239L5.39062 26.5267Z" fill="#448CDB"/>
<path d="M14.5197 25.7578L5.39062 26.5278L11.5882 27.4293L21.463 26.2207L14.5197 25.7578Z" fill="#448CDB"/>
<path d="M19.1708 25.7678H14.1895L13.8574 8.77099L18.8689 7.71436H19.1708L19.5331 25.6169L19.1708 25.7678Z" fill="#448CDB"/>
<path d="M8.48332 5.72146L1.1774 8.80083L1.32835 5.72146L0 5.47995V5.11767L6.64175 2.70249L13.676 3.66856C13.7363 2.39052 14.6179 -0.0145895 17.661 0.589206C20.7041 1.193 21.9882 4.10128 22.2498 5.47995L26.3858 6.59697L25.8726 7.11019V8.80083L21.0121 7.77437C20.9014 6.3152 20.0762 3.30628 17.661 2.94401C15.2458 2.58173 14.6219 5.38938 14.6118 6.83849L8.48332 5.72146Z" fill="#448CDB"/>
<path d="M32.0984 14.6521H34.0303L31.824 11.8531L34.4035 9.03223H32.3948L30.463 11.1507H30.1995V9.03223H28.6738V14.6521H30.1995V12.38H30.3422L32.0984 14.6521Z" fill="#448CDB"/>
<path d="M34.8089 14.6521H36.3346V12.9837H37.1798C38.4613 12.9837 39.3202 12.2291 39.3202 11.0189C39.3202 9.82252 38.4832 9.03223 37.2347 9.03223H34.8089V14.6521ZM36.3346 11.7983V10.2506H36.8725C37.4075 10.2506 37.7286 10.536 37.7286 11.0189C37.7286 11.4992 37.4075 11.7983 36.8725 11.7983H36.3346Z" fill="#448CDB"/>
<path d="M41.4386 10.9202V9.03223H39.9129V14.6521H42.0094C43.4281 14.6521 44.372 13.8838 44.3693 12.7642C44.372 11.6446 43.4281 10.9202 42.0094 10.9202H41.4386ZM46.2901 9.03223H44.7644V14.6521H46.2901V9.03223ZM41.4386 12.0836H42.0094C42.5609 12.0836 42.8573 12.369 42.8546 12.7532C42.8573 13.1593 42.5609 13.4557 42.0094 13.4557H41.4386V12.0836Z" fill="#448CDB"/>
<path d="M46.8245 14.6521H47.1977C48.6247 14.6521 49.1625 13.9496 49.2613 11.9849L49.3491 10.2177H50.5455V14.6521H52.0163V9.03223H47.9441L47.8563 11.3921C47.8014 12.8959 47.538 13.3679 46.9782 13.4557L46.8245 13.4776V14.6521Z" fill="#448CDB"/>
<path d="M52.7387 14.6521H56.778V13.4228H54.2644V12.4568H56.5804V11.2275H54.2644V10.2616H56.789V9.03223H52.7387V14.6521Z" fill="#448CDB"/>
<path d="M57.8859 9.03223V10.7994C57.8832 12.1056 58.8711 12.7312 60.3556 12.7312C60.4242 12.7312 60.8633 12.7148 61.1788 12.6819V14.6521H62.6606V9.03223H61.1788V11.5211C60.888 11.5458 60.4846 11.5568 60.3556 11.5568C59.5955 11.5568 59.3568 11.3263 59.3568 10.7994V9.03223H57.8859Z" fill="#448CDB"/>
<path d="M67.1355 14.6521H69.0674L66.8611 11.8531L69.4406 9.03223H67.4319L65.5001 11.1507H65.2366V9.03223H63.7109V14.6521H65.2366V12.38H65.3793L67.1355 14.6521Z" fill="#448CDB"/>
<path d="M69.846 9.03223V14.6521H71.1193L73.1499 11.6995H73.1828V14.6521H74.7085V9.03223H73.4133L71.4156 11.9739H71.3717V9.03223H69.846Z" fill="#448CDB"/>
<path d="M33.5802 23.3828H28.6738V29.0027H30.1776V24.5902H32.0765V29.0027H33.5802V23.3828Z" fill="#448CDB"/>
<path d="M34.5565 29.0027H38.5957V27.7733H36.0822V26.8074H38.3982V25.5781H36.0822V24.6122H38.6067V23.3828H34.5565V29.0027Z" fill="#448CDB"/>
<path d="M39.2097 24.6122H40.9001V29.0027H42.4038V24.6122H44.0942V23.3828H39.2097V24.6122Z" fill="#448CDB"/>
<path d="M44.6684 29.0027H48.7077V27.7733H46.1941V26.8074H48.5101V25.5781H46.1941V24.6122H48.7186V23.3828H44.6684V29.0027Z" fill="#448CDB"/>
<path d="M49.4753 29.0027H51.001V27.3343H51.8462C53.1277 27.3343 53.9866 26.5797 53.9866 25.3695C53.9866 24.1731 53.1497 23.3828 51.9011 23.3828H49.4753V29.0027ZM51.001 26.1488V24.6012H51.5389C52.074 24.6012 52.395 24.8866 52.395 25.3695C52.395 25.8497 52.074 26.1488 51.5389 26.1488H51.001Z" fill="#448CDB"/>
<path d="M54.5464 29.0027H56.6429C58.0588 29.0027 59.0028 28.2343 59.0028 27.1148C59.0028 25.9952 58.0588 25.2707 56.6429 25.2707H56.0721V24.6122H58.4979V23.3828H54.5464V29.0027ZM56.0721 27.8063V26.4342H56.6429C57.1917 26.4342 57.488 26.7196 57.488 27.1038C57.488 27.5099 57.1917 27.8063 56.6429 27.8063H56.0721Z" fill="#448CDB"/>
<path d="M60.3542 29.0795H60.8152C61.7812 29.0795 62.2312 28.4649 62.5495 27.7733L64.4813 23.3828H62.9447L62.0446 25.6659L60.8701 23.3828H59.3115L61.4189 27.2575L61.3641 27.4221C61.2543 27.7953 61.1116 27.8941 60.6286 27.8941H60.3542V29.0795Z" fill="#448CDB"/>
<path d="M64.9753 29.0027H66.501V27.3343H67.3462C68.6276 27.3343 69.4865 26.5797 69.4865 25.3695C69.4865 24.1731 68.6496 23.3828 67.401 23.3828H64.9753V29.0027ZM66.501 26.1488V24.6012H67.0388C67.5739 24.6012 67.895 24.8866 67.895 25.3695C67.895 25.8497 67.5739 26.1488 67.0388 26.1488H66.501Z" fill="#448CDB"/>
<path d="M73.9978 23.3828H70.0463V29.0027H71.572V24.6122H73.9978V23.3828Z" fill="#448CDB"/>
<path d="M75.3095 29.0027L75.6333 27.927H77.4883L77.8121 29.0027H79.4585L77.6035 23.3828H75.518L73.663 29.0027H75.3095ZM75.979 26.7855L76.5388 24.9305H76.5827L77.1425 26.7855H75.979Z" fill="#448CDB"/>
<rect x="39.5283" y="18.2793" width="21.8022" height="1.47664" fill="#448CDB"/>
</svg>
