<svg width="45" height="57" viewBox="0 0 45 57" fill="none" xmlns="http://www.w3.org/2000/svg">
<path d="M20.8809 56.1774C21.3534 56.5148 21.9195 56.6962 22.5001 56.6962C23.0807 56.6962 23.6468 56.5148 24.1192 56.1774C24.9679 55.5772 44.9144 41.1749 44.8334 23.1966C44.8334 10.8826 34.8141 0.863281 22.5001 0.863281C10.186 0.863281 0.16675 10.8826 0.16675 23.1827C0.0857913 41.1749 20.0323 55.5772 20.8809 56.1774ZM22.5001 14.7209C31.7377 14.7209 31.3899 13.9311 31.3899 23.1827C31.4485 35.5721 27.0002 28.0208 22.5001 31.6695C18.0027 28.018 13.6123 35.5944 13.6709 23.1966C13.6709 13.959 13.2625 14.7209 22.5001 14.7209Z" fill="#FC3232"/>
</svg>
