<?xml version="1.0" encoding="UTF-8" standalone="no"?>
<svg
   xmlns:dc="https://purl.org/dc/elements/1.1/"
   xmlns:cc="https://creativecommons.org/ns#"
   xmlns:rdf="https://www.w3.org/1999/02/22-rdf-syntax-ns#"
   xmlns:svg="https://www.w3.org/2000/svg"
   xmlns="https://www.w3.org/2000/svg"
   xmlns:sodipodi="https://sodipodi.sourceforge.net/DTD/sodipodi-0.dtd"
   xmlns:inkscape="https://www.inkscape.org/namespaces/inkscape"
   id="bird-cells"
   viewBox="0 0 3671 510"
   version="1.1"
   sodipodi:docname="bird-cells.svg"
   inkscape:version="0.92.3 (2405546, 2018-03-11)">
  <metadata
     id="metadata51">
    <rdf:RDF>
      <cc:Work
         rdf:about="">
        <dc:format>image/svg+xml</dc:format>
        <dc:type
           rdf:resource="https://purl.org/dc/dcmitype/StillImage" />
      </cc:Work>
    </rdf:RDF>
  </metadata>
  <defs
     id="defs49" />
  <sodipodi:namedview
     pagecolor="#ffffff"
     bordercolor="#666666"
     borderopacity="1"
     objecttolerance="10"
     gridtolerance="10"
     guidetolerance="10"
     inkscape:pageopacity="0"
     inkscape:pageshadow="2"
     inkscape:window-width="1920"
     inkscape:window-height="1001"
     id="namedview47"
     showgrid="false"
     inkscape:zoom="0.36366592"
     inkscape:cx="1991.2358"
     inkscape:cy="-35.423558"
     inkscape:window-x="-9"
     inkscape:window-y="-9"
     inkscape:window-maximized="1"
     inkscape:current-layer="bird-cells" />
  <g
     fill="none"
     fill-rule="evenodd"
     id="g44">
    <g
       id="g42">
      <path
         class="cell-container"
         stroke="none"
         d="M.5.5h359v509H.5z"
         id="path2" />
      <path
         class="cell-container"
         stroke="none"
         d="M359.5.5h359v509h-359z"
         id="path4" />
      <path
         class="cell-container"
         stroke="none"
         d="M718.5.5h359v509h-359z"
         id="path6" />
      <path
         class="cell-container"
         stroke="none"
         d="M1077.5.5h370v509h-370z"
         id="path8" />
      <path
         class="cell-container"
         stroke="none"
         d="M1448.5.5h370v509h-370z"
         id="path10" />
      <path
         class="cell-container"
         stroke="none"
         d="M1818.5.5h370v509h-370z"
         id="path12" />
      <path
         class="cell-container"
         stroke="none"
         d="M2189.5.5h370v509h-370z"
         id="path14" />
      <path
         class="cell-container"
         stroke="none"
         d="M2559.5.5h370v509h-370z"
         id="path16" />
      <path
         class="cell-container"
         stroke="none"
         d="M2930.5.5h370v509h-370z"
         id="path18" />
      <path
         class="cell-container"
         stroke="none"
         d="M3300.5.5h370v509h-370z"
         id="path20" />
      <path
         fill="#000"
         d="M51 288.38c13.33-5.34 35.33-9.34 66-12 0 0 18.44-9.95 55-15 1.04-.15 7.5-8 36-13 16 0 21-3.88 30 5 3.53-13.53 19.13-16.58 29-15 6.9 1.1 11.3 5.93 12 8 4 12 21 5 30 12-23 6-23 7-32 11-16 14-31 31-47 31-16 4-32.83 5.33-50.5 4-1 4-3.5 6.66-7.5 8-6 2-1-9-4-12s-3 10-17 18c-1-14-5-10-5-18s4 13-17 18c-14 3.33-31.67 4-53 2 26-8.67 41.33-16.34 46-23-5 0-18-1-21-9-14-4.5-30.67-4.5-50 0z"
         id="path22" />
      <path
         fill="#000"
         d="M639 273c0 2.07-10 3-16 5-9 1-8 8-14 7s-5 8-19 14c2 11 21 9 36 19 29 30.62 18 19 37 63 14 28 18 30 27 57-1 1-11-1-14-7-1 5-5 1-4 7-5-1-8-8-12-11-4-1 1 7-2 8-4 0-5-8-9-8-4 1 1 6-2 7-33-30-43-21-43-36-8 10-10-2-19 3-4-5-6-10-2-17-1-5-7 5-11 3-1.33-6 1-12.67 7-20-6.67 6.67-14 10-22 10 1-10-1-6.5 5-16-6 7.5-13 8-19 6-4.43-2.1 4-8 2-11.5-8 0-22.76-.3-24-3.5-3.26-8.4 8-19 4-25-3.12-4.67-12 9-15-3 0-12-4.67-17-14-15-8.67-1.33-19.33-1.33-32 0-19 2-27-5-58-5 10-5 9-13 27-13-21-3-10-10-45-13 30-8 32 0 54 7 68-7 22-15 94-22 14-2 36-4 58 2 5-2 6-5 15-6 8 0 12.67 3.67 14 11 10.67.72 16 1.72 16 3z"
         id="path24" />
      <path
         fill="#000"
         d="M729 299.03c32-14 56-26 90-40 20-6 37-5 56-8 28 0 17-8 55-3 8-1 10.95-7.5 19-7 8.67 0 13.33 2.66 14 8l26 5-24 5c-2.67 5.33-8 8.33-16 9-12 12-11 18-29 21 22 13 23 17 64 38 13 11 13 15 17 31 4 15.98 14.06 25.74 21 35 26 46 23 59 45 80-11-1-23-8-28-13-4-1-3 5-3 8-6-2-8-15-16-13-3.46 0 4 5 0 13-13-5-14-7-16-13-3-4-7-11-3-12-2 8 0 12-6 12-5-10-7-3-11-12-8-14-17-12-17-29-4 0-7 4-10 9-3-4 0-9-1-12-2 .66-4.33 1.66-7 3-2-12.67-2-21.67 0-27-8 2-4 6-15 10-5-6-4-12-2-21-5 6-5-3-12 2-9-9-10-18-25-18-5-12-3-20-11-22-3.23.86-4 10-6 7s-2-10-5-12c-2-3-6 6-9 3 0-5-2-11-6-14-3-4-5 0-10 3-2-5-2-9-1-14-4-1-14 5-12-2 0-7-4-4-8-4-5 0 1-5-1-6-5-2-13 2-21 6-5-2 4-10 0-10-31-1-38 7-76 4z"
         id="path26" />
      <path
         fill="#000"
         d="M1367 254.1l-18-3c-2-6-5.33-9.35-10-10-14-1-17 7-22 10-21-3-19-1-35 0-30-5-36 4-50 7-36 5-33 9-48 16-34 18-41 19-75 29 6.67.65 14 0 22-2-14.67 4-21 6.32-19 7 31-5 29.02 4.23 52 0 11-3 10-9 13-12 2 7 1 7 2 13 16-3 21-2 30-2 3 4-3.66 8.6 0 10 4-1.35 9.33-2.68 16-4-4 4.65-5.67 8.32-5 11 15 2 12 4 24 1-11 4-11 4-16 10 16 3 14 1 24 2-4 4-3 8-1 11 6-3 9.53-4.5 12-3-3 3.44-5 7-2 9 10-2 12.4-5.28 15-2-3 8 0 11 1 22 5 0 10-2 15-4 1 8-3 8-3 16 6 3 13-3 17-1-7 4-7 6-8 9 7 3 6 2 14 0-5.33 4-7 7.65-5 11 5.33-3.35 8.33-3.35 9 0-2 6 0 7 1 15 10-5 10 2 21 5 5.97 3.27 6.4 10.54 11 14 9 6.74 20 9 19 9s-9-11-5-10c3.33 4 7.67 8.32 13 13 0-8-.67-13.68-2-17 9 14 12 12 28 23 3-13-6-18-15-28 19 22 19 20 30 24-24-30-20-26-29-53-14-26-24-61-39-75-18-12-19-17-38-26-3.33-4.68-7.33-8-12-10 12-2 21.33-5.68 28-11 2-5 7-5 11-9 6-1.35 9.67-4.35 11-9l18-6z"
         id="path28" />
      <path
         fill="#000"
         d="M1751 256c-11-1-12-4-24-6-3-6-4-5-10-7-14 0-21 7-29 12-24-3-31-1-44 2-46 12-43 12-70 23-46 27-39 30-58 40 23 6 31-3 47-7-6.67 2.67-8.67 6-6 10 6.67-2.67 11-3.67 13-3-5 2-9.7 10.57-5 10 27-2 30.7-14.27 46-15-4 5-6 8-4 13 12-3 11-2 18-4-2 6-3 6 0 15 8.5 2 13-5 13-5 4 4 0 11 0 20 11 0 11 2 15 0-2 8 2 8 5 14 4-8 7-5 14-12-2 13 5 12 6 21 10-9 11-11 13-21-4 15 2 17 5 28 4-7 7-7 8-16 1 5 3.98 7.87 5 6 3-10 3.32-8.12 4-6-3 13 2 16 5 27 7-12 5-18 5-19 2 15 15 8 28 33 4-14-16-38-23-73-4-23-3-28-14-43-3-7-10-8-13-7 8-4 7-8 12-15 15-2 11-5 15-10-1 0 5-4 23-5z"
         id="path30" />
      <path
         fill="#000"
         d="M2119.66 270.36c0-3-11-6-20-6-1.34-2.67-3.67-5-7-7-5.34-2.67-12.34-2.67-21 0-8 1-16-13-8-26 7-3 10-9 11-14-8-4-11-5-22-4-65 4-85 28-110 50-8 7 10 5 18 5-42 0-78 41-72 37s16 6 35-11c2-1-7 5-15 15 21-3 21-6 39-4-2 7 3.6 7.22 9 8 4.33.62 9.2-.44 15 0 12.53 1.4 13-1 18-1 6 0 5.35.6 9 0 9-2 7-3 10-7-3 8 1 11 6 21 7-6 6-14 6-19 0 13-1 9 2 17 6-5 6-4 8-12-3 10-1 17 3 28 5 0 6.84-4.66 10-3 0 5 0 3 6 13 5-5 2 3 7-8-1 10 4 4 10 18 5-10 3-14-1-23 6 13 8 12 13 19 2-19-1-23-7-36 3-19-6-20-5-33.5 8-10.5 15 2 24-6.5 7-1 4-4 9-7 8-5 19 1 20-3z"
         id="path32" />
      <path
         fill="#000"
         d="M2485 278.84c-6-3-7-1-16-3 1-5-4.66-10-11-10-9.16 0-9.5 5.2-21 8-9 2.2-12.7 3.03-18-2-24-15-11-19-32-44-9-7-12-11-4-21 13-14 17-22 17-32-4-7-85-3-113 34 5.06 1.15 16.8-6.7 20.65-6 4.35 1-18.65 13-9.65 11 9-2 15-7 21-7 2.67-.05-2 2-3 7 3.78.9 9.8-1.85 16-3 3.52-.65 7.9.34 10 0-4 3-10 1-20 17 6 5.5 14-1.5 20-1.5-3 5.5-11 2.5-15 20.5 2 4 11-6 9-2 0 4-7 2-9 18 6 0 8-7 9-2-2 3-5 3-5 9 3 3 9-4 11-4-1 2-6 2-6 10-38 9-49 18-68 30 7 4.9 23-5 25-1-1.46 3.22-11 5.9-28 11 17 2 31 2 42.65-5.1 10.35 1.1 18.57-1.9 21.35-1.9 4 6 0 13 7 15 3-5 8-12 9-15 3-2-5 11 3 13 9 0 19 7 36 7 18 0 22-6 42-13 12-1 20-5 25-18 3-8 9-4 18-13 2-2 12-3 16-6z"
         id="path34" />
      <path
         fill="#000"
         d="M2859 275.74c-.52-2.35-8-3-20-5-6.62-3.1-7.68-9-14-9-13 0-7.83 6.16-21 9-7.7 1.67-15 2-20 0s-6.32-3.7-10-6c-19.2-11.9-10.17.25-19.17-20-10.54-12-10.6-24.55-6.83-42 .97-4.5 2.27-8.15 4-11 6-9.83 12.67-30.6 11-45-1.4-12.16-11-14-27-17-21-4-33-5-58-2-9 8-21 5-33 21 9-1 7-3 14 3 8-4 15.48-1.3 16-1 7.16 4.13-3.54 3.73 1 6 6 0 2 4 0 9 5-.5 8-1 6 4 4.4 3.22 8.36-3.24 9 1 .86 5.76-11.7 9.4-9 17 18 3 20 5 22 7-4 1 3 2-26 11 3 10 14 6 15 16 0 7-9 4-12 17 12 2 9 6 23 6-5 0-18 4-26 12 9 2 6 6 14 7 7 3 6 3.36 4 7-6.5 11.86-5 15-20 23s-26.3 15.78-35 22c-4.63 3.32-7.48 8.23-11 12 12-2 12-3 15-2 2 4 1-3 0 11 6-5 16-12 22-16 5 0 13-3 17 0 5 0 0-7 0-8.96 0-1.96 3.48 5.8 5 3.96 5-6 4-9 3-14 4 3 1 10.9 6 12 19 6 21 5 42-1 1.2-.07 2.95-.92 4.3-.96 1.2 1.42.7 3 3.7 3.96 1.57-2.35 4.93-3.06 6.83-3.1.52 0-.24-.93 0-.86 10 3 17.17 3.96 32.17.96 13-8 24-5 35-17 14-6 14-10 17-16 4-3 9 0 20-4z"
         id="path36" />
      <path
         fill="#000"
         d="M3243 286c-8-3-7-2-17-4-7.6-3.28-5-11-21-13-16.1 1.03-15 14-31 13-10.43-.65-13-7-21-11s-13-5-19-12c-13-42-1.27-9.56-3-59-.27-7.56-6-44-1-54 8-3 4.84-13.8 0-22-32-34-40.22-58.03-60-79-4-1 5 12-2 7-8.8-5.08-7-14-23-22 1 5 4 12 2 15-5-3-14-23-20-23 1 4 8 11 8 23 0 4-14-6-9-1s7 13 9 19c7.25 13.18 22 23 22 22-3-1-17-12-26-11 2 5 8 7 10 17-2 2 0 3-8 0 4 19 14 28 35 41 2.6 4.24-11.1-4.18-14-1-2.6 2.82 1.67 8.6 5 15 9.17 17.6 18.32 18.92 20 30-1 4-9.77-1.26-14 2-2.27 1.74 4.75 5.74 4 10-.75 4.24-9.22 1.68-8 6 2.48 2.98-2 12-1 17s4 6 4 11 7-2 8 6c5 4-1 4-8 12 5 5 10 4 8 14s-7 6-12 12c-5 7-3 11-10 17-9 8-15 4-31 16-13 7-14 2-30 13 18 2 36 12 68 5 5 2-5 5-2 7 14 1 16 3 23 0-4 3-10.62 8.7-7 9 8.53.74 23.38-.95 30 0 8.4 1.2 12.75 5 27 5 7.7 0 16.25-8.18 21-7 7.3 1.8 6 2.93 17 0 19.33-5.15 24-9 39-19 8-12 13-9 20-21 11-2 18-2 18-5z"
         id="path38" />
      <path
         fill="#000"
         d="M3595.2 274c0-2.56-5-4-13-7-4.25-3.13 0-8-10-10-17 0-11.03 8.98-21 12-10-1-9-2-21 1-4.15 1.04-3.9-10.8-6-13-2.97-3.06-5-3-10-8-3-11 6-24 3-45-1.34-9.32-4.68-21.56-9-33-2.45-13.1-2-10-13-23-21-28-37-37-47-67-4.96-4.56-.68 12.44-5 11-7.68-2.56-15.4-19-19-19-2.9 0 7.5 17.9 4 23-3 4.4-17-7.67-17-5 0 3.33 8 16 15 19-4 4-9.5-4.6-11-1 7 9 1 11 6 24 5.77 12.05 11 8 16 18-3.62 4.17-24.5-6.8-26-3-1.02 2.53 9.7 2.7 17 10 6 6 1.8 13.48 6 16 5 3 2 6 8 13s10-2 8 8c-.94 4.66-4 4.34-4 9 0 5.34 8-1 6 5 0 2.57-4 4-6 8 0 .72 7.58-1.47 8 1 1.08 6.53-7.23 11.8-4 17 3.27 5.3 12 4 17 3-5 4-13 3.95-13 9 0 9.45 10 13 4 18 2 5-5 9-4 13s5.17 8.47 10 10c3.24 1.03 9 2 6 3-6 2-7-1-12 3-4.25 0-2-6-10-4-24 4-60 20-73 34-2 3 12-3 21-4-8 3-20 7-5 6 11 1 28 0 57-5 21.46-.66 17 7 39 2 11 3 28 6 43-5 14-2 15.58-9.85 33-23 6-2 11-11 14-17 7.8-3.53 12-1 18-4z"
         id="path40" />
    </g>
  </g>
  <path
     style="fill:#ffffff;stroke-width:2.74977636"
     d="m 681.52818,433.93173 c -2.69104,-1.50598 -6.39292,-2.19334 -8.22641,-1.52746 -1.83349,0.66588 -5.67985,-0.79329 -8.54747,-3.2426 -4.02777,-3.44024 -5.49605,-3.64527 -6.4544,-0.90131 -0.9847,2.81943 -2.07929,2.8559 -5.30739,0.17681 -3.21472,-2.66798 -4.50589,-2.66476 -6.16232,0.0154 -1.58396,2.56292 -3.02091,2.27549 -5.88661,-1.17747 -2.08513,-2.51243 -10.3351,-8.26123 -18.33326,-12.77512 -7.99817,-4.51388 -15.46444,-9.85513 -16.5917,-11.86944 -1.12727,-2.01431 -3.90467,-3.55355 -6.172,-3.42053 -13.94812,0.81831 -16.49643,-0.58112 -16.49643,-9.05915 0,-7.18327 -0.81591,-8.17567 -5.49955,-6.68914 -6.66325,2.11484 -6.78894,0.84541 -1.02074,-10.30907 l 4.47882,-8.66108 -6.54115,4.1911 c -3.59763,2.3051 -8.86572,5.04886 -11.70686,6.09724 -4.57934,1.68978 -4.96365,0.89587 -3.38566,-6.99408 1.3997,-6.99847 1.06396,-8.18415 -1.57124,-5.54894 -1.84321,1.8432 -6.24085,3.35129 -9.77253,3.35129 -5.56914,0 -6.03066,-0.72979 -3.47796,-5.49956 2.63446,-4.92252 2.09118,-5.49955 -5.17791,-5.49955 -15.35453,0 -17.11293,-1.9717 -15.12475,-16.95935 1.76727,-13.32232 1.6753,-13.54885 -4.83709,-11.91434 -5.70745,1.43248 -7.01337,0.39232 -9.31042,-7.41572 l -2.67181,-9.0819 -37.12198,-1.64521 c -55.57291,-2.46294 -66.77344,-5.90713 -46.3333,-14.24757 l 8.24124,-3.36278 -13.95129,-5.41388 c -7.67321,-2.97764 -13.95129,-6.37889 -13.95129,-7.55833 0,-3.30775 4.07495,-2.62987 22.4801,3.73961 15.39606,5.32813 18.68055,5.57485 34.76405,2.61135 9.76888,-1.79999 22.40027,-5.63918 28.06974,-8.53153 13.65633,-6.96693 42.61884,-11.43856 71.42337,-11.02731 36.11828,0.51568 36.57637,0.50138 45.85887,-1.4316 7.07317,-1.47291 9.42453,-0.71827 12.348,3.96295 2.00737,3.21431 6.67569,5.89246 10.51155,6.03031 6.28953,0.22605 6.13804,0.46899 -1.71114,2.74413 -11.91344,3.45321 -20.53583,8.18529 -31.07824,17.05614 -11.02399,9.27608 -8.79425,13.30963 10.99016,19.88095 16.68641,5.54234 36.20979,25.02628 42.62245,42.53635 2.49802,6.82095 11.97855,27.6208 21.06785,46.22189 9.08929,18.6011 16.06104,34.28513 15.49275,34.85341 -0.56827,0.56828 -3.235,-0.19892 -5.92605,-1.70491 z"
     id="path3756"
     inkscape:connector-curvature="0" />
  <path
     style="fill:#ffffff;stroke-width:2.74977636"
     d="m 104.44989,310.37803 c 9.31582,-4.65517 16.93785,-9.48372 16.93785,-10.73011 0,-1.24639 -3.40284,-3.60674 -7.56188,-5.24521 -4.15904,-1.63848 -9.41799,-4.16063 -11.68655,-5.60477 -2.268566,-1.44415 -7.836864,-3.50192 -12.373995,-4.57282 -7.099978,-1.67582 -5.375951,-2.43761 12.373995,-5.46763 28.29975,-4.83095 64.86595,-14.7279 79.74352,-21.58328 9.02088,-4.15669 18.46924,-5.79296 34.86728,-6.0383 18.45439,-0.27612 23.82879,-1.38706 29.93093,-6.187 10.30458,-8.10559 21.88642,-7.54539 30.23457,1.46241 3.80463,4.10527 11.28527,8.14157 17.0548,9.2022 8.48782,1.56033 9.31981,2.24711 4.77792,3.94399 -3.02476,1.13006 -9.04778,3.38641 -13.38451,5.01411 -4.33672,1.6277 -14.23592,8.41808 -21.99821,15.08973 -20.8143,17.8898 -26.86761,20.24171 -56.37474,21.90346 -18.03141,1.01547 -28.01862,2.82999 -31.29504,5.68582 -4.39186,3.82808 -4.81211,3.67688 -4.81211,-1.73135 0,-8.32763 -4.0966,-7.37008 -11.21042,2.62035 l -6.08536,8.5461 -3.8526,-9.16264 -3.8526,-9.16264 -3.36492,6.74935 c -4.95518,9.9391 -14.70389,13.64619 -36.0056,13.69164 l -19.000195,0.0405 z"
     id="path3758"
     inkscape:connector-curvature="0" />
  <path
     style="fill:#ffffff;stroke-width:2.74977636"
     d="m 1046.9599,463.82952 c -8.1966,-4.67938 -11.0224,-5.26758 -11.98,-2.49372 -0.8945,2.59109 -2.3945,2.00081 -5.2404,-2.06233 -6.0426,-8.62704 -12.4759,-7.47148 -10.1434,1.82197 1.856,7.39498 1.7804,7.44594 -4.7597,3.20567 -3.6552,-2.36982 -8.8093,-8.53545 -11.4536,-13.70142 -4.14124,-8.09043 -4.8084,-8.51325 -4.81209,-3.04974 -0.004,5.76481 -0.49878,5.99655 -5.43001,2.54258 -8.44886,-5.91781 -24.76545,-27.59818 -24.79511,-32.94604 -0.0311,-5.60148 -3.04666,-6.19178 -7.72606,-1.51238 -2.56646,2.56646 -3.29974,2.19555 -3.29974,-1.66909 0,-3.28699 -1.39609,-4.43308 -4.12466,-3.38603 -3.33022,1.27793 -4.12467,-1.08718 -4.12467,-12.27938 v -13.86216 l -7.56188,5.9735 -7.56189,5.9735 -0.85343,-9.89858 c -0.70538,-8.18138 -1.92751,-9.89859 -7.04477,-9.89859 -3.65658,0 -8.62779,-3.29548 -12.14259,-8.04951 -3.27319,-4.42722 -8.66078,-8.44877 -11.97242,-8.93677 -4.06953,-0.59967 -7.06631,-4.00677 -9.24562,-10.51148 -3.14896,-9.39892 -12.18959,-14.99771 -12.5361,-7.76351 -0.0959,2.00136 -1.34559,0.7136 -2.77716,-2.8617 -1.87443,-4.68133 -4.13429,-6.10007 -8.07503,-5.06955 -3.95284,1.03369 -5.47218,0.069 -5.47218,-3.47442 0,-6.51936 -6.45396,-11.59471 -12.02546,-9.45672 -3.25884,1.25053 -4.47319,0.14368 -4.47319,-4.07722 0,-3.39626 -1.76115,-5.79375 -4.25597,-5.79375 -2.34078,0 -7.3098,-3.29515 -11.04227,-7.32256 -6.18386,-6.67248 -7.63688,-7.0615 -16.36737,-4.38204 -7.79377,2.39198 -9.58104,2.21909 -9.58104,-0.92678 0,-4.73589 -9.12322,-4.92496 -42.15629,-0.87366 -13.35551,1.63797 -24.97954,2.28133 -25.83118,1.42969 -1.56335,-1.56335 15.03744,-9.50024 62.07143,-29.67656 21.60538,-9.26813 31.47566,-11.71942 61.86997,-15.36543 19.88997,-2.38594 44.20668,-4.60296 54.03713,-4.92671 9.83045,-0.32375 21.7702,-2.18792 26.53279,-4.1426 7.56968,-3.10678 9.6384,-2.91239 16.44112,1.54493 4.28004,2.80439 11.51998,5.99537 16.08875,7.09107 6.26708,1.50299 6.82335,2.06129 2.26537,2.27365 -8.44573,0.39348 -31.14591,12.90007 -36.00436,19.83647 -2.22432,3.17566 -8.44553,7.61291 -13.82491,9.86056 l -9.78069,4.08663 19.07684,12.35623 c 10.49227,6.79593 25.95658,15.86185 34.36514,20.1465 18.9601,9.66127 21.02084,12.13857 27.27209,32.78505 2.76731,9.13973 9.39071,22.55618 14.71861,29.81433 5.328,7.25815 16.4879,27.18126 24.7998,44.27359 8.3119,17.09233 17.2562,33.44569 19.8762,36.34082 6.2689,6.92703 2.2935,6.56862 -10.94,-0.98631 z"
     id="path3760"
     inkscape:connector-curvature="0" />
  <path
     style="fill:#ffffff;stroke-width:2.74977636"
     d="m 1388.3473,446.66361 c -5.6715,-3.86635 -10.3117,-8.22252 -10.3117,-9.68038 0,-1.45785 -1.261,-2.65064 -2.8022,-2.65064 -1.6637,0 -2.0647,3.07214 -0.9871,7.56188 l 1.8151,7.56189 -7.2622,-6.66632 c -3.9943,-3.66648 -7.2623,-5.21323 -7.2623,-3.43722 0,5.97121 -5.6466,3.30119 -16.5559,-7.82843 -5.9612,-6.08163 -14.574,-11.80461 -19.1395,-12.71771 -6.925,-1.38499 -8.301,-2.97069 -8.301,-9.5658 0,-5.42795 -1.3849,-7.90561 -4.4188,-7.90561 -2.9339,0 -3.8475,-1.48903 -2.7186,-4.43083 1.1791,-3.0728 0.5089,-3.97366 -2.1868,-2.93924 -5.4199,2.07981 -7.7338,-1.01661 -4.0641,-5.43836 2.45,-2.95204 1.3588,-3.69023 -5.4547,-3.69023 -8.0125,0 -8.4187,-0.49289 -6.8538,-8.3171 1.592,-7.96002 1.365,-8.20368 -5.2856,-5.67511 -8.8451,3.3629 -10.2642,1.78225 -10.2642,-11.43256 0,-10.52344 -0.1808,-10.71959 -8.2467,-8.94803 -7.0692,1.55266 -7.9845,1.12813 -6.4106,-2.97328 1.4839,-3.8671 0.6925,-4.48553 -4.1274,-3.22511 -4.5779,1.19715 -5.9633,0.34156 -5.9633,-3.68267 0,-4.33117 -2.0308,-5.24526 -11.6866,-5.26023 l -11.6865,-0.0181 8.2493,-5.46332 8.2493,-5.46331 -11.6865,-0.0181 c -12.1471,-0.0187 -14.0777,-1.8998 -8.2493,-8.03734 2.815,-2.96442 1.8196,-3.39903 -5.4996,-2.40109 -7.4662,1.01802 -8.9368,0.32862 -8.9368,-4.18949 0,-4.91118 -1.3894,-5.26461 -15.1237,-3.8471 -13.6415,1.40792 -15.1238,1.04136 -15.1238,-3.73996 0,-6.67411 -1.5496,-6.64406 -10.2488,0.19868 -7.0428,5.53988 -19.1639,6.63767 -34.3592,3.11188 -9.9652,-2.31222 -6.7187,-6.32332 10.2358,-12.64669 7.5619,-2.82029 26.0132,-11.10921 41.0029,-18.41982 14.9896,-7.31061 30.0174,-13.29202 33.3951,-13.29202 3.3776,0 14.0052,-2.35505 23.6168,-5.23344 13.0687,-3.91367 24.6014,-5.09038 45.7319,-4.66614 23.2264,0.46632 29.5894,-0.31201 35.7471,-4.37266 9.7688,-6.44207 16.2566,-6.27647 20.5031,0.52336 1.889,3.02475 5.7504,5.49955 8.5808,5.49955 9.0509,0 -34.3205,28.81172 -51.5239,34.2275 -5.6925,1.79202 -8.3119,-0.59953 32.0516,29.26339 17.8904,13.23621 19.2476,15.08879 34.6702,47.32393 8.828,18.45165 18.1521,39.95545 20.7201,47.78624 2.568,7.83078 8.3193,19.27673 12.7807,25.43543 9.7804,13.50143 7.6659,14.36828 -5.5149,2.26087 -6.6344,-6.0942 -7.6902,-6.60955 -3.3192,-1.6202 3.5253,4.02412 5.9884,9.30834 5.4734,11.74271 -0.7931,3.74938 -2.5129,3.35129 -11.2479,-2.6036 z"
     id="path3762"
     inkscape:connector-curvature="0" />
  <path
     style="fill:#ffffff;stroke-width:2.74977636"
     d="m 1743.2647,396.44084 c -2.3772,-2.60139 -8.1888,-8.23753 -12.9146,-12.52476 -7.8967,-7.16383 -8.5924,-7.34395 -8.5924,-2.22462 0,3.0637 -1.0968,6.24817 -2.4372,7.07661 -2.7157,1.67839 -5.7171,-7.32866 -5.7746,-17.32959 -0.03,-5.14405 -0.818,-5.87601 -3.7278,-3.46108 -2.0296,1.68444 -4.3914,2.3614 -5.2485,1.50436 -0.857,-0.85704 -2.3733,1.00979 -3.3695,4.14852 -3.3105,10.43039 -9.5777,4.69047 -9.7771,-8.95444 -0.082,-5.58781 -0.4462,-5.48072 -5.8062,1.70594 -5.3711,7.20141 -5.9462,7.36874 -9.4497,2.74977 -2.0518,-2.70504 -3.7699,-7.11224 -3.818,-9.79376 -0.082,-4.54447 -0.546,-4.57505 -6.8409,-0.45043 -7.2625,4.75853 -12.495,3.39838 -12.495,-3.24797 0,-2.26856 -1.1257,-3.42892 -2.5016,-2.57857 -1.3759,0.85035 -4.5332,0.76649 -7.0163,-0.18635 -3.3176,-1.27309 -4.0699,-3.75797 -2.837,-9.37136 1.6776,-7.63812 -2.2315,-13.48113 -5.4909,-8.20732 -3.4819,5.63381 -9.6519,2.82626 -9.6519,-4.39192 0,-6.45601 -0.8574,-7.0607 -8.4347,-5.94858 -7.689,1.12849 -8.2922,0.66981 -6.8221,-5.18746 2.007,-7.99663 -0.9587,-8.09028 -15.7878,-0.49852 -12.6971,6.50035 -29.4505,11.09813 -29.4505,8.08237 0,-1.05063 1.5467,-3.55488 3.4372,-5.56499 2.8301,-3.00925 2.0168,-3.31867 -4.6048,-1.75193 -7.3894,1.74837 -7.7242,1.5153 -4.1247,-2.87161 3.5131,-4.28165 3.3498,-4.61483 -1.5821,-3.22814 -26.5452,7.4636 -31.7168,8.47681 -33.5964,6.58205 -4.3493,-4.38429 41.1545,-36.18417 65.5379,-45.80051 26.4196,-10.41941 63.7269,-19.10476 82.1742,-19.13062 13.2019,-0.0185 20.0297,-1.453 26.1229,-5.48837 9.7042,-6.42687 21.3569,-7.11744 25.9858,-1.53997 1.8074,2.17778 5.9805,4.43167 9.2735,5.00866 5.727,1.00347 5.6749,1.18078 -1.1996,4.0791 -3.9527,1.66652 -7.9354,4.98092 -8.8504,7.36534 -0.915,2.38442 -4.1773,4.33531 -7.2495,4.33531 -3.0722,0 -5.5859,1.2374 -5.5859,2.74978 0,1.51237 -2.4115,5.16127 -5.3588,8.10867 -5.2043,5.2043 -5.2101,5.40613 -0.1997,6.99637 8.0715,2.56179 15.6967,18.19649 20.6005,42.23881 2.474,12.12989 8.8279,32.79176 14.1197,45.91527 5.2918,13.12351 9.1817,24.30075 8.6441,24.83832 -0.5376,0.53757 -2.9224,-1.151 -5.2996,-3.75238 z"
     id="path3764"
     inkscape:connector-curvature="0" />
  <path
     style="fill:#ffffff;stroke-width:2.74977636"
     d="m 2061.4886,349.31359 c -4.5524,-6.79492 -5.8241,-7.38302 -8.3868,-3.87835 -2.5556,3.49501 -3.5322,3.00846 -6.3428,-3.15999 -2.4291,-5.33128 -4.7078,-6.85125 -8.4777,-5.65475 -4.1952,1.33152 -5.4965,-0.18074 -6.9855,-8.11786 -1.0065,-5.36482 -0.9385,-11.27991 0.151,-13.14466 1.0895,-1.86475 -0.7066,-1.03322 -3.9913,1.84785 -5.8729,5.1512 -5.9751,5.1512 -6.1465,0 -0.1394,-4.18785 -0.732,-3.85975 -2.9554,1.63615 l -2.7811,6.87444 -4.041,-7.62709 c -2.2226,-4.1949 -3.2944,-8.83515 -2.3819,-10.31167 0.9125,-1.47651 0.4518,-2.68457 -1.0238,-2.68457 -1.4756,0 -3.0953,1.15595 -3.5995,2.56878 -0.5041,1.41282 -11.5047,3.41968 -24.4457,4.45969 -18.6186,1.49628 -24.3573,1.07154 -27.4977,-2.03519 -6.4791,-6.40956 -12.8883,-7.70859 -25.9726,-5.26417 -14.0418,2.62329 -14.8919,1.88283 -6.1813,-5.38385 7.2606,-6.05702 3.1758,-7.05158 -4.6502,-1.13225 -2.9357,2.22047 -9.0052,4.03722 -13.4876,4.03722 -8.1097,0 -8.1241,-0.0286 -2.915,-5.78455 7.6707,-8.47609 26.5456,-18.87497 44.4978,-24.51558 14.3801,-4.51825 14.928,-4.96697 6.3444,-5.19614 l -9.3949,-0.25083 10.7698,-9.58565 c 17.9745,-15.99824 37.695,-28.19673 55.0178,-34.03234 19.6003,-6.60286 56.0796,-10.46187 62.8865,-6.65253 4.3551,2.43723 4.151,3.32779 -2.3766,10.37122 -8.0825,8.72113 -9.6321,23.40946 -3.0463,28.87518 2.5328,2.10202 7.6139,2.73791 13.3215,1.66715 6.9395,-1.30185 10.9744,-0.35654 16.2751,3.81299 3.8764,3.04919 10.5651,5.71249 14.8637,5.91845 6.7836,0.32503 6.9725,0.53524 1.4307,1.59208 -3.5118,0.66968 -10.7782,4.19894 -16.1477,7.8428 -6.2023,4.20899 -11.9709,6.07099 -15.8174,5.10559 -3.6681,-0.92065 -7.4367,0.14585 -9.5613,2.70581 -3.6262,4.36936 -2.8411,9.96777 6.6605,47.48963 4.1181,16.26267 2.3985,20.4911 -4.6035,11.3198 -4.8123,-6.30319 -4.8162,-6.29832 -3.1827,4.00079 0.8995,5.67141 1.1642,10.3081 0.5882,10.30375 -0.5759,-0.004 -3.4619,-3.61216 -6.4132,-8.01735 z"
     id="path3766"
     inkscape:connector-curvature="0" />
  <path
     style="fill:#ffffff;stroke-width:2.74977636"
     d="m 2359.8044,323.27661 c -9.3691,-2.49944 -12.6878,-4.87691 -14.0171,-10.0417 l -1.7417,-6.76693 -3.6104,7.56189 c -4.2528,8.90746 -8.2272,9.86203 -8.2272,1.97603 0,-7.59902 -4.4992,-8.75987 -20.6495,-5.32779 -7.5475,1.60389 -19.9097,3.522 -27.4716,4.26246 l -13.7488,1.34628 10.9991,-4.18059 c 6.0495,-2.29932 11.3084,-4.19922 11.6865,-4.22199 0.3781,-0.0228 0.6875,-1.33487 0.6875,-2.91578 0,-1.81744 -3.6851,-2.18305 -10.0218,-0.99429 -6.3235,1.18631 -9.4053,0.88278 -8.3514,-0.82256 2.6445,-4.27888 34.9723,-19.35556 49.0562,-22.87832 8.6067,-2.15275 13.2588,-4.92213 14.1789,-8.44055 0.7532,-2.8801 0.2867,-5.23655 -1.0366,-5.23655 -1.3234,0 -1.6114,-2.07092 -0.6401,-4.60205 1.3379,-3.48645 0.6504,-4.17395 -2.8361,-2.83608 -5.8394,2.24079 -6.1852,-4.32341 -0.4774,-9.06053 5.3268,-4.42079 5.3268,-8.538 0,-6.49394 -6.3327,2.4301 -4.9214,-1.99258 3.4372,-10.77107 l 7.5619,-7.94173 -10.9991,1.76043 -10.9991,1.76042 10.9991,-10.11554 10.9991,-10.11555 -13.355,1.92258 c -9.2724,1.33483 -12.7954,1.01698 -11.5243,-1.03972 1.0817,-1.75019 -0.4859,-2.9623 -3.831,-2.9623 -3.1141,0 -5.6619,-1.26097 -5.6619,-2.80216 0,-1.614 -3.2064,-2.11955 -7.5619,-1.1923 l -7.5618,1.60988 8.0502,-6.86231 c 15.3658,-13.0983 58.6295,-25.24239 82.8595,-23.25863 13.367,1.09439 14.8227,6.05438 5.5453,18.89512 -16.5804,22.94859 -16.66,23.44383 -5.8853,36.59298 5.3242,6.49751 11.5307,16.24196 13.7921,21.65434 2.2615,5.41237 8.7841,13.69679 14.4947,18.40983 11.1582,9.20902 18.2727,9.43535 34.5809,1.10014 8.6213,-4.40638 18.4236,-2.59317 18.4236,3.40794 0,2.4472 2.8139,3.93936 7.4288,3.93936 6.3583,0 5.3632,1.0644 -6.9043,7.38539 -8.5366,4.39864 -16.4705,11.00797 -19.6182,16.34297 -3.7533,6.36141 -8.4802,9.81793 -16.3094,11.92609 -6.0633,1.63268 -16.3549,5.38777 -22.8702,8.34463 -13.2347,6.00634 -30.4404,6.5986 -48.8694,1.6822 z"
     id="path3768"
     inkscape:connector-curvature="0" />
  <path
     style="fill:#ffffff;stroke-width:2.74977636"
     d="m 2646.37,329.39706 c 0.3781,-1.75658 -2.4061,-3.99388 -6.187,-4.97176 -6.37,-1.64752 -5.4621,-2.69444 12.374,-14.26798 10.5866,-6.8695 22.7104,-14.59863 26.9416,-17.17585 7.66,-4.66564 18.3999,-19.45483 18.4194,-25.3642 0.01,-1.70699 -3.7219,-4.64956 -8.2835,-6.53904 -6.5974,-2.73272 -7.6516,-4.20936 -5.1538,-7.21903 1.7271,-2.08099 7.0061,-4.80138 11.7311,-6.04532 l 8.5909,-2.2617 -10.3116,-3.44011 c -11.7077,-3.90583 -12.7699,-7.01593 -4.6439,-13.59603 6.5795,-5.32774 4.9426,-13.04561 -3.3234,-15.66913 -7.6467,-2.42696 -4.9943,-7.2007 6.071,-10.92633 11.912,-4.01075 12.1455,-9.96666 0.5214,-13.30041 -9.9172,-2.8442 -10.9255,-4.94314 -4.8121,-10.01679 4.9731,-4.12732 5.5107,-11.91942 0.712,-10.31985 -3.8561,1.28535 -11.8574,-5.57425 -9.3854,-8.04619 0.883,-0.88302 0.3681,-3.9176 -1.1443,-6.7435 -1.9648,-3.67115 -5.816,-5.13801 -13.4899,-5.13801 -5.907,0 -11.4776,-1.19334 -12.379,-2.65187 -2.3265,-3.76437 22.3424,-15.52553 37.0703,-17.67367 14.9697,-2.18342 53.1914,2.75727 63.8099,8.24833 6.7757,3.50385 7.6678,5.49191 7.6102,16.95994 -0.038,7.56544 -2.964,19.88119 -7.006,29.48948 -3.8174,9.07426 -7.66,22.86527 -8.539,30.64669 -2.2082,19.54735 8.9662,42.16737 25.6654,51.95377 13.2538,7.76725 32.6126,9.057 40.9776,2.73006 6.7772,-5.12599 16.119,-5.31982 20.1864,-0.41884 1.7315,2.0863 7.142,4.76539 12.0233,5.95353 l 8.8751,2.16026 -7.7243,1.11923 c -4.2484,0.61557 -8.4032,2.88835 -9.2329,5.05061 -2.3842,6.21311 -24.7738,20.11936 -41.9801,26.07396 -11.4677,3.96862 -20.6268,5.14435 -33.8194,4.34132 -9.9509,-0.6057 -23.6071,0.16065 -30.3473,1.70301 -16.3949,3.7517 -31.9202,0.694 -34.7055,-6.8352 -2.1523,-5.81828 -2.1615,-5.81723 -3.7948,0.42842 -0.9148,3.49809 -2.9324,5.46049 -4.5721,4.44706 -1.6142,-0.99761 -2.9349,0.11529 -2.9349,2.47311 0,2.97707 -2.6513,4.28695 -8.6772,4.28695 -5.0191,0 -12.4768,2.89811 -17.6901,6.87444 -10.0007,7.62794 -12.4622,8.41973 -11.4421,3.68064 z"
     id="path3770"
     inkscape:connector-curvature="0" />
  <path
     style="fill:#ffffff;stroke-width:2.74977636"
     d="m 3091.601,333.40045 c -17.2693,-0.90754 -19.6916,-1.63488 -16.8494,-5.05943 2.8004,-3.3743 1.7622,-3.99949 -6.6417,-3.99949 -7.266,0 -9.9609,-1.1813 -9.9609,-4.36637 0,-3.57193 -2.0048,-4.02765 -11.0191,-2.50469 -11.5324,1.94838 -48.464,-3.01582 -50.8221,-6.8313 -0.7511,-1.21532 1.5522,-2.94198 5.1185,-3.83704 3.5662,-0.89507 16.0333,-6.16235 27.7047,-11.70505 16.2833,-7.73293 22.7755,-12.54074 27.9036,-20.66413 3.6756,-5.82258 7.9355,-10.5865 9.4663,-10.5865 1.5308,0 4.0253,-3.26656 5.5432,-7.25901 2.1299,-5.60197 1.7847,-8.33663 -1.5123,-11.97973 -3.8259,-4.22758 -3.8341,-5.08432 -0.078,-8.20145 5.6539,-4.69231 5.3546,-6.25167 -2.9128,-15.17226 -5.9648,-6.43618 -6.808,-9.26131 -5.2471,-17.58133 1.0228,-5.45211 3.1609,-10.71715 4.7514,-11.70009 1.5904,-0.98295 2.2114,-4.38863 1.3799,-7.56819 -1.227,-4.69208 -0.2654,-5.78101 5.1052,-5.78101 8.8251,0 8.4575,-5.89412 -1.0657,-17.09043 -17.6338,-20.73186 -21.4258,-31.34639 -10.1908,-28.5266 9.2663,2.32569 8.6968,-1.61672 -1.0667,-7.38414 -9.7839,-5.77951 -25.0562,-22.8362 -25.0562,-27.983774 0,-2.08991 1.5322,-4.310566 3.4049,-4.934796 2.6896,-0.89654 2.702,-2.6776 0.059,-8.478477 -3.9146,-8.591566 -3.3192,-8.797893 8.3592,-2.896735 l 8.8002,4.446779 -8.6289,-9.258888 c -11.126,-11.938251 -19.3496,-27.888775 -15.1076,-29.302766 1.7123,-0.570759 3.1407,-3.718776 3.1744,-6.995593 0.061,-5.896534 0.113,-5.890326 5.106,0.603205 5.4148,7.041992 9.7377,4.418323 7.0035,-4.250576 -0.8907,-2.824133 2.6568,-0.409816 8.0278,5.463502 5.293,5.788066 11.8848,10.825745 14.6485,11.194842 2.7793,0.371198 11.8669,10.632538 20.336,22.962772 8.4212,12.260426 21.206,29.452015 28.4107,38.203535 11.3618,13.80105 12.848,17.01911 11.2036,24.25878 -3.2167,14.16208 -2.9576,103.78474 0.3302,114.21332 2.4158,7.66246 6.622,11.71513 20.6355,19.88205 20.8623,12.15839 26.6491,12.64463 40.6012,3.41156 11.1225,-7.36056 16.5592,-7.04988 26.4959,1.51414 3.0248,2.60689 9.2118,6.03701 13.7489,7.62249 l 8.2494,2.88268 -7.2834,0.21709 c -4.8278,0.1439 -11.8827,4.72073 -20.9257,13.57533 -16.4174,16.07555 -39.2831,27.81375 -57.4386,29.48641 -26.7976,2.46883 -44.022,2.99868 -63.7605,1.96136 z"
     id="path3772"
     inkscape:connector-curvature="0" />
  <path
     style="fill:#ffffff;stroke-width:2.74977636"
     d="m 3393.6218,321.59346 c 3.3169,-2.57039 2.5987,-2.86194 -3.6677,-1.48879 -19.7855,4.33559 9.9712,-13.60386 39.3064,-23.69665 10.4122,-3.58234 18.7008,-4.67445 26.547,-3.49784 13.1138,1.96653 17.8711,-2.03734 7.8473,-6.60447 -6.8721,-3.13116 -8.1233,-8.43341 -4.2979,-18.21373 1.1571,-2.95828 0.7697,-8.9133 -0.861,-13.23337 -2.6219,-6.9463 -2.172,-8.46374 3.89,-13.12116 l 6.8547,-5.26648 -8.6594,-0.0611 -8.6593,-0.0611 1.0505,-15.12377 c 0.6599,-9.50042 -0.036,-15.12377 -1.8708,-15.12377 -1.8153,0 -2.2353,-3.12312 -1.1094,-8.24933 1.1297,-5.14342 0.7073,-8.24933 -1.1219,-8.24933 -3.3281,0 -16.7517,-20.16488 -16.7517,-25.16427 0,-1.80144 -2.1318,-5.63101 -4.7374,-8.51016 -4.5662,-5.04556 -4.4668,-5.16688 2.7498,-3.35564 10.0824,2.53052 9.7668,-2.63036 -0.7622,-12.4659 -4.9399,-4.61456 -8.2493,-10.48265 -8.2493,-14.62723 0,-3.80665 -0.7565,-8.89253 -1.681,-11.30194 -1.2304,-3.20635 -0.4933,-3.92494 2.7497,-2.68048 6.2301,2.39071 5.5071,-1.48387 -1.7561,-9.41034 l -6.187,-6.752008 7.5619,1.815062 c 7.0496,1.692096 7.5618,1.220169 7.5618,-6.965981 V 81.40255 l 6.3643,5.978877 c 8.0544,7.566774 10.1193,7.524621 10.1948,-0.208119 0.046,-4.686514 1.2821,-3.497403 5.0981,4.903106 2.7707,6.099557 16.1677,24.383896 29.7712,40.631866 24.0161,28.6849 24.9081,30.25361 30.7525,54.08466 5.3698,21.89547 5.6715,26.5392 2.7963,43.04934 -3.0574,17.55708 -2.9236,18.74868 2.6091,23.22875 3.2075,2.59727 7.0012,7.79792 8.4303,11.55699 2.3884,6.2819 3.6702,6.72149 15.8484,5.43518 7.4187,-0.78358 15.7482,-3.66969 18.9267,-6.5579 6.9258,-6.29341 14.5403,-6.66685 16.7827,-0.8231 0.915,2.38442 4.8977,5.69883 8.8505,7.36534 7.1596,3.01856 7.1629,3.03418 0.8519,4.12466 -3.4841,0.60204 -14.6207,9.18917 -24.7479,19.08251 -11.1904,10.93198 -24.2488,20.57411 -33.2903,24.58101 -13.5231,5.99301 -17.2773,6.43755 -41.2467,4.88404 -34.9075,-2.26244 -38.2892,-2.25899 -70.3658,0.0719 -21.1131,1.5342 -26.5401,1.256 -23.3731,-1.19817 z"
     id="path3774"
     inkscape:connector-curvature="0" />
</svg>
