<svg width="30" height="30" viewBox="0 0 30 30" fill="none" xmlns="http://www.w3.org/2000/svg">
<g clip-path="url(#clip0)">
<path d="M29.7326 21.7089C29.652 21.5739 29.1532 20.4901 26.753 18.2624C24.2403 15.9297 24.5779 16.3085 27.6043 12.2751C29.4476 9.81865 30.1845 8.31853 29.9539 7.67724C29.7345 7.06594 28.3788 7.2272 28.3788 7.2272L23.8709 7.25345C23.8709 7.25345 23.5372 7.20845 23.2878 7.35659C23.0459 7.50285 22.8902 7.84037 22.8902 7.84037C22.8902 7.84037 22.1758 9.74176 21.2232 11.3581C19.215 14.769 18.4105 14.949 18.0824 14.7371C17.3192 14.244 17.5105 12.7532 17.5105 11.6957C17.5105 8.38979 18.0111 7.01156 16.5335 6.65529C16.0422 6.53715 15.6822 6.4584 14.4277 6.44527C12.8189 6.42839 11.4556 6.4509 10.685 6.8278C10.1712 7.07907 9.77552 7.63973 10.0174 7.67161C10.3156 7.71099 10.9906 7.8535 11.3488 8.34104C11.8119 8.96921 11.795 10.3831 11.795 10.3831C11.795 10.3831 12.0613 14.274 11.1744 14.7578C10.565 15.0897 9.73051 14.4127 7.93976 11.3169C7.02281 9.73239 6.32901 7.97913 6.32901 7.97913C6.32901 7.97913 6.19588 7.65286 5.95773 7.47847C5.66896 7.26658 5.26393 7.19908 5.26393 7.19908L0.977366 7.22533C0.977366 7.22533 0.334193 7.24408 0.0979258 7.52348C-0.11209 7.77287 0.0810496 8.28666 0.0810496 8.28666C0.0810496 8.28666 3.43755 16.1379 7.23658 20.0963C10.7225 23.7247 14.679 23.4865 14.679 23.4865H16.4716C16.4716 23.4865 17.0136 23.4265 17.2892 23.1284C17.5442 22.8546 17.5348 22.3408 17.5348 22.3408C17.5348 22.3408 17.4992 19.935 18.6168 19.5806C19.7175 19.2318 21.1314 21.9058 22.6296 22.9352C23.7622 23.7134 24.6229 23.5428 24.6229 23.5428L28.63 23.4865C28.63 23.4865 30.7264 23.3571 29.7326 21.7089Z" fill="white"/>
</g>
<defs>
<clipPath id="clip0">
<rect width="30" height="30" fill="white"/>
</clipPath>
</defs>
</svg>
